<svg width="25" height="20" viewBox="0 0 25 20" fill="none" xmlns="http://www.w3.org/2000/svg">
<path fill-rule="evenodd" clip-rule="evenodd" d="M11.9362 0.189525C12.1209 0.0697769 12.3111 0.00346518 12.4983 0.000131867C12.6856 -0.00319841 12.8699 0.0564588 13.0604 0.189525L24.6458 9.28038C25.0398 9.57319 25.103 10.2454 24.8458 10.5967C24.5527 10.997 23.8939 11.0391 23.5215 10.7103L12.4983 2.06451L1.47512 10.7103C1.10269 11.0391 0.457556 10.9868 0.15081 10.5967C-0.155939 10.2065 0.0532768 9.5741 0.350885 9.28038L11.9362 0.189525ZM3.35202 10.3126L5.18128 8.87318V18.1818H9.14468V15.4546C9.14468 13.6236 10.6562 12.1213 12.4983 12.1213C14.3404 12.1213 15.852 13.6236 15.852 15.4546V18.1818H19.8154V8.87318L21.6446 10.3126V19.0909C21.6446 19.593 21.2351 20 20.73 20H14.9373C14.4322 20 14.0228 19.593 14.0227 19.0909V15.4546C14.0227 14.5995 13.3586 13.9394 12.4983 13.9394C11.638 13.9394 10.9739 14.5995 10.9739 15.4546V19.0909C10.9739 19.593 10.5644 20 10.0593 20H4.26665C3.76153 20 3.35207 19.593 3.35202 19.0909V10.3126Z" fill="#67DAFF"/>
</svg>
