<svg width="208" height="62" viewBox="0 0 208 62" fill="none" xmlns="http://www.w3.org/2000/svg">
<path fill-rule="evenodd" clip-rule="evenodd" d="M141.453 25.736C141.463 25.6181 141.468 25.4749 141.468 25.3068C141.468 25.0641 141.462 24.8705 141.448 24.7257C141.434 24.581 141.414 24.468 141.387 24.3872C141.36 24.3063 141.327 24.2526 141.286 24.2256C141.246 24.1985 141.192 24.1849 141.124 24.1849C141.037 24.1849 140.914 24.2392 140.755 24.3469C140.597 24.4546 140.395 24.5758 140.149 24.7105C139.903 24.8455 139.608 24.9682 139.265 25.0793C138.921 25.1904 138.513 25.2459 138.042 25.2459C137.523 25.2459 137.056 25.1568 136.642 24.9784C136.227 24.7998 135.873 24.5287 135.581 24.1649C135.287 23.8011 135.061 23.338 134.903 22.7756C134.745 22.2132 134.666 21.5478 134.666 20.78C134.666 20.0794 134.74 19.4498 134.888 18.8905C135.036 18.3313 135.254 17.8548 135.54 17.4608C135.826 17.0666 136.173 16.7636 136.581 16.5512C136.989 16.3394 137.452 16.233 137.971 16.233C138.443 16.233 138.849 16.2921 139.189 16.4098C139.529 16.5278 139.822 16.6591 140.068 16.8039C140.314 16.9488 140.515 17.0804 140.67 17.1981C140.825 17.3158 140.953 17.3747 141.054 17.3747C141.114 17.3747 141.168 17.3547 141.215 17.3142C141.263 17.2738 141.303 17.2097 141.337 17.1222C141.371 17.0347 141.394 16.9202 141.407 16.7788C141.421 16.6373 141.428 16.4655 141.428 16.2635C141.428 16.0749 141.423 15.9165 141.413 15.7886C141.403 15.6606 141.387 15.5493 141.367 15.455C141.347 15.3609 141.32 15.2832 141.286 15.2225C141.252 15.1621 141.19 15.0864 141.099 14.9953C141.008 14.9044 140.848 14.7951 140.619 14.6669C140.39 14.539 140.132 14.4263 139.846 14.3286C139.56 14.2307 139.248 14.1518 138.911 14.0911C138.574 14.0302 138.224 14 137.86 14C136.963 14 136.143 14.1518 135.398 14.4547C134.654 14.7578 134.015 15.2025 133.483 15.7886C132.951 16.3744 132.536 17.0986 132.24 17.9609C131.943 18.8233 131.795 19.8097 131.795 20.9214C131.795 22.0126 131.93 22.9692 132.2 23.7909C132.469 24.613 132.857 25.2983 133.362 25.8473C133.867 26.3963 134.48 26.809 135.201 27.0849C135.923 27.361 136.731 27.4992 137.627 27.4992C138.085 27.4992 138.512 27.4621 138.906 27.388C139.3 27.314 139.65 27.2214 139.957 27.1101C140.264 26.999 140.523 26.8829 140.735 26.7615C140.948 26.6404 141.091 26.5411 141.165 26.4636C141.239 26.3861 141.293 26.3169 141.327 26.2564C141.36 26.1957 141.387 26.1235 141.407 26.0394C141.428 25.9551 141.443 25.854 141.453 25.736ZM98.3324 26.2968C98.4134 26.5395 98.4638 26.7315 98.4841 26.8727C98.5043 27.0142 98.4775 27.1203 98.4032 27.191C98.3288 27.2617 98.1977 27.3055 98.009 27.3224C97.8203 27.3392 97.5607 27.3478 97.2307 27.3478C96.887 27.3478 96.6192 27.3428 96.4271 27.3326C96.235 27.3224 96.0886 27.3021 95.9875 27.2719C95.8863 27.2417 95.8156 27.1996 95.7752 27.1456C95.7347 27.0917 95.7009 27.021 95.674 26.9335L94.7948 24.3063H89.8823L89.0537 26.8627C89.0267 26.9572 88.9912 27.036 88.9473 27.1003C88.9037 27.1644 88.8328 27.2148 88.7352 27.2515C88.6375 27.2887 88.4991 27.314 88.3206 27.3274C88.1422 27.341 87.9079 27.3478 87.6182 27.3478C87.3082 27.3478 87.0656 27.3376 86.8906 27.3174C86.7151 27.2971 86.5938 27.2485 86.5267 27.1708C86.4594 27.0935 86.4355 26.984 86.456 26.8424C86.4762 26.7009 86.5267 26.5125 86.6076 26.2766L90.6406 14.6769C90.681 14.5624 90.7279 14.4699 90.782 14.3992C90.8359 14.3286 90.9218 14.2745 91.0398 14.2373C91.1577 14.2006 91.321 14.1768 91.5299 14.1668C91.7388 14.1566 92.0152 14.1518 92.3589 14.1518C92.7562 14.1518 93.0729 14.1566 93.309 14.1668C93.5448 14.1768 93.7284 14.2006 93.8598 14.2373C93.9912 14.2745 94.0855 14.33 94.1428 14.4042C94.1999 14.4785 94.249 14.5794 94.2892 14.7074L98.3324 26.2968ZM83.442 23.6343C83.7555 22.7822 83.9121 21.7567 83.9121 20.5576C83.9121 19.5204 83.7671 18.6076 83.4775 17.8194C83.1877 17.0315 82.7648 16.3694 82.2091 15.834C81.6529 15.2982 80.9689 14.8944 80.1571 14.6213C79.3449 14.3486 78.3563 14.2122 77.1904 14.2122H73.8346C73.6123 14.2122 73.4252 14.2781 73.2738 14.4092C73.1222 14.5406 73.0463 14.7544 73.0463 15.0507V26.4484C73.0463 26.7447 73.1222 26.9588 73.2738 27.0901C73.4252 27.2214 73.6123 27.2871 73.8346 27.2871H76.9579C78.117 27.2871 79.1162 27.1608 79.955 26.9083C80.7938 26.6556 81.5064 26.2598 82.0927 25.721C82.6791 25.1822 83.1288 24.4867 83.442 23.6343ZM80.9454 18.9208C81.0904 19.453 81.1627 20.0288 81.1627 20.6487C81.1627 21.4031 81.0802 22.063 80.9152 22.629C80.75 23.1948 80.5008 23.6682 80.1673 24.0486C79.8338 24.4294 79.4174 24.7141 78.9189 24.9025C78.4202 25.0909 77.8069 25.1852 77.0795 25.1852H75.6945V16.2937H77.0388C77.8542 16.2937 78.5129 16.4034 79.0151 16.6221C79.517 16.8409 79.928 17.146 80.248 17.5365C80.5681 17.9273 80.8006 18.3888 80.9454 18.9208ZM92.3184 16.708H92.3284L94.1783 22.2652H90.4685L92.3184 16.708ZM109.255 15.3034C109.255 15.4988 109.247 15.6656 109.23 15.8036C109.213 15.9417 109.188 16.053 109.154 16.1371C109.12 16.2214 109.078 16.2835 109.028 16.3239C108.977 16.3644 108.922 16.3846 108.861 16.3846H105.586V26.9233C105.586 26.9908 105.564 27.0513 105.521 27.1053C105.477 27.1594 105.404 27.2028 105.303 27.2365C105.202 27.2703 105.066 27.2971 104.894 27.3174C104.722 27.3376 104.508 27.3478 104.252 27.3478C103.996 27.3478 103.782 27.3376 103.61 27.3174C103.438 27.2971 103.302 27.2703 103.201 27.2365C103.1 27.2028 103.027 27.1594 102.984 27.1053C102.939 27.0513 102.918 26.9908 102.918 26.9233V16.3846H99.6429C99.5754 16.3846 99.5182 16.3644 99.4709 16.3239C99.4238 16.2835 99.3834 16.2214 99.3497 16.1371C99.3159 16.053 99.2906 15.9417 99.2738 15.8036C99.257 15.6656 99.2486 15.4988 99.2486 15.3034C99.2486 15.1014 99.257 14.9294 99.2738 14.7881C99.2906 14.6467 99.3159 14.534 99.3497 14.4497C99.3834 14.3656 99.4238 14.3049 99.4709 14.2679C99.5182 14.2307 99.5754 14.2122 99.6429 14.2122H108.861C108.922 14.2122 108.977 14.2307 109.028 14.2679C109.078 14.3049 109.12 14.3656 109.154 14.4497C109.188 14.534 109.213 14.6467 109.23 14.7881C109.247 14.9294 109.255 15.1014 109.255 15.3034ZM122.048 26.8727C122.028 26.7315 121.978 26.5395 121.897 26.2968L117.854 14.7074C117.813 14.5794 117.764 14.4785 117.707 14.4042C117.65 14.33 117.555 14.2745 117.424 14.2373C117.293 14.2006 117.109 14.1768 116.873 14.1668C116.637 14.1566 116.32 14.1518 115.923 14.1518C115.579 14.1518 115.303 14.1566 115.094 14.1668C114.885 14.1768 114.722 14.2006 114.604 14.2373C114.486 14.2745 114.4 14.3286 114.346 14.3992C114.292 14.4699 114.245 14.5624 114.205 14.6769L110.172 26.2766C110.091 26.5125 110.04 26.7009 110.02 26.8424C110 26.984 110.023 27.0935 110.091 27.1708C110.158 27.2485 110.279 27.2971 110.455 27.3174C110.63 27.3376 110.872 27.3478 111.182 27.3478C111.472 27.3478 111.706 27.341 111.885 27.3274C112.063 27.314 112.202 27.2887 112.299 27.2515C112.397 27.2148 112.468 27.1644 112.512 27.1003C112.556 27.036 112.591 26.9572 112.618 26.8627L113.447 24.3063H118.359L119.238 26.9335C119.265 27.021 119.299 27.0917 119.339 27.1456C119.38 27.1996 119.45 27.2417 119.552 27.2719C119.653 27.3021 119.799 27.3224 119.991 27.3326C120.183 27.3428 120.451 27.3478 120.795 27.3478C121.125 27.3478 121.385 27.3392 121.573 27.3224C121.762 27.3055 121.893 27.2617 121.967 27.191C122.042 27.1203 122.069 27.0142 122.048 26.8727ZM115.893 16.708H115.883L114.033 22.2652H117.742L115.893 16.708ZM153.139 26.2464C153.139 26.4418 153.131 26.6052 153.114 26.7363C153.097 26.8677 153.072 26.974 153.038 27.0547C153.004 27.1354 152.962 27.1944 152.912 27.2317C152.861 27.2685 152.806 27.2871 152.745 27.2871H146.175C145.953 27.2871 145.765 27.2214 145.614 27.0901C145.462 26.9588 145.387 26.7447 145.387 26.4484V15.0507C145.387 14.7544 145.462 14.5406 145.614 14.4092C145.765 14.2781 145.953 14.2122 146.175 14.2122H152.705C152.765 14.2122 152.819 14.2291 152.866 14.2627C152.913 14.2963 152.954 14.3554 152.988 14.4395C153.021 14.524 153.047 14.6315 153.063 14.7628C153.08 14.8944 153.089 15.061 153.089 15.2632C153.089 15.4516 153.08 15.6116 153.063 15.7429C153.047 15.8742 153.021 15.9806 152.988 16.0613C152.954 16.1421 152.913 16.2012 152.866 16.238C152.819 16.2751 152.765 16.2937 152.705 16.2937H148.035V19.4866H151.987C152.048 19.4866 152.103 19.5052 152.154 19.5423C152.204 19.5793 152.246 19.6366 152.28 19.714C152.314 19.7915 152.339 19.8958 152.356 20.0272C152.372 20.1587 152.381 20.3187 152.381 20.5071C152.381 20.7025 152.372 20.8641 152.356 20.992C152.339 21.1202 152.314 21.2229 152.28 21.3004C152.246 21.3781 152.204 21.4335 152.154 21.4672C152.103 21.5008 152.048 21.5176 151.987 21.5176H148.035V25.2056H152.745C152.806 25.2056 152.861 25.2243 152.912 25.2611C152.962 25.2983 153.004 25.3572 153.038 25.4379C153.072 25.5188 153.097 25.6247 153.114 25.7562C153.131 25.8876 153.139 26.051 153.139 26.2464ZM168.196 26.7718C168.25 26.6506 168.277 26.5125 168.277 26.3575V14.6063C168.277 14.539 168.26 14.4785 168.227 14.4243C168.193 14.3706 168.134 14.3234 168.05 14.2829C167.965 14.2425 167.846 14.2138 167.691 14.197C167.536 14.1802 167.344 14.1716 167.115 14.1716C166.872 14.1716 166.673 14.1802 166.518 14.197C166.363 14.2138 166.239 14.2425 166.144 14.2829C166.05 14.3234 165.983 14.3706 165.942 14.4243C165.902 14.4785 165.882 14.539 165.882 14.6063V20.7396C165.882 21.2043 165.887 21.6928 165.897 22.2046C165.907 22.7165 165.922 23.2085 165.942 23.68H165.932C165.811 23.4107 165.686 23.141 165.558 22.8715C165.43 22.6022 165.299 22.3277 165.164 22.048C165.029 21.7687 164.889 21.489 164.745 21.2095C164.6 20.9298 164.453 20.6451 164.305 20.3555L161.758 15.5763C161.63 15.3134 161.505 15.093 161.384 14.9144C161.262 14.736 161.133 14.5961 160.995 14.4951C160.856 14.3942 160.7 14.3218 160.525 14.2781C160.349 14.2343 160.134 14.2122 159.878 14.2122H158.453C158.183 14.2122 157.955 14.2913 157.77 14.4497C157.585 14.6081 157.492 14.8455 157.492 15.1621V26.9133C157.492 26.9806 157.509 27.0413 157.543 27.0951C157.576 27.1492 157.637 27.1944 157.725 27.2317C157.812 27.2685 157.933 27.2971 158.088 27.3174C158.244 27.3376 158.439 27.3478 158.675 27.3478C158.917 27.3478 159.116 27.3376 159.271 27.3174C159.426 27.2971 159.549 27.2685 159.64 27.2317C159.731 27.1944 159.795 27.1492 159.832 27.0951C159.869 27.0413 159.888 26.9806 159.888 26.9133V20.0726C159.888 19.5607 159.881 19.0641 159.868 18.5824C159.854 18.1007 159.834 17.6172 159.807 17.1322H159.827C159.982 17.5299 160.157 17.9391 160.353 18.36C160.548 18.781 160.74 19.1735 160.929 19.5371L164.184 25.6501C164.352 25.9871 164.504 26.2614 164.638 26.4738C164.773 26.6857 164.913 26.8542 165.058 26.979C165.203 27.1035 165.361 27.1894 165.533 27.2365C165.705 27.2837 165.908 27.3073 166.144 27.3073H167.276C167.404 27.3073 167.531 27.2887 167.656 27.2515C167.78 27.2148 167.888 27.1558 167.979 27.0749C168.07 26.994 168.142 26.8929 168.196 26.7718ZM181.838 15.3034C181.838 15.4988 181.83 15.6656 181.813 15.8036C181.796 15.9417 181.771 16.053 181.737 16.1371C181.703 16.2214 181.661 16.2835 181.611 16.3239C181.56 16.3644 181.505 16.3846 181.444 16.3846H178.169V26.9233C178.169 26.9908 178.147 27.0513 178.103 27.1053C178.059 27.1594 177.987 27.2028 177.886 27.2365C177.785 27.2703 177.649 27.2971 177.477 27.3174C177.305 27.3376 177.091 27.3478 176.835 27.3478C176.579 27.3478 176.365 27.3376 176.193 27.3174C176.021 27.2971 175.885 27.2703 175.784 27.2365C175.683 27.2028 175.61 27.1594 175.566 27.1053C175.522 27.0513 175.501 26.9908 175.501 26.9233V16.3846H172.226C172.158 16.3846 172.101 16.3644 172.054 16.3239C172.007 16.2835 171.966 16.2214 171.933 16.1371C171.899 16.053 171.874 15.9417 171.857 15.8036C171.84 15.6656 171.832 15.4988 171.832 15.3034C171.832 15.1014 171.84 14.9294 171.857 14.7881C171.874 14.6467 171.899 14.534 171.933 14.4497C171.966 14.3656 172.007 14.3049 172.054 14.2679C172.101 14.2307 172.158 14.2122 172.226 14.2122H181.444C181.505 14.2122 181.56 14.2307 181.611 14.2679C181.661 14.3049 181.703 14.3656 181.737 14.4497C181.771 14.534 181.796 14.6467 181.813 14.7881C181.83 14.9294 181.838 15.1014 181.838 15.3034ZM193.12 26.7363C193.137 26.6052 193.145 26.4418 193.145 26.2464C193.145 26.051 193.137 25.8876 193.12 25.7562C193.103 25.6247 193.078 25.5188 193.044 25.4379C193.01 25.3572 192.968 25.2983 192.918 25.2611C192.867 25.2243 192.812 25.2056 192.751 25.2056H188.041V21.5176H191.993C192.054 21.5176 192.109 21.5008 192.16 21.4672C192.21 21.4335 192.252 21.3781 192.286 21.3004C192.32 21.2229 192.345 21.1202 192.362 20.992C192.379 20.8641 192.387 20.7025 192.387 20.5071C192.387 20.3187 192.379 20.1587 192.362 20.0272C192.345 19.8958 192.32 19.7915 192.286 19.714C192.252 19.6366 192.21 19.5793 192.16 19.5423C192.109 19.5052 192.054 19.4866 191.993 19.4866H188.041V16.2937H192.711C192.771 16.2937 192.825 16.2751 192.872 16.238C192.919 16.2012 192.96 16.1421 192.994 16.0613C193.027 15.9806 193.053 15.8742 193.069 15.7429C193.086 15.6116 193.095 15.4516 193.095 15.2632C193.095 15.061 193.086 14.8944 193.069 14.7628C193.053 14.6315 193.027 14.524 192.994 14.4395C192.96 14.3554 192.919 14.2963 192.872 14.2627C192.825 14.2291 192.771 14.2122 192.711 14.2122H186.181C185.959 14.2122 185.771 14.2781 185.62 14.4092C185.468 14.5406 185.393 14.7544 185.393 15.0507V26.4484C185.393 26.7447 185.468 26.9588 185.62 27.0901C185.771 27.2214 185.959 27.2871 186.181 27.2871H192.751C192.812 27.2871 192.867 27.2685 192.918 27.2317C192.968 27.1944 193.01 27.1354 193.044 27.0547C193.078 26.974 193.103 26.8677 193.12 26.7363ZM207.201 26.9433C207.201 27.0176 207.188 27.0799 207.161 27.1304C207.134 27.181 207.07 27.2231 206.969 27.2567C206.868 27.2903 206.72 27.314 206.525 27.3274C206.329 27.341 206.063 27.3478 205.726 27.3478C205.443 27.3478 205.217 27.341 205.049 27.3274C204.88 27.314 204.747 27.2887 204.649 27.2515C204.552 27.2148 204.483 27.1676 204.442 27.1101C204.402 27.0531 204.368 26.984 204.341 26.9031L203.169 23.9829C203.027 23.6531 202.889 23.36 202.754 23.1039C202.619 22.8479 202.469 22.634 202.304 22.4624C202.139 22.2905 201.949 22.1609 201.733 22.0732C201.518 21.9859 201.268 21.9419 200.985 21.9419H200.157V26.9233C200.157 26.9908 200.135 27.0513 200.091 27.1053C200.047 27.1594 199.974 27.2028 199.874 27.2365C199.773 27.2703 199.638 27.2971 199.469 27.3174C199.301 27.3376 199.085 27.3478 198.822 27.3478C198.566 27.3478 198.352 27.3376 198.181 27.3174C198.009 27.2971 197.872 27.2703 197.771 27.2365C197.67 27.2028 197.599 27.1594 197.559 27.1053C197.519 27.0513 197.498 26.9908 197.498 26.9233V15.0507C197.498 14.7544 197.574 14.5406 197.726 14.4092C197.877 14.2781 198.064 14.2122 198.287 14.2122H201.673C202.016 14.2122 202.299 14.219 202.522 14.2325C202.744 14.2459 202.946 14.2627 203.128 14.2829C203.654 14.357 204.127 14.4849 204.548 14.6669C204.969 14.8487 205.327 15.0864 205.62 15.3793C205.913 15.672 206.137 16.0194 206.292 16.42C206.447 16.8209 206.525 17.2806 206.525 17.7992C206.525 18.237 206.469 18.6363 206.358 18.9965C206.247 19.3571 206.083 19.6784 205.867 19.9615C205.652 20.2442 205.386 20.4903 205.069 20.6991C204.752 20.9079 204.392 21.0765 203.987 21.2043C204.183 21.2988 204.366 21.4131 204.538 21.5478C204.71 21.6826 204.872 21.846 205.023 22.038C205.175 22.2298 205.318 22.4488 205.453 22.6947C205.588 22.9406 205.719 23.2187 205.847 23.5284L206.949 26.105C207.05 26.3609 207.117 26.5479 207.151 26.6658C207.185 26.7836 207.201 26.8761 207.201 26.9433ZM203.482 16.9809C203.677 17.2774 203.775 17.641 203.775 18.0721C203.775 18.355 203.728 18.6108 203.634 18.8401C203.539 19.0689 203.398 19.2662 203.209 19.4309C203.02 19.5961 202.785 19.7241 202.502 19.815C202.219 19.9061 201.888 19.9515 201.511 19.9515H200.157V16.2431H201.349C201.653 16.2431 201.89 16.2533 202.062 16.2735C202.234 16.2937 202.387 16.3207 202.522 16.3544C202.967 16.4755 203.286 16.6845 203.482 16.9809ZM80.5012 46.9923C80.5012 47.1813 80.493 47.3392 80.4768 47.4662C80.4601 47.5933 80.4357 47.6962 80.4033 47.7743C80.3706 47.8526 80.3299 47.9097 80.2811 47.9453C80.2322 47.9813 80.1783 47.9992 80.1196 47.9992H73.7629C73.5478 47.9992 73.3667 47.9355 73.2201 47.8083C73.0735 47.6814 73 47.4744 73 47.1879V36.1602C73 35.8733 73.0735 35.6663 73.2201 35.5391C73.3667 35.412 73.5478 35.3487 73.7629 35.3487H80.0806C80.1393 35.3487 80.1913 35.365 80.237 35.3976C80.2827 35.43 80.3217 35.4871 80.3544 35.5686C80.3868 35.6503 80.4113 35.7542 80.4277 35.8813C80.4439 36.0085 80.4521 36.1698 80.4521 36.3654C80.4521 36.5478 80.4439 36.7026 80.4277 36.8295C80.4113 36.9567 80.3868 37.0596 80.3544 37.1377C80.3217 37.216 80.2827 37.273 80.237 37.3087C80.1913 37.3447 80.1393 37.3625 80.0806 37.3625H75.5623V40.4519H79.3862C79.4449 40.4519 79.4988 40.4699 79.5476 40.5056C79.5965 40.5414 79.6371 40.5971 79.6698 40.6717C79.7022 40.7468 79.7267 40.8477 79.7431 40.9747C79.7593 41.1018 79.7675 41.2568 79.7675 41.4394C79.7675 41.6282 79.7593 41.7846 79.7431 41.9087C79.7267 42.0324 79.7022 42.1319 79.6698 42.2066C79.6371 42.2817 79.5965 42.3354 79.5476 42.368C79.4988 42.4006 79.4449 42.4171 79.3862 42.4171H75.5623V45.9854H80.1196C80.1783 45.9854 80.2322 46.0034 80.2811 46.0388C80.3299 46.0749 80.3706 46.1319 80.4033 46.2102C80.4357 46.2885 80.4601 46.3908 80.4768 46.5179C80.493 46.6451 80.5012 46.8032 80.5012 46.9923ZM95.0696 47.5006C95.1216 47.3833 95.1477 47.2495 95.1477 47.0998V35.7299C95.1477 35.6647 95.1312 35.606 95.0988 35.554C95.0662 35.5019 95.0091 35.4562 94.9278 35.4172C94.8462 35.378 94.7303 35.3503 94.5805 35.3339C94.4304 35.3179 94.2448 35.3097 94.023 35.3097C93.7883 35.3097 93.5958 35.3179 93.446 35.3339C93.296 35.3503 93.1754 35.378 93.0843 35.4172C92.993 35.4562 92.9277 35.5019 92.8886 35.554C92.8496 35.606 92.8299 35.6647 92.8299 35.7299V41.6642C92.8299 42.1139 92.8349 42.5862 92.8446 43.0818C92.8544 43.5771 92.8692 44.0528 92.8886 44.5091H92.8788C92.7614 44.2483 92.6409 43.9876 92.5171 43.7271C92.3931 43.4662 92.2659 43.2007 92.1355 42.93C92.0051 42.6597 91.8698 42.3892 91.7297 42.1185C91.5895 41.8484 91.4477 41.5729 91.3043 41.2926L88.8398 36.6686C88.7158 36.4143 88.5954 36.2009 88.4781 36.0279C88.3607 35.8555 88.2351 35.7201 88.1015 35.6224C87.9677 35.5247 87.8161 35.4546 87.6467 35.412C87.4772 35.3698 87.2685 35.3487 87.0208 35.3487H85.6418C85.381 35.3487 85.1609 35.4254 84.9818 35.5782C84.8024 35.7316 84.7129 35.9612 84.7129 36.2677V47.6376C84.7129 47.7026 84.7291 47.7613 84.7617 47.8136C84.7942 47.8654 84.8529 47.9097 84.9378 47.9453C85.0225 47.9813 85.1399 48.009 85.2899 48.0286C85.4397 48.0482 85.6288 48.0578 85.8571 48.0578C86.0918 48.0578 86.2841 48.0482 86.4341 48.0286C86.5839 48.009 86.7029 47.9813 86.791 47.9453C86.879 47.9097 86.9409 47.8654 86.9769 47.8136C87.0126 47.7613 87.0306 47.7026 87.0306 47.6376V41.0189C87.0306 40.5236 87.024 40.0429 87.0112 39.5768C86.9979 39.111 86.9783 38.6433 86.9525 38.174H86.9719C87.1217 38.5584 87.2914 38.9547 87.4804 39.3617C87.6695 39.7692 87.8552 40.1488 88.0378 40.5008L91.187 46.4154C91.35 46.7412 91.4966 47.0067 91.627 47.2121C91.7574 47.4173 91.8928 47.5805 92.033 47.7008C92.173 47.8218 92.3264 47.9047 92.4926 47.9503C92.6589 47.996 92.856 48.0188 93.0843 48.0188H94.1795C94.3035 48.0188 94.4256 48.0008 94.5464 47.9649C94.6668 47.9293 94.7713 47.8722 94.8593 47.7939C94.9474 47.7156 95.0173 47.6179 95.0696 47.5006ZM110 37.3137C110 37.5027 109.992 37.6657 109.975 37.8026C109.959 37.9394 109.936 38.0485 109.907 38.1298C109.877 38.2117 109.842 38.2685 109.799 38.3012C109.757 38.3336 109.706 38.35 109.648 38.35C109.563 38.35 109.426 38.2913 109.237 38.174C109.048 38.0567 108.797 37.9296 108.484 37.7928C108.171 37.6559 107.798 37.5289 107.364 37.4116C106.931 37.2943 106.427 37.2356 105.853 37.2356C105.24 37.2356 104.686 37.3415 104.191 37.5531C103.695 37.765 103.271 38.0649 102.919 38.4525C102.567 38.8403 102.297 39.3065 102.108 39.8505C101.918 40.3948 101.824 40.9961 101.824 41.6544C101.824 42.3778 101.92 43.0149 102.112 43.5655C102.305 44.1165 102.574 44.5776 102.919 44.949C103.265 45.3206 103.68 45.6007 104.166 45.7897C104.652 45.9788 105.188 46.0733 105.775 46.0733C106.062 46.0733 106.345 46.0406 106.626 45.9755C106.906 45.9103 107.167 45.8126 107.408 45.6822V42.7494H105.012C104.895 42.7494 104.803 42.6759 104.738 42.5292C104.673 42.3826 104.641 42.1335 104.641 41.7816C104.641 41.599 104.649 41.4458 104.665 41.3221C104.681 41.1981 104.706 41.0988 104.738 41.0237C104.771 40.9491 104.81 40.8934 104.856 40.8576C104.901 40.8219 104.953 40.8039 105.012 40.8039H109.286C109.39 40.8039 109.483 40.8219 109.565 40.8576C109.646 40.8934 109.718 40.9473 109.78 41.0189C109.842 41.0906 109.889 41.1769 109.922 41.2778C109.954 41.3791 109.97 41.4946 109.97 41.6252V46.6599C109.97 46.8555 109.936 47.0263 109.868 47.1731C109.799 47.3196 109.659 47.4353 109.447 47.5202C109.235 47.6049 108.973 47.6928 108.66 47.7841C108.347 47.8752 108.023 47.9535 107.687 48.0188C107.351 48.0837 107.012 48.1325 106.67 48.1655C106.328 48.198 105.983 48.2144 105.638 48.2144C104.628 48.2144 103.723 48.0692 102.924 47.7791C102.125 47.4894 101.449 47.0689 100.895 46.5179C100.341 45.9673 99.9169 45.296 99.6235 44.5039C99.3301 43.7121 99.1835 42.8145 99.1835 41.8108C99.1835 40.7745 99.3399 39.8442 99.6529 39.0195C99.9658 38.1952 100.409 37.4945 100.983 36.9176C101.557 36.3408 102.249 35.8993 103.061 35.5932C103.873 35.2867 104.778 35.1337 105.775 35.1337C106.323 35.1337 106.821 35.1711 107.271 35.2458C107.721 35.3209 108.114 35.412 108.45 35.5195C108.785 35.627 109.064 35.743 109.286 35.8669C109.508 35.9906 109.662 36.0982 109.75 36.1895C109.838 36.2806 109.902 36.4093 109.941 36.5755C109.98 36.7417 110 36.9877 110 37.3137ZM117.072 47.8234C117.114 47.7711 117.136 47.7124 117.136 47.6474V35.7007C117.136 35.6354 117.114 35.5768 117.072 35.5247C117.029 35.4725 116.959 35.43 116.862 35.3976C116.764 35.365 116.633 35.3389 116.47 35.3193C116.307 35.2999 116.099 35.2901 115.844 35.2901C115.597 35.2901 115.391 35.2999 115.228 35.3193C115.065 35.3389 114.933 35.365 114.832 35.3976C114.731 35.43 114.659 35.4725 114.617 35.5247C114.575 35.5768 114.554 35.6354 114.554 35.7007V47.6474C114.554 47.7124 114.575 47.7711 114.617 47.8234C114.659 47.8752 114.73 47.9177 114.827 47.9503C114.925 47.9827 115.057 48.009 115.224 48.0286C115.39 48.0482 115.597 48.0578 115.844 48.0578C116.099 48.0578 116.307 48.0482 116.47 48.0286C116.633 48.009 116.764 47.9827 116.862 47.9503C116.959 47.9177 117.029 47.8752 117.072 47.8234ZM132.271 47.0998C132.271 47.2495 132.245 47.3833 132.193 47.5006C132.141 47.6179 132.071 47.7156 131.983 47.7939C131.895 47.8722 131.79 47.9293 131.67 47.9649C131.549 48.0008 131.427 48.0188 131.303 48.0188H130.208C129.979 48.0188 129.782 47.996 129.616 47.9503C129.45 47.9047 129.296 47.8218 129.156 47.7008C129.016 47.5805 128.881 47.4173 128.75 47.2121C128.62 47.0067 128.473 46.7412 128.31 46.4154L125.161 40.5008C124.979 40.1488 124.793 39.7692 124.604 39.3617C124.415 38.9547 124.245 38.5584 124.095 38.174H124.076C124.102 38.6433 124.121 39.111 124.134 39.5768C124.147 40.0429 124.154 40.5236 124.154 41.0189V47.6376C124.154 47.7026 124.136 47.7613 124.1 47.8136C124.064 47.8654 124.002 47.9097 123.914 47.9453C123.826 47.9813 123.707 48.009 123.557 48.0286C123.407 48.0482 123.215 48.0578 122.98 48.0578C122.752 48.0578 122.563 48.0482 122.413 48.0286C122.263 48.009 122.146 47.9813 122.061 47.9453C121.976 47.9097 121.918 47.8654 121.885 47.8136C121.852 47.7613 121.836 47.7026 121.836 47.6376V36.2677C121.836 35.9612 121.926 35.7316 122.105 35.5782C122.284 35.4254 122.504 35.3487 122.765 35.3487H124.144C124.392 35.3487 124.6 35.3698 124.77 35.412C124.94 35.4546 125.091 35.5247 125.225 35.6224C125.358 35.7201 125.484 35.8555 125.601 36.0279C125.719 36.2009 125.839 36.4143 125.963 36.6686L128.428 41.2926C128.571 41.5729 128.713 41.8484 128.853 42.1185C128.993 42.3892 129.129 42.6597 129.259 42.93C129.389 43.2007 129.516 43.4662 129.64 43.7271C129.764 43.9876 129.885 44.2483 130.002 44.5091H130.012C129.992 44.0528 129.978 43.5771 129.968 43.0818C129.958 42.5862 129.953 42.1139 129.953 41.6642V35.7299C129.953 35.6647 129.973 35.606 130.012 35.554C130.051 35.5019 130.116 35.4562 130.208 35.4172C130.299 35.378 130.419 35.3503 130.569 35.3339C130.719 35.3179 130.912 35.3097 131.146 35.3097C131.368 35.3097 131.554 35.3179 131.704 35.3339C131.854 35.3503 131.969 35.378 132.051 35.4172C132.132 35.4562 132.19 35.5019 132.222 35.554C132.255 35.606 132.271 35.6647 132.271 35.7299V47.0998ZM144.448 47.4662C144.465 47.3392 144.473 47.1813 144.473 46.9923C144.473 46.8032 144.465 46.6451 144.448 46.5179C144.432 46.3908 144.408 46.2885 144.375 46.2102C144.342 46.1319 144.302 46.0749 144.253 46.0388C144.204 46.0034 144.15 45.9854 144.091 45.9854H139.534V42.4171H143.358C143.417 42.4171 143.47 42.4006 143.519 42.368C143.568 42.3354 143.609 42.2817 143.642 42.2066C143.674 42.1319 143.699 42.0324 143.715 41.9087C143.731 41.7846 143.739 41.6282 143.739 41.4394C143.739 41.2568 143.731 41.1018 143.715 40.9747C143.699 40.8477 143.674 40.7468 143.642 40.6717C143.609 40.5971 143.568 40.5414 143.519 40.5056C143.47 40.4699 143.417 40.4519 143.358 40.4519H139.534V37.3625H144.052C144.111 37.3625 144.163 37.3447 144.209 37.3087C144.254 37.273 144.293 37.216 144.326 37.1377C144.359 37.0596 144.383 36.9567 144.4 36.8295C144.416 36.7026 144.424 36.5478 144.424 36.3654C144.424 36.1698 144.416 36.0085 144.4 35.8813C144.383 35.7542 144.359 35.6503 144.326 35.5686C144.293 35.4871 144.254 35.43 144.209 35.3976C144.163 35.365 144.111 35.3487 144.052 35.3487H137.735C137.519 35.3487 137.339 35.412 137.192 35.5391C137.045 35.6663 136.972 35.8733 136.972 36.1602V47.1879C136.972 47.4744 137.045 47.6814 137.192 47.8083C137.339 47.9355 137.519 47.9992 137.735 47.9992H144.091C144.15 47.9992 144.204 47.9813 144.253 47.9453C144.302 47.9097 144.342 47.8526 144.375 47.7743C144.408 47.6962 144.432 47.5933 144.448 47.4662ZM156.185 46.9923C156.185 47.1813 156.177 47.3392 156.161 47.4662C156.145 47.5933 156.12 47.6962 156.088 47.7743C156.055 47.8526 156.014 47.9097 155.966 47.9453C155.917 47.9813 155.863 47.9992 155.804 47.9992H149.447C149.232 47.9992 149.051 47.9355 148.905 47.8083C148.758 47.6814 148.685 47.4744 148.685 47.1879V36.1602C148.685 35.8733 148.758 35.6663 148.905 35.5391C149.051 35.412 149.232 35.3487 149.447 35.3487H155.765C155.824 35.3487 155.876 35.365 155.922 35.3976C155.967 35.43 156.006 35.4871 156.039 35.5686C156.071 35.6503 156.096 35.7542 156.112 35.8813C156.128 36.0085 156.137 36.1698 156.137 36.3654C156.137 36.5478 156.128 36.7026 156.112 36.8295C156.096 36.9567 156.071 37.0596 156.039 37.1377C156.006 37.216 155.967 37.273 155.922 37.3087C155.876 37.3447 155.824 37.3625 155.765 37.3625H151.247V40.4519H155.071C155.129 40.4519 155.183 40.4699 155.232 40.5056C155.281 40.5414 155.322 40.5971 155.354 40.6717C155.387 40.7468 155.411 40.8477 155.428 40.9747C155.444 41.1018 155.452 41.2568 155.452 41.4394C155.452 41.6282 155.444 41.7846 155.428 41.9087C155.411 42.0324 155.387 42.1319 155.354 42.2066C155.322 42.2817 155.281 42.3354 155.232 42.368C155.183 42.4006 155.129 42.4171 155.071 42.4171H151.247V45.9854H155.804C155.863 45.9854 155.917 46.0034 155.966 46.0388C156.014 46.0749 156.055 46.1319 156.088 46.2102C156.12 46.2885 156.145 46.3908 156.161 46.5179C156.177 46.6451 156.185 46.8032 156.185 46.9923ZM169.747 47.8476C169.773 47.7987 169.786 47.7385 169.786 47.6668C169.786 47.6015 169.769 47.512 169.737 47.3979C169.704 47.284 169.639 47.103 169.541 46.8555L168.475 44.3624C168.351 44.0625 168.224 43.794 168.094 43.5557C167.963 43.318 167.825 43.106 167.678 42.9202C167.532 42.7346 167.375 42.5764 167.209 42.4463C167.043 42.3159 166.865 42.205 166.676 42.1139C167.067 41.99 167.416 41.827 167.722 41.6252C168.029 41.423 168.286 41.1851 168.495 40.9114C168.704 40.6377 168.862 40.3264 168.969 39.9776C169.077 39.6292 169.131 39.2428 169.131 38.8193C169.131 38.3174 169.055 37.8725 168.906 37.4847C168.756 37.097 168.539 36.7613 168.255 36.4778C167.972 36.1943 167.626 35.9646 167.219 35.7886C166.811 35.6126 166.353 35.4887 165.845 35.4172C165.669 35.3976 165.473 35.3812 165.258 35.3684C165.043 35.3551 164.769 35.3487 164.436 35.3487H161.16C160.945 35.3487 160.764 35.412 160.617 35.5391C160.471 35.6663 160.397 35.8733 160.397 36.1602V47.6474C160.397 47.7124 160.417 47.7711 160.456 47.8234C160.495 47.8752 160.564 47.9177 160.661 47.9503C160.759 47.9827 160.891 48.009 161.058 48.0286C161.224 48.0482 161.431 48.0578 161.678 48.0578C161.933 48.0578 162.141 48.0482 162.304 48.0286C162.467 48.009 162.598 47.9827 162.695 47.9503C162.793 47.9177 162.863 47.8752 162.906 47.8234C162.948 47.7711 162.969 47.7124 162.969 47.6474V42.8275H163.771C164.045 42.8275 164.286 42.8698 164.495 42.9546C164.704 43.0393 164.888 43.1647 165.048 43.3309C165.207 43.497 165.352 43.7041 165.483 43.9519C165.613 44.1994 165.747 44.4829 165.884 44.8025L167.018 47.6278C167.044 47.706 167.077 47.7729 167.116 47.828C167.155 47.8834 167.222 47.9293 167.317 47.9649C167.411 48.0008 167.54 48.025 167.703 48.0384C167.866 48.0512 168.084 48.0578 168.358 48.0578C168.684 48.0578 168.941 48.0512 169.131 48.0384C169.32 48.025 169.463 48.0024 169.561 47.9699C169.659 47.9373 169.721 47.8964 169.747 47.8476ZM166.47 39.0832C166.47 38.666 166.376 38.314 166.187 38.0275C165.998 37.7405 165.688 37.5385 165.258 37.4212C165.127 37.3886 164.979 37.3625 164.813 37.3431C164.647 37.3235 164.417 37.3137 164.123 37.3137H162.969V40.9016H164.28C164.645 40.9016 164.965 40.8576 165.238 40.7695C165.512 40.6816 165.74 40.5578 165.923 40.3981C166.105 40.2385 166.242 40.0479 166.333 39.8262C166.425 39.6046 166.47 39.3569 166.47 39.0832ZM176.134 47.8234C176.176 47.7711 176.198 47.7124 176.198 47.6474V35.7007C176.198 35.6354 176.176 35.5768 176.134 35.5247C176.092 35.4725 176.022 35.43 175.924 35.3976C175.826 35.365 175.696 35.3389 175.533 35.3193C175.37 35.2999 175.161 35.2901 174.907 35.2901C174.659 35.2901 174.454 35.2999 174.291 35.3193C174.128 35.3389 173.996 35.365 173.895 35.3976C173.794 35.43 173.722 35.4725 173.679 35.5247C173.637 35.5768 173.616 35.6354 173.616 35.7007V47.6474C173.616 47.7124 173.637 47.7711 173.679 47.8234C173.722 47.8752 173.792 47.9177 173.89 47.9503C173.988 47.9827 174.119 48.009 174.286 48.0286C174.452 48.0482 174.659 48.0578 174.907 48.0578C175.161 48.0578 175.37 48.0482 175.533 48.0286C175.696 48.009 175.826 47.9827 175.924 47.9503C176.022 47.9177 176.092 47.8752 176.134 47.8234ZM191.333 47.0998C191.333 47.2495 191.307 47.3833 191.255 47.5006C191.203 47.6179 191.133 47.7156 191.045 47.7939C190.957 47.8722 190.852 47.9293 190.732 47.9649C190.611 48.0008 190.489 48.0188 190.365 48.0188H189.27C189.042 48.0188 188.844 47.996 188.678 47.9503C188.512 47.9047 188.359 47.8218 188.219 47.7008C188.078 47.5805 187.943 47.4173 187.813 47.2121C187.682 47.0067 187.536 46.7412 187.373 46.4154L184.224 40.5008C184.041 40.1488 183.855 39.7692 183.666 39.3617C183.477 38.9547 183.308 38.5584 183.158 38.174H183.138C183.164 38.6433 183.184 39.111 183.197 39.5768C183.21 40.0429 183.216 40.5236 183.216 41.0189V47.6376C183.216 47.7026 183.198 47.7613 183.163 47.8136C183.126 47.8654 183.065 47.9097 182.977 47.9453C182.889 47.9813 182.77 48.009 182.62 48.0286C182.47 48.0482 182.277 48.0578 182.043 48.0578C181.814 48.0578 181.625 48.0482 181.475 48.0286C181.325 48.009 181.208 47.9813 181.123 47.9453C181.038 47.9097 180.98 47.8654 180.947 47.8136C180.915 47.7613 180.898 47.7026 180.898 47.6376V36.2677C180.898 35.9612 180.988 35.7316 181.167 35.5782C181.347 35.4254 181.567 35.3487 181.828 35.3487H183.207C183.454 35.3487 183.663 35.3698 183.832 35.412C184.002 35.4546 184.153 35.5247 184.287 35.6224C184.421 35.7201 184.546 35.8555 184.664 36.0279C184.781 36.2009 184.902 36.4143 185.026 36.6686L187.49 41.2926C187.633 41.5729 187.775 41.8484 187.915 42.1185C188.056 42.3892 188.191 42.6597 188.321 42.93C188.452 43.2007 188.579 43.4662 188.703 43.7271C188.826 43.9876 188.947 44.2483 189.065 44.5091H189.074C189.055 44.0528 189.04 43.5771 189.03 43.0818C189.021 42.5862 189.016 42.1139 189.016 41.6642V35.7299C189.016 35.6647 189.035 35.606 189.074 35.554C189.113 35.5019 189.179 35.4562 189.27 35.4172C189.361 35.378 189.482 35.3503 189.632 35.3339C189.782 35.3179 189.974 35.3097 190.209 35.3097C190.43 35.3097 190.616 35.3179 190.766 35.3339C190.916 35.3503 191.032 35.378 191.113 35.4172C191.195 35.4562 191.252 35.5019 191.285 35.554C191.317 35.606 191.333 35.6647 191.333 35.7299V47.0998ZM206.161 37.8026C206.177 37.6657 206.185 37.5027 206.185 37.3137C206.185 36.9877 206.166 36.7417 206.127 36.5755C206.088 36.4093 206.024 36.2806 205.936 36.1895C205.848 36.0982 205.693 35.9906 205.472 35.8669C205.25 35.743 204.971 35.627 204.635 35.5195C204.3 35.412 203.907 35.3209 203.457 35.2458C203.007 35.1711 202.508 35.1337 201.961 35.1337C200.963 35.1337 200.058 35.2867 199.247 35.5932C198.435 35.8993 197.742 36.3408 197.169 36.9176C196.595 37.4945 196.151 38.1952 195.839 39.0195C195.525 39.8442 195.369 40.7745 195.369 41.8108C195.369 42.8145 195.516 43.7121 195.809 44.5039C196.103 45.296 196.526 45.9673 197.081 46.5179C197.635 47.0689 198.311 47.4894 199.11 47.7791C199.908 48.0692 200.813 48.2144 201.824 48.2144C202.169 48.2144 202.513 48.198 202.855 48.1655C203.198 48.1325 203.537 48.0837 203.873 48.0188C204.208 47.9535 204.533 47.8752 204.846 47.7841C205.159 47.6928 205.421 47.6049 205.633 47.5202C205.845 47.4353 205.985 47.3196 206.053 47.1731C206.122 47.0263 206.156 46.8555 206.156 46.6599V41.6252C206.156 41.4946 206.14 41.3791 206.107 41.2778C206.074 41.1769 206.027 41.0906 205.965 41.0189C205.903 40.9473 205.832 40.8934 205.75 40.8576C205.669 40.8219 205.576 40.8039 205.472 40.8039H201.198C201.139 40.8039 201.087 40.8219 201.041 40.8576C200.996 40.8934 200.957 40.9491 200.924 41.0237C200.891 41.0988 200.867 41.1981 200.851 41.3221C200.834 41.4458 200.826 41.599 200.826 41.7816C200.826 42.1335 200.859 42.3826 200.924 42.5292C200.989 42.6759 201.08 42.7494 201.198 42.7494H203.594V45.6822C203.353 45.8126 203.092 45.9103 202.811 45.9755C202.531 46.0406 202.247 46.0733 201.961 46.0733C201.374 46.0733 200.838 45.9788 200.352 45.7897C199.866 45.6007 199.45 45.3206 199.105 44.949C198.759 44.5776 198.49 44.1165 198.298 43.5655C198.106 43.0149 198.01 42.3778 198.01 41.6544C198.01 40.9961 198.104 40.3948 198.293 39.8505C198.482 39.3065 198.753 38.8403 199.105 38.4525C199.457 38.0649 199.881 37.765 200.376 37.5531C200.872 37.3415 201.426 37.2356 202.039 37.2356C202.612 37.2356 203.116 37.2943 203.55 37.4116C203.983 37.5289 204.357 37.6559 204.67 37.7928C204.982 37.9296 205.233 38.0567 205.423 38.174C205.612 38.2913 205.748 38.35 205.833 38.35C205.892 38.35 205.942 38.3336 205.985 38.3012C206.027 38.2685 206.063 38.2117 206.092 38.1298C206.122 38.0485 206.145 37.9394 206.161 37.8026Z" fill="#02557A"/>
<path fill-rule="evenodd" clip-rule="evenodd" d="M12.3776 14.0883L12.3777 14.0883C12.5967 14.3293 12.8026 14.5559 13.0581 14.6653C13.3113 14.7737 13.6196 14.7544 13.9265 14.7351C14.0511 14.7273 14.1755 14.7195 14.2958 14.7202C14.7545 14.7231 15.2132 14.7225 15.6583 14.7218L15.6595 14.7218C15.8448 14.7216 16.0278 14.7213 16.2074 14.7213C16.2811 14.5937 16.3505 14.4693 16.4181 14.348L16.4181 14.3479C16.5637 14.0867 16.7013 13.8397 16.8582 13.6056C17.2009 13.0944 17.6573 12.6734 18.2293 12.471C18.691 12.3075 19.207 12.2241 19.6968 12.2321C20.6175 12.2471 21.3987 12.6403 22.0255 13.3323C23.4269 14.8792 23.0822 17.2945 21.3568 18.3874C20.2858 19.0659 19.1867 19.1293 18.0753 18.6006C17.4074 18.2828 16.8865 17.7521 16.5581 17.0629C16.5306 17.0052 16.5071 16.9456 16.4836 16.8861L16.4622 16.8321C16.3477 16.5471 16.144 16.4475 15.8353 16.4522C15.3738 16.4592 14.9121 16.4578 14.4505 16.4563H14.4503C13.8757 16.4544 13.3012 16.4526 12.727 16.4672C12.3388 16.4771 12.0713 16.3419 11.8079 16.0735C10.8527 15.1009 9.8914 14.1343 8.93012 13.1677L8.93011 13.1677L8.9301 13.1677L8.93009 13.1677L8.93009 13.1677L8.93008 13.1677L8.93007 13.1677L8.93006 13.1676L8.93005 13.1676L8.93004 13.1676L8.93003 13.1676L8.93003 13.1676L8.93002 13.1676L8.93001 13.1676L8.93 13.1676L8.92999 13.1676L8.92914 13.1667C8.43794 12.6728 7.94674 12.1789 7.45637 11.6842C7.36305 11.59 7.27674 11.4888 7.18405 11.3802C7.13897 11.3273 7.09238 11.2727 7.04275 11.2163C9.39835 8.37411 12.1425 6.05702 15.2876 4.20967C20.6268 1.07348 26.4069 -0.276597 32.5521 0.0467605C35.3526 0.194142 38.1134 0.720362 40.8098 1.74645C40.7659 1.79739 40.7276 1.84299 40.6927 1.88464C40.6266 1.96341 40.5724 2.02807 40.5136 2.08807C40.0898 2.51924 39.6655 2.94995 39.2413 3.38067L39.2412 3.38076L39.2409 3.38112C38.4315 4.20279 37.6222 5.02446 36.8161 5.8493C36.5899 6.08094 36.4011 6.23929 36.0473 6.02941C35.9239 5.95626 35.7645 5.94842 35.6029 5.94048C35.5051 5.93567 35.4065 5.93083 35.3147 5.91143C34.2023 5.67656 33.0787 5.56317 31.9427 5.54887C31.7933 5.54701 31.6436 5.5292 31.4941 5.51141L31.4941 5.5114C31.3114 5.48966 31.1289 5.46794 30.9473 5.47541C30.5626 5.49115 30.1781 5.5186 29.7937 5.54606C29.2472 5.58509 28.7008 5.62411 28.154 5.62944C27.585 5.63503 27.0337 5.74019 26.4829 5.84526C26.2009 5.89905 25.9191 5.9528 25.6351 5.99317C24.9569 6.08957 24.2908 6.30117 23.6328 6.5102L23.5279 6.54349C22.737 6.79428 21.9474 7.06135 21.1843 7.38588C20.2216 7.79538 19.2577 8.21873 18.3469 8.73074C17.4059 9.25984 16.4995 9.86339 15.6296 10.5051C14.5309 11.3155 13.488 12.2016 12.5567 13.2099C12.4511 13.3243 12.348 13.441 12.2364 13.5673L12.2363 13.5675L12.2362 13.5676L12.236 13.5678L12.236 13.5679L12.2357 13.5681L12.2357 13.5682L12.2356 13.5683L12.2347 13.5693L12.2345 13.5696L12.2341 13.57C12.1802 13.631 12.1243 13.6943 12.0653 13.7606C12.176 13.8664 12.2782 13.9788 12.3776 14.0883ZM45.8206 4.06094C44.7924 3.4038 43.6808 2.9238 42.552 2.43966C42.5097 2.47613 42.4674 2.51111 42.4256 2.5456L42.4256 2.54564L42.4255 2.54569L42.4255 2.54574L42.4254 2.54579L42.4253 2.54584L42.4253 2.54591L42.4252 2.54596L42.4251 2.54601L42.4251 2.54605L42.425 2.5461L42.425 2.54615L42.4249 2.5462L42.4249 2.54625L42.4248 2.5463L42.4247 2.54635C42.3355 2.62009 42.249 2.69165 42.1701 2.77093L41.7209 3.22225L41.7186 3.22461C39.7535 5.19925 37.7884 7.17386 35.8309 9.15616C35.6019 9.38815 35.3642 9.50874 35.0378 9.49291C34.5224 9.46794 34.0067 9.44903 33.4909 9.43011L33.4908 9.43011L33.4907 9.4301L33.4905 9.43009L33.4904 9.43009L33.4902 9.43008L33.4901 9.43008L33.49 9.43007L33.4898 9.43007L33.4897 9.43006L33.4896 9.43005L33.4894 9.43005L33.4893 9.43004L33.4891 9.43004L33.489 9.43003L33.4889 9.43003L33.4887 9.43002C33.123 9.41661 32.7573 9.4032 32.3917 9.38762C32.0598 9.3735 31.9177 9.26928 31.9105 8.94044C31.9035 8.61672 31.746 8.39111 31.5388 8.2011C30.9036 7.61877 30.2017 7.17699 29.3179 7.04319C28.4518 6.91199 27.669 7.14237 27.0125 7.63091C25.7571 8.5651 25.2335 10.1062 25.83 11.5528C26.3532 12.8217 27.7246 13.8597 29.2729 13.6403C30.6882 13.4397 31.6183 12.6377 32.1491 11.3275C32.1708 11.2741 32.2101 11.228 32.2385 11.1948C32.2488 11.1827 32.2577 11.1723 32.2638 11.1638C32.4065 11.1807 32.5453 11.2012 32.6813 11.2214C32.974 11.2648 33.2539 11.3063 33.5335 11.3045C34.0495 11.3011 34.5652 11.2746 35.0811 11.2481C35.3634 11.2336 35.6458 11.2191 35.9282 11.2083C36.2003 11.1979 36.3981 11.066 36.5779 10.8768C36.9902 10.4425 37.4068 10.0125 37.8241 9.58311L38.0181 9.3834C38.4062 8.98378 38.7944 8.58412 39.1887 8.19094C39.4063 7.97399 39.6304 7.76366 39.8526 7.55507L39.8527 7.55501L39.8528 7.55488L39.853 7.55476L39.8531 7.55463L39.8533 7.55447L39.8534 7.55432C39.9525 7.46134 40.0512 7.36871 40.1488 7.27599C43.6968 8.70718 46.6965 10.8578 49.3104 13.5875C51.6265 16.0062 54.7995 21.5107 54.8213 23.2465C54.7878 23.2524 54.7539 23.26 54.7196 23.2678L54.7196 23.2678C54.6452 23.2845 54.5693 23.3017 54.4934 23.3018C54.0861 23.3025 53.6787 23.3039 53.2713 23.3053L53.2678 23.3053C51.7574 23.3104 50.2469 23.3155 48.7371 23.2873C48.3729 23.2806 48.1379 23.3861 47.9083 23.6185C47.5074 24.0245 47.1061 24.4301 46.7048 24.8358L46.7033 24.8373C45.8747 25.6748 45.0462 26.5123 44.2208 27.3531C43.9655 27.6131 43.7037 27.7571 43.3103 27.7516C41.9833 27.7331 40.656 27.7358 39.3287 27.7386C38.8509 27.7396 38.3731 27.7406 37.8954 27.7406H37.365C37.3269 27.6651 37.2927 27.5944 37.2604 27.5275C37.1939 27.3896 37.135 27.2677 37.0648 27.1528C37.0221 27.0828 36.9806 27.0114 36.939 26.9399L36.939 26.9399L36.939 26.9398C36.8039 26.7076 36.6681 26.474 36.4887 26.2832C35.9742 25.7361 35.349 25.4082 34.5805 25.2938C33.9932 25.2065 33.4359 25.2475 32.9134 25.4545C31.825 25.8858 31.096 26.6802 30.8468 27.8528C30.6777 28.6485 30.7556 29.4452 31.1637 30.1465C31.6105 30.9146 32.2544 31.4772 33.1363 31.7501C34.6265 32.2112 36.4133 31.4987 37.0465 29.9924C37.2093 29.6052 37.421 29.4368 37.8664 29.4424C38.9735 29.4564 40.0808 29.4557 41.188 29.455C42.1198 29.4544 43.0515 29.4539 43.9831 29.462C44.3969 29.4656 44.699 29.3614 44.9961 29.0543C45.7506 28.2742 46.5167 27.5055 47.283 26.7368L47.2832 26.7366L47.2836 26.7361C47.7676 26.2506 48.2515 25.7651 48.7325 25.2767C48.9119 25.0946 49.0964 25.0152 49.3509 25.0213C49.7468 25.0307 50.1429 25.0278 50.5391 25.025L50.5399 25.025C50.7285 25.0236 50.917 25.0223 51.1055 25.0222L53.6731 25.0223H53.6805C55.8807 25.0224 58.0808 25.0225 60.281 25.021C60.4087 25.0209 60.5364 25.0101 60.6728 24.9985L60.673 24.9985L60.6731 24.9984C60.7395 24.9928 60.808 24.987 60.8795 24.9821C60.734 23.803 60.4098 22.7284 60.0877 21.661C60.0578 21.5617 60.0278 21.4625 59.9981 21.3633C59.7921 20.6769 59.5225 20.0081 59.2512 19.3438C58.9978 18.7228 58.7143 18.114 58.4311 17.5058L58.3956 17.4297C58.3048 17.2346 58.1814 17.0527 58.0578 16.8755C57.7729 16.467 57.558 16.0215 57.3426 15.5749C57.1326 15.1396 56.922 14.7031 56.6456 14.2987L56.4944 14.0773L56.4943 14.0771L56.4942 14.0771L56.4942 14.0771C55.8781 13.1747 55.2629 12.2737 54.5729 11.4279C53.4499 10.0514 52.2019 8.79225 50.8675 7.62444C50.1426 6.99004 49.3964 6.37201 48.6084 5.82106C48.0401 5.42367 47.4472 5.06232 46.8541 4.70089C46.508 4.48999 46.1619 4.27907 45.8206 4.06094ZM6.01814 12.5744C3.33022 16.2064 1.57219 20.1725 0.579158 24.6184H1.21903L4.69393 24.6183C10.2863 24.6179 15.8787 24.6175 21.4711 24.6258C21.852 24.6264 22.1258 24.5182 22.3947 24.2448C23.4759 23.1449 24.5635 22.0513 25.6511 20.9578L25.6516 20.9573L25.6528 20.9561L25.6528 20.9561L25.6528 20.956L25.6528 20.956L25.6528 20.956L25.6528 20.956L25.6529 20.956L25.6529 20.956L25.6529 20.956L25.6529 20.956L25.6529 20.956L25.6529 20.9559L25.6529 20.9559L25.6529 20.9559L25.6529 20.9559L25.653 20.9559C26.3483 20.2568 27.0437 19.5576 27.7373 18.8568C27.9725 18.6192 28.2189 18.4693 28.5689 18.4707C30.8414 18.4791 33.1139 18.4779 35.3865 18.4711C35.6537 18.4702 35.8031 18.5493 35.9191 18.8121C36.1601 19.3584 36.4102 19.9093 36.7326 20.4087C37.2867 21.2668 38.051 21.9034 38.9753 22.3473C39.6593 22.6757 40.365 22.8685 41.1253 22.9495C41.7867 23.0199 42.4348 22.9647 43.0549 22.8229C44.3961 22.5163 45.5045 21.7724 46.3612 20.6897C46.9991 19.8839 47.4262 18.984 47.5717 17.9347C47.6939 17.0534 47.6819 16.1871 47.4737 15.3413C47.2309 14.3551 46.7273 13.4918 46.0076 12.7587C45.0559 11.7891 43.9273 11.1646 42.5928 10.9299C42.5524 10.9228 42.5117 10.9154 42.471 10.908C42.1653 10.8528 41.8514 10.7961 41.5514 10.8284C40.4207 10.9503 39.3151 11.18 38.3526 11.8511C37.3305 12.5635 36.5347 13.4576 36.0866 14.642C36.0273 14.7987 35.9506 14.9487 35.8694 15.1075L35.8693 15.1075C35.8303 15.1838 35.7903 15.2621 35.7507 15.3441H35.1388C34.5166 15.3441 33.8944 15.3444 33.2722 15.3446C31.2877 15.3455 29.3031 15.3464 27.3185 15.3376C26.9754 15.3361 26.7252 15.4347 26.4822 15.6813C25.5278 16.65 24.5691 17.6145 23.6105 18.5789L23.6097 18.5797L23.6097 18.5798L23.6097 18.5798L23.6096 18.5798L23.6096 18.5798L23.6096 18.5798L23.6096 18.5798L23.6096 18.5798L23.6096 18.5798L23.6096 18.5798L23.6096 18.5799L23.6095 18.5799L23.6095 18.5799L23.6095 18.5799L23.6095 18.5799L23.6095 18.5799C22.7498 19.4448 21.8901 20.3098 21.0334 21.1777C20.8171 21.3969 20.597 21.4975 20.2863 21.4969C17.3289 21.4911 14.3715 21.491 11.414 21.4909C10.194 21.4908 8.97396 21.4908 7.7539 21.4903C7.64953 21.4903 7.5452 21.4821 7.41002 21.4715C7.33578 21.4657 7.25223 21.4592 7.15427 21.4529L7.17449 21.4062C7.57359 20.4846 7.93969 19.6392 8.4139 18.8397C8.74834 18.2759 9.07357 17.7066 9.3976 17.1394L9.39801 17.1387L9.39972 17.1357L9.39996 17.1352C9.54252 16.8857 9.68484 16.6366 9.82762 16.3885L6.01814 12.5744ZM0.366582 26.2655C0.052502 27.1884 -0.0876357 28.579 0.0571524 29.4646H0.618687L4.37877 29.4645C10.7445 29.4642 17.1102 29.4639 23.4759 29.4716C23.8383 29.472 24.1014 29.3679 24.3557 29.1103C25.1311 28.325 25.9099 27.5429 26.6887 26.7609L26.6894 26.7603C27.6955 25.7501 28.7016 24.7398 29.7003 23.7223C29.9379 23.4804 30.1734 23.3942 30.4922 23.3966C31.7621 23.4057 33.0319 23.4036 34.3018 23.3983C34.7972 23.3962 34.8907 23.3016 34.8947 22.8107C34.9009 22.0716 34.8989 21.3323 34.8937 20.5931C34.8931 20.5086 34.8774 20.4243 34.8596 20.3281C34.8507 20.2799 34.8412 20.2288 34.8328 20.1731H34.2015C33.759 20.1732 33.3165 20.1747 32.874 20.1763L32.8723 20.1763C31.7112 20.1804 30.5501 20.1845 29.3896 20.1609C28.9267 20.1515 28.6159 20.3068 28.3052 20.6238C27.3385 21.6103 26.3662 22.5912 25.3938 23.5721L25.3938 23.5721L25.3938 23.5722L25.3937 23.5722L25.3937 23.5722L25.3937 23.5722L25.3937 23.5723L25.3937 23.5723L25.3936 23.5723L25.3936 23.5723L25.3936 23.5723L25.3936 23.5724L25.3935 23.5724L25.3935 23.5724L25.3935 23.5724C24.6201 24.3526 23.8467 25.1329 23.0761 25.9159C22.8495 26.1462 22.6151 26.246 22.2879 26.2442C20.6919 26.2354 19.0958 26.237 17.4998 26.2385C16.857 26.2391 16.2141 26.2397 15.5713 26.2397C13.7604 26.2396 11.9494 26.2393 10.1385 26.239H10.1385H10.1385H10.1385H10.1385H10.1384H10.1384H10.1384H10.1384H10.1384H10.1384H10.1383H10.1383H10.1383H10.1383C7.03708 26.2384 3.93589 26.2379 0.834661 26.2383C0.722786 26.2383 0.61091 26.2471 0.505135 26.2554C0.45753 26.2591 0.41116 26.2628 0.366582 26.2655ZM47.416 28.9585L47.4176 28.9568C47.6884 28.6749 47.9592 28.3929 48.2329 28.1138C48.4194 27.9236 48.608 27.7355 48.7966 27.5473C48.9966 27.3477 49.1967 27.1482 49.3942 26.9461C49.6035 26.7319 49.837 26.6353 50.1472 26.6362C52.6271 26.6432 55.107 26.6436 57.5869 26.6439C58.6308 26.644 59.6747 26.6442 60.7186 26.6448C61.2062 26.6451 61.2232 26.6478 61.2961 27.1208C61.3392 27.4006 61.3614 27.6836 61.385 27.9857L61.385 27.9859C61.3959 28.1247 61.4071 28.2677 61.4208 28.4162C61.3313 28.4223 61.25 28.4292 61.1742 28.4356C61.0258 28.4481 60.8983 28.4589 60.7708 28.459C60.1726 28.4592 59.5745 28.4597 58.9763 28.4602C56.3679 28.4624 53.7596 28.4645 51.1514 28.448C50.6275 28.4447 50.1966 28.5432 49.8803 28.9791C49.5865 29.3841 49.1951 29.5059 48.7042 29.4707C48.3369 29.4442 47.9672 29.4505 47.5974 29.4567C47.436 29.4594 47.2745 29.4621 47.1133 29.4621L47.0633 29.3253C47.181 29.2032 47.2985 29.0809 47.416 28.9585ZM16.1794 57.9391C17.2075 58.5963 18.3192 59.0763 19.448 59.5603C19.491 59.5233 19.5339 59.4878 19.5762 59.4529C19.6651 59.3794 19.7514 59.3082 19.83 59.2292L20.3351 58.7215C22.2823 56.7648 24.2295 54.808 26.1691 52.8438C26.3982 52.6118 26.6358 52.4913 26.9621 52.5071C27.4759 52.532 27.9899 52.5508 28.5039 52.5697L28.5046 52.5697L28.5048 52.5698L28.505 52.5698L28.5052 52.5698L28.5054 52.5698L28.5057 52.5698L28.5059 52.5698L28.5061 52.5698L28.5063 52.5698L28.5065 52.5698L28.5067 52.5699L28.5069 52.5699L28.5071 52.5699C28.8742 52.5833 29.2414 52.5968 29.6084 52.6125C29.9403 52.6266 30.0823 52.7307 30.0894 53.0596C30.0965 53.3833 30.2541 53.609 30.4613 53.7989C31.0964 54.3813 31.7982 54.823 32.682 54.9568C33.5482 55.088 34.331 54.8576 34.9876 54.3691C36.243 53.4349 36.7665 51.8938 36.17 50.4473C35.6467 49.1783 34.2753 48.1403 32.727 48.3598C31.3118 48.5603 30.3817 49.3623 29.8508 50.6726C29.8292 50.7258 29.7901 50.7717 29.7617 50.805C29.7513 50.8172 29.7424 50.8277 29.7363 50.8362C29.5935 50.8193 29.4547 50.7988 29.3187 50.7786C29.026 50.7352 28.7461 50.6937 28.4665 50.6955C27.9508 50.6989 27.4352 50.7254 26.9196 50.7519L26.9189 50.752C26.6366 50.7665 26.3543 50.781 26.0719 50.7917C25.7996 50.8021 25.6018 50.9341 25.4222 51.1233C25.0099 51.5574 24.5932 51.9876 24.1758 52.4169L23.9786 52.6199C23.5916 53.0184 23.2045 53.417 22.8112 53.8091C22.5935 54.0262 22.3693 54.2367 22.1469 54.4454L22.1463 54.446L22.1462 54.446L22.1462 54.4461L22.1461 54.4462L22.146 54.4462L22.146 54.4463C22.0471 54.5391 21.9486 54.6315 21.8513 54.724C18.3032 53.2928 15.3034 51.1423 12.6896 48.4126C10.3736 45.9939 7.20059 40.4894 7.17877 38.7535C7.21223 38.7476 7.24613 38.74 7.28033 38.7323L7.2804 38.7323C7.35479 38.7155 7.43064 38.6984 7.50654 38.6983C7.91308 38.6976 8.31965 38.6962 8.72621 38.6948C10.2386 38.6896 11.7511 38.6844 13.2629 38.7127C13.6271 38.7194 13.8622 38.614 14.0917 38.3815C14.4936 37.9745 14.8959 37.5679 15.2982 37.1612L15.2997 37.1597L15.3012 37.1582L15.3026 37.1567L15.3057 37.1536C16.1313 36.3191 16.9568 35.4846 17.7792 34.647C18.0345 34.3869 18.2962 34.2429 18.6896 34.2484C20.0182 34.267 21.347 34.2642 22.6757 34.2615C23.152 34.2605 23.6283 34.2595 24.1046 34.2595H24.6351C24.6732 34.335 24.7073 34.4057 24.7396 34.4725L24.74 34.4734L24.7401 34.4735C24.8064 34.611 24.8651 34.7326 24.9351 34.8472C24.9779 34.9173 25.0195 34.9889 25.0612 35.0605C25.1962 35.2926 25.332 35.526 25.5113 35.7168C26.0258 36.2639 26.651 36.5918 27.4196 36.7062C28.0068 36.7935 28.564 36.7526 29.0867 36.5455C30.175 36.1142 30.904 35.3198 31.1532 34.1472C31.3222 33.3516 31.2444 32.5549 30.8364 31.8535C30.3896 31.0854 29.7456 30.5228 28.8637 30.2499C27.3734 29.7888 25.5866 30.5014 24.9534 32.0076C24.7907 32.3948 24.5791 32.5632 24.1336 32.5576C23.0266 32.5436 21.9193 32.5443 20.812 32.545C19.8803 32.5456 18.9485 32.5461 18.0169 32.538C17.6031 32.5344 17.3011 32.6386 17.004 32.9457C16.2496 33.7257 15.4836 34.4942 14.7175 35.2627C14.2332 35.7486 13.7489 36.2345 13.2675 36.7233C13.0882 36.9055 12.9036 36.9848 12.6491 36.9787C12.2546 36.9694 11.8597 36.9722 11.4648 36.975C11.2747 36.9764 11.0846 36.9777 10.8944 36.9777L8.12202 36.9777C5.98769 36.9776 3.85332 36.9775 1.71895 36.979C1.59095 36.9791 1.46299 36.99 1.32633 37.0017H1.3263C1.26007 37.0073 1.19179 37.0131 1.12048 37.0179C1.26587 38.1963 1.58986 39.2703 1.91166 40.337L1.91179 40.3374L1.91198 40.3381C1.94203 40.4377 1.97205 40.5372 2.00191 40.6367C2.20787 41.3231 2.47759 41.9919 2.74874 42.6563C3.00276 43.2784 3.28682 43.8884 3.57058 44.4978L3.57063 44.4979L3.60432 44.5703C3.69519 44.7655 3.8186 44.9474 3.94219 45.1245C4.22712 45.533 4.44199 45.9785 4.65744 46.4252C4.86742 46.8605 5.07794 47.297 5.35439 47.7014L5.50631 47.9238C6.12222 48.8259 6.73725 49.7266 7.42712 50.5721C8.55019 51.9486 9.79819 53.2078 11.1325 54.3756C11.8573 55.01 12.6035 55.628 13.3916 56.179C13.9596 56.5762 14.5524 56.9374 15.1452 57.2987C15.4915 57.5097 15.8379 57.7208 16.1794 57.9391ZM61.4208 37.3816C60.4278 41.8276 58.6697 45.7936 55.9818 49.4256L52.1724 45.6116C52.3144 45.3648 52.4559 45.1171 52.5977 44.8689L52.5978 44.8687C52.9233 44.2989 53.2501 43.7269 53.5861 43.1604C54.0605 42.3606 54.4267 41.5149 54.8258 40.5931L54.8259 40.593L54.8457 40.5472C54.7486 40.5409 54.6657 40.5344 54.592 40.5287H54.5919C54.4558 40.518 54.3509 40.5098 54.2461 40.5098C53.0087 40.5093 51.7712 40.5092 50.5338 40.5092H50.5278C47.5897 40.509 44.6516 40.5089 41.7136 40.5031C41.403 40.5025 41.1829 40.6031 40.9665 40.8223C40.1101 41.6901 39.2507 42.5547 38.3912 43.4194L38.3896 43.421C37.4309 44.3855 36.4723 45.35 35.5178 46.3188C35.2748 46.5654 35.0246 46.6639 34.6815 46.6625C32.6871 46.6536 30.6926 46.6545 28.6982 46.6554H28.6959C28.0843 46.6557 27.4728 46.656 26.8613 46.656H26.2494C26.2099 46.7376 26.17 46.8156 26.1312 46.8915L26.1311 46.8916C26.0497 47.0507 25.9729 47.201 25.9134 47.358C25.4653 48.5424 24.6696 49.4364 23.6475 50.1489C22.6849 50.82 21.5793 51.0497 20.4486 51.1716C20.1481 51.204 19.8335 51.1471 19.5273 51.0916L19.4814 51.0833L19.4071 51.07C18.0726 50.8354 16.9441 50.2109 15.9923 49.2413C15.2727 48.5082 14.7691 47.6449 14.5264 46.6587C14.3182 45.813 14.3061 44.9467 14.4283 44.0653C14.5737 43.016 15.001 42.1162 15.6387 41.3103C16.4956 40.2276 17.604 39.4838 18.9451 39.1771C19.5652 39.0354 20.2134 38.9801 20.8747 39.0506C21.635 39.1315 22.3406 39.3243 23.0246 39.6528C23.949 40.0967 24.7133 40.7332 25.2673 41.5913C25.5898 42.0908 25.8399 42.6416 26.081 43.188C26.197 43.4506 26.3463 43.5298 26.6135 43.529C28.8861 43.522 31.1586 43.5209 33.4311 43.5294C33.781 43.5307 34.0275 43.3809 34.2626 43.1433C34.9568 42.442 35.6526 41.7424 36.3484 41.0428C37.4362 39.9491 38.524 38.8554 39.6054 37.7552C39.8741 37.4818 40.1481 37.3737 40.5288 37.3742C46.0456 37.3824 51.5624 37.3821 57.0792 37.3817L60.781 37.3816H61.4208ZM49.6223 47.9118C49.7218 48.0212 49.8239 48.1337 49.9347 48.2395C49.8744 48.3071 49.8175 48.3716 49.7626 48.4338L49.7621 48.4343C49.6511 48.56 49.5485 48.6762 49.4433 48.7901C48.512 49.7984 47.469 50.6845 46.3705 51.4949C45.5005 52.1367 44.5942 52.7402 43.6531 53.2693C42.7423 53.7813 41.7785 54.2047 40.8157 54.6142C40.0525 54.9386 39.263 55.2057 38.472 55.4566L38.368 55.4896C37.7097 55.6987 37.0434 55.9104 36.3649 56.0068C36.0809 56.0472 35.7991 56.1009 35.5171 56.1547C34.9663 56.2598 34.415 56.365 33.846 56.3706C33.2989 56.3759 32.7523 56.4149 32.2055 56.454C31.8214 56.4815 31.4372 56.5089 31.0527 56.5247C30.8712 56.5321 30.6888 56.5104 30.5062 56.4886H30.5061H30.5061H30.5061H30.506H30.506H30.506H30.5059H30.5059H30.5059H30.5058L30.5057 56.4886C30.3563 56.4708 30.2067 56.453 30.0573 56.4511C28.9214 56.4368 27.7977 56.3234 26.6854 56.0886C26.5935 56.0692 26.4948 56.0643 26.397 56.0595C26.2354 56.0516 26.076 56.0438 25.9527 55.9707C25.5989 55.7608 25.4102 55.9191 25.1838 56.1507C24.3793 56.9739 23.5716 57.794 22.7639 58.6141L22.7611 58.6169L22.7584 58.6196L22.7558 58.6224C22.3325 59.0521 21.9093 59.4818 21.4865 59.912C21.4278 59.9717 21.3738 60.0362 21.308 60.1146L21.3079 60.1147L21.3079 60.1148C21.2728 60.1566 21.2344 60.2024 21.1901 60.2536C23.8866 61.2797 26.6474 61.8059 29.4479 61.9532C35.5932 62.2766 41.3732 60.9266 46.7124 57.7904C49.8574 55.943 52.6017 53.6258 54.9572 50.7837C54.9077 50.7275 54.8613 50.673 54.8164 50.6204L54.8158 50.6197C54.7232 50.5111 54.637 50.41 54.5437 50.3159C54.056 49.8239 53.5675 49.3327 53.0789 48.8415C52.1146 47.8718 51.1503 46.9022 50.1921 45.9265C49.9286 45.6581 49.6612 45.5229 49.273 45.5328C48.6976 45.5474 48.1218 45.5456 47.546 45.5437C47.0855 45.5422 46.625 45.5408 46.1647 45.5477C45.856 45.5525 45.6523 45.4529 45.5378 45.168L45.5175 45.1169C45.4937 45.0563 45.4698 44.9957 45.442 44.9372C45.1135 44.2479 44.5926 43.7172 43.9247 43.3995C42.8132 42.8707 41.7141 42.9341 40.6431 43.6126C38.9178 44.7055 38.5731 47.1208 39.9745 48.6678C40.6014 49.3597 41.3824 49.7529 42.3032 49.7679C42.793 49.7759 43.309 49.6925 43.7707 49.5291C44.3427 49.3266 44.7992 48.9056 45.1418 48.3944C45.2987 48.1603 45.4365 47.9131 45.5821 47.6518L45.5821 47.6517C45.6497 47.5304 45.719 47.4061 45.7926 47.2787C45.9721 47.2787 46.1548 47.2784 46.3399 47.2782H46.3414H46.3415H46.3415H46.3416H46.3416H46.3417H46.3417H46.3417H46.3418H46.3418C46.7869 47.2776 47.2456 47.2769 47.7042 47.2798C47.8245 47.2805 47.9487 47.2727 48.0731 47.2649C48.3802 47.2456 48.6886 47.2262 48.9419 47.3347C49.1974 47.4441 49.4033 47.6707 49.6223 47.9118ZM61.9428 32.5354C62.0877 33.4211 61.9475 34.8116 61.6334 35.7345C61.5895 35.7372 61.5439 35.7408 61.497 35.7445L61.4968 35.7445L61.4967 35.7445C61.3904 35.7529 61.2779 35.7617 61.1653 35.7617C57.9326 35.7622 54.6999 35.7616 51.4672 35.761L46.4287 35.7603C45.7831 35.7603 45.1374 35.7609 44.4918 35.7615C42.8986 35.7631 41.3054 35.7647 39.7122 35.7559C39.3849 35.7541 39.1505 35.8539 38.9238 36.0841C38.1524 36.868 37.3781 37.6492 36.6038 38.4303L36.6023 38.4319L36.6003 38.4339C35.6299 39.4128 34.6596 40.3917 33.6948 41.3762C33.3841 41.6933 33.0733 41.8485 32.6104 41.8392C31.4493 41.8155 30.2877 41.8196 29.126 41.8237C28.6836 41.8253 28.2411 41.8268 27.7986 41.8269H27.1671C27.1587 41.7711 27.1493 41.7199 27.1403 41.6716L27.1403 41.6715L27.1403 41.6715L27.1403 41.6714C27.1226 41.5755 27.107 41.4913 27.1064 41.4069C27.101 40.6678 27.0991 39.9285 27.1052 39.1893C27.1094 38.6984 27.2028 38.6038 27.6982 38.6017C28.9681 38.5964 30.2379 38.5943 31.5076 38.6035C31.8266 38.6059 32.0622 38.5197 32.2996 38.2777C33.297 37.2616 34.3018 36.2528 35.3065 35.2439L35.3078 35.2426L35.3091 35.2413L35.3104 35.24L35.3117 35.2387L35.313 35.2374L35.3143 35.2361L35.3156 35.2348L35.3168 35.2335L35.3181 35.2322C36.0947 34.4525 36.8712 33.6728 37.6443 32.8897C37.8985 32.6322 38.1617 32.5281 38.5241 32.5285C44.9304 32.5362 51.3366 32.5359 57.7429 32.5355L61.3813 32.5354H61.9428ZM14.5827 33.0428L14.5841 33.0414L14.5847 33.0408L14.5853 33.0401C14.7024 32.9182 14.8195 32.7963 14.9368 32.6747L14.8866 32.538C14.7254 32.538 14.5641 32.5407 14.4027 32.5434H14.4026C14.0329 32.5496 13.6631 32.5558 13.2956 32.5294C12.8049 32.4941 12.4136 32.616 12.1196 33.021C11.8034 33.4568 11.3724 33.5553 10.8486 33.552C8.25244 33.5356 5.65605 33.5377 3.05973 33.5398C2.44956 33.5403 1.83939 33.5408 1.22923 33.541C1.10143 33.5411 0.973633 33.5519 0.824761 33.5645C0.749235 33.5709 0.668284 33.5778 0.579158 33.5839C0.59284 33.7324 0.604032 33.8753 0.614906 34.0141L0.614909 34.0141L0.614911 34.0142C0.63858 34.3164 0.660749 34.5994 0.703825 34.8792C0.7768 35.3522 0.793792 35.3549 1.28146 35.3553C2.33045 35.3559 3.37945 35.3561 4.42845 35.3562C6.90323 35.3565 9.37805 35.3568 11.8529 35.3638C12.1629 35.3647 12.3964 35.2682 12.6058 35.054C12.8034 34.8517 13.0036 34.652 13.2038 34.4523L13.2039 34.4522L13.204 34.4521L13.2041 34.452L13.2043 34.4519L13.2044 34.4518L13.2045 34.4516L13.2046 34.4515L13.2047 34.4514L13.2048 34.4513C13.393 34.2636 13.5811 34.0759 13.7671 33.8862C14.0409 33.6069 14.3118 33.3249 14.5827 33.0428ZM27.3753 10.3248C27.2618 11.2843 28.1319 11.9187 28.9712 11.9176C29.8209 11.9165 30.358 11.301 30.3952 10.3805C30.4391 9.29122 29.6139 8.74621 28.9954 8.72193C28.2687 8.69342 27.2583 9.37035 27.3753 10.3248ZM41.6541 19.8621C40.1978 19.8526 38.6607 18.6226 38.8073 16.8912C38.6402 15.4732 40.0569 14.0007 41.6836 14.0205C43.3151 14.0404 44.5982 15.4694 44.5461 16.993C44.4928 18.5531 43.21 19.8723 41.6541 19.8621ZM29.503 33.4565C29.5073 32.5917 28.7793 31.8488 27.9338 31.8315C27.0764 31.814 26.3307 32.5011 26.3398 33.4785C26.3479 34.3467 26.9888 34.994 27.9363 35.0343C28.7885 35.0706 29.5667 34.1778 29.503 33.4565ZM19.5259 17.1486C18.6743 17.1491 18.0429 16.4689 18.0449 15.553C17.9606 14.7262 18.6768 14.0167 19.5738 14.0211C20.4794 14.0255 21.1066 14.7855 21.073 15.5995C21.0369 16.4694 20.3889 17.1481 19.5259 17.1486ZM23.1927 45.1089C23.3393 43.3774 21.8023 42.1474 20.346 42.1379C18.7901 42.1277 17.5072 43.4469 17.4539 45.007C17.4018 46.5306 18.6849 47.9597 20.3165 47.9795C21.9431 47.9993 23.3598 46.5268 23.1927 45.1089ZM33.0288 50.0824C33.8681 50.0813 34.7382 50.7157 34.6246 51.6752C34.7417 52.6297 33.7313 53.3067 33.0045 53.2781C32.3862 53.2539 31.5608 52.7088 31.6048 51.6196C31.642 50.699 32.1791 50.0836 33.0288 50.0824ZM32.4969 28.5436C32.4927 29.4083 33.2208 30.1513 34.0662 30.1685C34.9236 30.186 35.6694 29.499 35.6602 28.5215C35.652 27.6533 35.0112 27.006 34.0637 26.9657C33.2115 26.9295 32.4332 27.8222 32.4969 28.5436ZM42.474 44.8514C43.3258 44.8509 43.9571 45.5312 43.955 46.4469C44.0394 47.2738 43.3233 47.9833 42.4263 47.9789C41.5205 47.9745 40.8935 47.2146 40.9271 46.4006C40.963 45.5306 41.611 44.852 42.474 44.8514Z" fill="#02557A"/>
</svg>
