<?xml version="1.0" ?><svg id="Ebene_1" style="enable-background:new 0 0 256 256;" version="1.1" viewBox="0 0 256 256" xml:space="preserve" xmlns="http://www.w3.org/2000/svg" xmlns:xlink="http://www.w3.org/1999/xlink"><style type="text/css">
	.st0{fill:#03A9F4;}
	.st1{fill:#67DAFF;}
	.st2{fill:none;stroke:#02557A;stroke-width:4;stroke-linejoin:round;stroke-miterlimit:10;}
	.st3{fill:none;stroke:#02557A;stroke-width:4;stroke-linecap:square;stroke-linejoin:round;stroke-miterlimit:10;}
	.st4{fill:none;stroke:#03A9F4;stroke-width:4;stroke-linecap:square;stroke-linejoin:round;stroke-dasharray:21,8,55,13;}
	.st5{fill:none;stroke:#03A9F4;stroke-width:4;stroke-linecap:square;stroke-linejoin:round;}
	.st6{fill:none;stroke:#03A9F4;stroke-width:4;stroke-linecap:square;stroke-linejoin:round;stroke-dasharray:42.7066,26.4005;}
	.st7{fill:none;stroke:#03A9F4;stroke-width:4;stroke-linecap:square;stroke-linejoin:round;stroke-dasharray:21.9978,13.5869;}
	
		.st8{fill:none;stroke:#03A9F4;stroke-width:4;stroke-linecap:square;stroke-linejoin:round;stroke-dasharray:3.235,8.4109,21.9978,13.5869;}
</style><g id="Layer_1"/><g id="Ebene_5"><path class="st0" d="M156.3,191.8l-0.3,0.1l-15.1,2.8l0,0l-6.2,1.2l-25.4,4.7c-6.2,1.1-10.5,6.5-10.5,12.6c0,0.7,0.1,1.4,0.2,2.1   c0,0.1,0,0.2,0,0.3c1.3,6.9,7.9,11.5,14.9,10.2l20.7-3.9l35.7-6.6l8.9-1.6c4.1-0.8,6.8-4.7,6-8.7l-3.1-17l-5.7,1L156.3,191.8z"/></g><g id="Ebene_4"><path class="st1" d="M92.6,188l-5.7-1l-3.1,17c-0.8,4.1,1.9,8,6,8.7l8.9,1.6l35.7,6.6l20.7,3.9c6.9,1.3,13.6-3.3,14.9-10.2   c0-0.1,0-0.2,0-0.3c0.1-0.7,0.2-1.4,0.2-2.1c0-6-4.3-11.4-10.5-12.6l-25.4-4.7l-6.2-1.2l0,0l-15.1-2.8l-0.3-0.1L92.6,188z"/></g><g id="Ebene_2_Kopie"><path class="st1" d="M144.4,183.8c5.1-0.2,10.1-0.7,15.1-1.6l3.5,3.5c1.4,1.4,3.2,2.1,5,2.2c2,0.1,4.1-0.6,5.7-2.2l2.8-2.8v-47.3   c0-6.3-4.8-11.5-11-12.1c-0.2,0-0.4,0-0.6-0.1c-0.2,0-0.4,0-0.7,0c-2.6,0-5,0.8-7,2.2l-1.4,1.3l-0.4,1.9l-3.8,22.5l-1.9,8.6   l-0.1,0.5l-2.1,9.7L144.4,183.8z"/><path class="st1" d="M123.4,183.8c-5.1-0.2-10.1-0.7-15.1-1.6l-3.5,3.5c-1.4,1.4-3.2,2.1-5,2.2c-2,0.1-4.1-0.6-5.7-2.2l-2.8-2.8   v-47.3c0-6.3,4.8-11.5,11-12.1c0.2,0,0.4,0,0.6-0.1c0.2,0,0.4,0,0.7,0c2.6,0,5,0.8,7,2.2l1.4,1.3l0.4,1.9l3.8,22.5l1.9,8.6l0.1,0.5   l2.1,9.7L123.4,183.8z"/><path class="st0" d="M127.6,144.2c-0.1,0.4-0.7,0.8-0.9,1.1c0,0,0,0,0,0.1c0.1,0.4,0.9,0.8,0.9,1.2c0-0.4,0.8-0.8,0.9-1.2l0,0   C128.4,145,127.7,144.6,127.6,144.2z M158.6,127.7c-1.6-1.9-3.6-3.4-5.8-4.5c-0.3-0.1-0.6-0.3-0.8-0.4c-1.8-0.7-3.8-1.1-5.9-1.1   h-22.5c-5,0-9.5,2.3-12.5,5.9c0,0,0,0.1-0.1,0.1c-2.3,2.8-3.8,6.5-3.8,10.4v45.3l1.1-1.1c4.9,0.8,9.9,1.4,15.1,1.6   c1.4,0.1,2.9,0.1,4.3,0.1c6.4,0,12.7-0.5,18.9-1.5l3.4,3.4c1.4,1.4,3.2,2.1,5,2.2c2,0.1,4.1-0.6,5.7-2.2l1.7-1.7v-46   C162.4,134.2,161,130.5,158.6,127.7z M139.1,158c-0.4,0.4-0.7,0.7-0.9,0.9c-0.1,0.1-0.3,0.3-0.4,0.4c-0.1,0.1-0.3,0.3-0.4,0.4   l-0.7,0.7l-0.2,0.2l-5,5.3h-0.1h-0.1c-2-0.1-3.6-1.7-3.6-3.8c0,2.1-1.7,3.8-3.8,3.8l-5.9-6.2c-1-1-1.7-1.9-1.7-1.9s0-2.2,0-4.2   v-7.1c0-1.4,0.7-2.6,1.8-3.3V136c0-1.2,0.9-2.2,2-2.4v-0.9c0-2,1.5-3.5,3.3-3.8c0.1,0,0.3,0,0.4,0c0.4,0,0.9,0.1,1.3,0.2   c0.5,0.2,1,0.5,1.4,0.9c0.6,0.7,1.1,1.6,1.1,2.6c0-1,0.5-1.9,1.1-2.6c0.3-0.3,0.6-0.5,1-0.7c0.5-0.3,1.1-0.4,1.7-0.4   c0.5,0,1,0.1,1.4,0.3c1.4,0.6,2.4,1.9,2.4,3.5v0.9c1.2,0.2,2,1.2,2,2.4v7.2c1.1,0.7,1.8,1.9,1.8,3.3v7   C139,155.6,139,156.3,139.1,158L139.1,158z M128.5,145.4L128.5,145.4c-0.1-0.4-0.8-0.8-0.9-1.2c-0.1,0.4-0.7,0.8-0.9,1.1   c0,0,0,0,0,0.1c0.1,0.4,0.9,0.8,0.9,1.2C127.7,146.2,128.4,145.8,128.5,145.4z M127.6,132.9c0-0.1,0-0.1,0-0.2   C127.6,132.8,127.6,132.8,127.6,132.9v11.2v0.1v-0.1V132.9z M127.6,147.6L127.6,147.6L127.6,147.6v-1l0,0V162c0,0,0,0,0,0.1V147.6z   "/></g><g id="Ebene_3"><path class="st2" d="M146.6,182.4c-6.1,1-12.4,1.5-18.9,1.5c-1.5,0-2.9,0-4.3-0.1c-5.1-0.2-10.1-0.7-15.1-1.6"/><g><g><path class="st3" d="M127.6,148.5v-0.6c0-1.4-1.1-2.5-2.4-2.5l0,0c-1.3,0-2.4,1.1-2.4,2.5v1.8"/><path class="st2" d="M120.1,133.7c-1.1,0.2-2,1.2-2,2.4v7.2c-1.1,0.7-1.8,1.9-1.8,3.3v7c0,1.9,0,4.2,0,4.2s0.7,0.8,1.7,1.9     l5.9,6.2c2.1,0,3.7-1.7,3.8-3.8c0,0,0,0,0-0.1v-14.3v-0.1l0,0v-0.9l0,0c0-0.4-0.8-0.8-0.9-1.2c0,0,0,0,0-0.1     c0.2-0.4,0.8-0.7,0.9-1.1v-0.1V133c0-0.1,0-0.1,0-0.2c0-1-0.5-1.9-1.1-2.6c-0.4-0.4-0.9-0.7-1.4-0.9c-0.4-0.2-0.8-0.2-1.3-0.2     c-0.2,0-0.3,0-0.4,0c-1.8,0.2-3.3,1.8-3.3,3.8C120.1,132.8,120.1,133.3,120.1,133.7z"/></g><g><path class="st3" d="M127.6,148.5v-0.6c0-1.4,1.1-2.5,2.4-2.5l0,0c1.3,0,2.4,1.1,2.4,2.5v1.8"/><path class="st2" d="M139.1,158L139.1,158c-0.4,0.4-0.7,0.7-0.9,0.9c-0.1,0.1-0.3,0.3-0.4,0.4c-0.1,0.1-0.3,0.3-0.4,0.4l-0.7,0.7     l-0.2,0.2l-5,5.3h-0.1h-0.1c-2-0.1-3.6-1.7-3.6-3.8V162v-15.4l0,0c0-0.4,0.8-0.8,0.9-1.2l0,0c-0.1-0.4-0.8-0.8-0.9-1.2v-0.1     v-11.2c0-0.1,0-0.1,0-0.2c0-1,0.5-1.9,1.1-2.6c0.3-0.3,0.6-0.5,1-0.7c0.5-0.3,1.1-0.4,1.7-0.4c0.5,0,1,0.1,1.4,0.3     c1.4,0.6,2.4,1.9,2.4,3.5v0.9c1.2,0.2,2,1.2,2,2.4v7.2c1.1,0.7,1.8,1.9,1.8,3.3v7C139,155.6,139,156.3,139.1,158z"/></g></g><path class="st2" d="M99.8,188c1.8-0.1,3.6-0.8,5-2.2l2.4-2.4l1.1-1.1l12.1-12.1l3.7-3.8l-5.9-5.9l-9.6-9.7l-1.4,1.4l-7.4,7.4   v-27.3c0-3.2,0.9-6.2,2.6-8.7c0.1-0.1,0.1-0.2,0.2-0.3c0.3-0.5,0.6-0.9,1-1.3c3-3.6,7.5-6,12.6-6h22.5c5,0,9.6,2.3,12.6,5.9   c0.3,0.3,0.5,0.6,0.7,0.9c0.1,0.2,0.3,0.4,0.4,0.6c1.7,2.6,2.7,5.6,2.7,8.9v27.3l-8.8-8.8l-9.8,9.8l-5,5.3h-0.1h-0.1l-0.5,0.5   l15.9,16l3.4,3.4c1.4,1.4,3.2,2.1,5,2.2"/><path class="st2" d="M99.8,89c-0.5-2-0.7-4.2-0.7-6.4c0-15.6,12.7-28.3,28.3-28.3s28.3,12.7,28.3,28.3s-12.7,28.3-28.3,28.3   c-7.5,0-14.3-2.9-19.4-7.6"/><path class="st2" d="M85.1,174.5v-44.2c0-6.7,5.5-12.2,12.2-12.2c2.6,0,5,0.8,7,2.2"/><path class="st2" d="M151,120.3c2-1.4,4.4-2.1,6.9-2.1c3.4,0,6.4,1.4,8.6,3.6c2.2,2.2,3.6,5.3,3.6,8.6v44.5"/><g><g><path class="st4" d="M87.6,107.5c-3.9-6.8-6.1-14.7-6.1-23.1c0-25.6,20.6-46.3,46.1-46.3s46.1,20.7,46.1,46.3     c0,4-0.5,7.9-1.5,11.6"/></g></g><g><g><path class="st5" d="M166,33.7c2.8,2.1,5.4,4.5,7.8,7"/><path class="st6" d="M180.1,48.7C187,58.9,191,71.2,191,84.4c0,6.2-0.9,12.1-2.5,17.8"/><path class="st5" d="M183.5,114.4c-1.6,3.1-3.5,6.1-5.7,8.8"/></g></g><path class="st3" d="M170.1,174.8v1.5l-7.7,7.7l-1.7,1.7c-1.6,1.6-3.6,2.3-5.7,2.2c-1.8-0.1-3.6-0.8-5-2.2l-3.4-3.4l-15.9-16   l0.5-0.5h0.1h0.1l5-5.3l9.8-9.8l8.8,8.8l7.4,7.4L170.1,174.8z"/><path class="st3" d="M85.1,174.8v1.5l7.7,7.7l1.7,1.7c1.6,1.6,3.6,2.3,5.7,2.2c1.8-0.1,3.6-0.8,5-2.2l3.4-3.4l15.9-16l-0.5-0.5   h-0.1h-0.1l-5-5.3l-9.8-9.8l-8.8,8.8l-7.4,7.4L85.1,174.8z"/><path class="st2" d="M167.3,184.3l8.6-1.8l3.3,17.8c0.8,4.1-1.9,8-6,8.7l-8.9,1.6"/><path class="st2" d="M96.9,210.7c0,0.1,0,0.2,0,0.2c1.1,6.2,7.1,10.3,13.2,9.1l18.5-3.4"/><g><g><path class="st5" d="M75,120c-0.5-0.7-0.9-1.4-1.4-2.1"/><path class="st7" d="M69.8,110.4c-3.5-7.9-5.5-16.8-5.5-26c0-0.7,0-1.3,0-2"/><path class="st8" d="M64.8,75.6c1.9-13.8,8.2-26.2,17.5-35.7"/><path class="st5" d="M87.3,35.3c0.6-0.5,1.3-1.1,2-1.6"/></g></g><path class="st2" d="M86.9,183.3l-5.7-1l-3.1,17c-0.8,4.1,1.9,8,6,8.7l8.9,1.6l35.7,6.6l20.7,3.9c6.9,1.3,13.6-3.3,14.9-10.2   c0-0.1,0-0.2,0-0.3c0.1-0.7,0.2-1.4,0.2-2.1c0-6-4.3-11.4-10.5-12.6l-25.4-4.7l-6.2-1.2l0,0l-15.1-2.8l-0.3-0.1"/><path class="st2" d="M167.3,184.3l8.6-1.8l3.3,17.8c0.8,4.1-1.9,8-6,8.7l-8.9,1.6"/><path class="st2" d="M96.9,210.7c0,0.1,0,0.2,0,0.2c1.1,6.2,7.1,10.3,13.2,9.1l18.5-3.4"/></g></svg>