<?xml version="1.0" encoding="UTF-8" standalone="no"?>
<svg xmlns="http://www.w3.org/2000/svg" version="1.1" viewBox="0 0 214.68 271.07">
   <defs id="defs4">
      <style id="style2">
         .cls-1 {
            fill: #03a9f4;
         }

         .cls-2 {
            fill: #67daff;
         }

         .cls-3 {
            fill: #02557a;
         }
      </style>
   </defs>
   <g id="Ebene_2_Kopie" data-name="Ebene 2 Kopie">
      <path id="path8" transform="translate(22.29 49.37)" d="M-22.16-49.33" class="cls-1" />
      <path id="path10" transform="translate(22.29 49.37)" d="M-22.17-49.34l-.12,0h0" class="cls-2" />
   </g>
   <g transform="translate(-45.889619,-43.640015)" id="g106">
      <path style="fill:#03a9f4" class="cls-1" d="m 177.34,162.34 v 40.76 a 23.82,23.82 0 0 1 -4.42,13.9 l -0.19,0.27 a 152.85,152.85 0 0 1 -36.64,4.43 157.83,157.83 0 0 1 -36.3,-4.26 c -0.11,-0.14 -0.21,-0.29 -0.31,-0.44 -0.24,-0.34 -0.47,-0.68 -0.69,-1 a 23.17,23.17 0 0 1 -2.67,-6 24.19,24.19 0 0 1 -0.94,-6.69 v -5.14 a 6.57,6.57 0 0 0 2.62,-0.79 c 0.14,-0.07 0.27,-0.15 0.4,-0.23 l 0.11,-0.08 a 2.35,2.35 0 0 0 0.32,-0.23 l 0.1,-0.07 h 0.06 l 0.24,-0.21 a 4.16,4.16 0 0 0 0.51,-0.52 l 0.2,-0.24 a 3.6,3.6 0 0 0 0.39,-0.57 3,3 0 0 0 0.2,-0.34 c 0.07,-0.14 0.14,-0.28 0.2,-0.42 a 3.62,3.62 0 0 0 0.13,-0.35 5.81,5.81 0 0 0 0.28,-1.25 4.08,4.08 0 0 0 0,-0.61 V 179.5 c 0,-0.15 0,-0.31 0,-0.45 a 5,5 0 0 0 -0.07,-0.54 c 0,-0.15 -0.06,-0.29 -0.1,-0.43 a 3.06,3.06 0 0 0 -0.13,-0.43 2,2 0 0 0 -0.09,-0.26 c -0.06,-0.15 -0.13,-0.3 -0.2,-0.44 a 4.15,4.15 0 0 0 -0.23,-0.42 8.43,8.43 0 0 0 -0.48,-0.67 2.43,2.43 0 0 0 -0.26,-0.3 l -0.11,-0.12 -0.27,-0.26 -0.14,-0.11 -0.07,-0.06 -0.2,-0.16 v 0 l -0.27,-0.2 -0.09,-0.06 -0.35,-0.21 a 0.09,0.09 0 0 0 -0.06,0 l -0.38,-0.2 -0.24,-0.18 -0.37,-0.14 a 4.64,4.64 0 0 0 -0.53,-0.16 6.48,6.48 0 0 0 -1.1,-0.2 v 0 -11 a 24.12,24.12 0 0 1 3.61,-12.73 23.13,23.13 0 0 1 2,-2.8 24.08,24.08 0 0 1 17.61,-8.85 q 0.44,0 0.87,0 H 153 a 24,24 0 0 1 8.58,1.58 23.12,23.12 0 0 1 4,2 25.17,25.17 0 0 1 6,5.16 l 0.15,0.17 a 23,23 0 0 1 5.61,15.31 z"
         id="path12" transform="translate(22.29,49.37)" />
      <path style="fill:#02557a" class="cls-3" d="m 101,183.78 a 2,2 0 0 1 -2,-2 v -6.62 a 2,2 0 0 1 2,-2 h 3 a 2,2 0 0 1 1.85,2.77 l -2.18,5.07 a 10.14,10.14 0 0 1 -1,1.9 2,2 0 0 1 -1.67,0.88 z"
         id="path14" transform="translate(22.29,49.37)" />
      <path style="fill:#67daff" class="cls-2" d="m 125,140.86 -1.1,2.65 -1.41,3.42 -4.76,11.48 -2.86,6.91 -1.26,3 -2.81,6.8 -4,9.53 -1,2.3 -0.11,0.26 a 7.9,7.9 0 0 1 -3.48,3.91 7.39,7.39 0 0 1 -1,0.47 l -0.3,0.11 c 0,0 0,0 0,0 v -12.2 c 0,-0.15 0,-0.31 0,-0.45 a 5,5 0 0 0 -0.07,-0.54 c 0,-0.15 -0.06,-0.29 -0.1,-0.43 a 3.06,3.06 0 0 0 -0.13,-0.43 0.5,0.5 0 0 0 0,-0.13 1.11,1.11 0 0 0 0,-0.13 c -0.06,-0.15 -0.13,-0.3 -0.2,-0.44 a 4.15,4.15 0 0 0 -0.23,-0.42 8.43,8.43 0 0 0 -0.48,-0.67 l -0.26,-0.3 -0.11,-0.12 -0.27,-0.26 -0.14,-0.11 a 2.61,2.61 0 0 0 -0.27,-0.22 v 0 a 1.89,1.89 0 0 0 -0.27,-0.2 l -0.09,-0.06 -0.35,-0.21 a 0.09,0.09 0 0 0 -0.06,0 l -0.38,-0.2 -0.3,-0.18 -0.37,-0.14 a 4.64,4.64 0 0 0 -0.53,-0.16 6.48,6.48 0 0 0 -1.1,-0.2 v 0 c -0.2,0 -0.41,0 -0.61,0 l -6.54,-3 1.42,-3.5 8.86,-21.4 5.15,-12.46 0.44,-1 13.74,5.7 c 0,0 0,0 0,0 l 0.75,0.32 0.73,0.3 z"
         id="path16" transform="translate(22.29,49.37)" />
      <path style="fill:#67daff" class="cls-2" d="m 84.52,169.16 a 3.66,3.66 0 0 1 1.68,0.46 l -2.14,5.17 c -0.35,-0.58 -0.84,-1.43 -1.07,-1.81 -0.62,-1 -1,-2.34 0,-3.23 a 2.18,2.18 0 0 1 1.53,-0.59 z"
         id="path18" transform="translate(22.29,49.37)" />
      <path style="fill:#67daff" class="cls-2" d="m 82.69,178.09 -0.42,1 -1,2.3 -0.11,0.26 a 7.59,7.59 0 0 1 -1.05,1.82 v -2.23 a 3,3 0 0 1 0.26,-1.24 3.38,3.38 0 0 1 2.32,-1.91 z"
         id="path20" transform="translate(22.29,49.37)" />
      <path style="fill:#67daff" class="cls-2" d="m 100.91,139.85 -3.91,9.41 -5.36,12.93 -8.85,21.41 -0.11,0.27 -0.33,0.35 -1,-4.92 v -0.39 c 0,-0.15 0,-0.31 0,-0.45 a 5.75,5.75 0 0 0 -0.53,-2 l -4,-20.26 a 15.42,15.42 0 0 1 0.22,-7 v 0 l 1.57,-3.8 A 15.52,15.52 0 0 1 89,138 a 16,16 0 0 1 9.22,0.95 z"
         id="path22" transform="translate(22.29,49.37)" />
      <path style="fill:#02557a" class="cls-3" d="m 101,183.78 a 2,2 0 0 1 -2,-2 v -6.62 a 2,2 0 0 1 2,-2 h 3 a 2,2 0 0 1 1.85,2.77 l -2.18,5.07 a 10.14,10.14 0 0 1 -1,1.9 2,2 0 0 1 -1.67,0.88 z"
         id="path24" transform="translate(22.29,49.37)" />
      <path style="fill:#67daff" class="cls-2" d="m 191.25,150.22 a 14.44,14.44 0 0 0 -3.46,-5.07 14.92,14.92 0 0 0 -10.91,-4.61 15.49,15.49 0 0 0 -8.69,2.73 l -0.09,0.07 0.09,0.1 a 22.34,22.34 0 0 1 2.34,3.21 23.39,23.39 0 0 1 3.28,12.15 v 21.36 h -67.63 v 22.5 h 80.65 a 8,8 0 0 0 5.57,-6.24 v -40.35 a 15.4,15.4 0 0 0 -1.15,-5.85 z"
         id="path26" transform="translate(22.29,49.37)" />
      <path style="fill:#03a9f4" class="cls-1" d="m 112.17,92.66 a 2.59,2.59 0 0 1 -1.81,-0.73 l -3.6,-3.56 a 2.54,2.54 0 0 1 -0.33,-3.2 l 2.39,-3.45 c -0.22,-0.47 -0.43,-1 -0.62,-1.49 L 104,79.45 A 2.56,2.56 0 0 1 102,77 v -5 a 2.58,2.58 0 0 1 2.1,-2.5 l 4.18,-0.77 q 0.27,-0.75 0.59,-1.44 l -2.41,-3.46 a 2.57,2.57 0 0 1 0.3,-3.23 l 3.57,-3.6 a 2.62,2.62 0 0 1 3.26,-0.27 l 3.46,2.27 c 0.47,-0.22 1,-0.42 1.46,-0.6 l 0.79,-4.15 a 2.58,2.58 0 0 1 2.5,-2.07 h 5.1 a 2.54,2.54 0 0 1 2.5,2.15 l 0.77,4 c 0.55,0.19 1.08,0.4 1.58,0.64 l 3.64,-2.46 a 2.64,2.64 0 0 1 3.13,0.37 l 3.61,3.56 a 2.57,2.57 0 0 1 0.3,3.24 l -2.91,4.22 -2.52,-1.65 2.69,-3.9 -3.07,-3 -4.62,3.15 -0.8,-0.42 a 14.75,14.75 0 0 0 -2.73,-1.1 l -0.88,-0.26 -1,-5.5 h -4.33 l -1,5.53 -0.86,0.27 a 15.6,15.6 0 0 0 -2.63,1.08 l -0.79,0.42 -4.67,-3.15 -3.06,3 3.09,4.63 -0.46,0.82 a 12.8,12.8 0 0 0 -1.06,2.56 l -0.26,0.88 -5.6,1 v 4.25 l 5.56,1 0.27,0.87 a 13.74,13.74 0 0 0 1.1,2.64 l 0.45,0.82 -3.19,4.58 3.05,3 3.91,-2.63 1.68,2.49 -4.21,2.84 a 2.48,2.48 0 0 1 -1.41,0.54 z m -0.27,-2.92 z m -3,-3.53 z M 104.6,76.5 Z M 108.88,62 Z M 140,62 Z m -28.08,-2.85 z m 24.53,-0.1 z m -10,-4.22 z"
         id="path28" transform="translate(22.29,49.37)" />
      <path style="fill:#03a9f4" class="cls-1" d="m 124.41,83.75 a 9.3,9.3 0 1 1 9.41,-9.29 h -3 a 6.41,6.41 0 1 0 -6.41,6.29 z"
         id="path30" transform="translate(22.29,49.37)" />
      <path style="fill:#03a9f4" class="cls-1" d="m 140.61,97.35 a 6.8600656,6.8600656 0 1 1 -0.06,-13.72 h 0.06 a 6.86,6.86 0 1 1 0,13.72 z m 0,-10.72 a 3.86,3.86 0 1 0 4,3.85 3.9,3.9 0 0 0 -4,-3.85 z"
         id="path32" transform="translate(22.29,49.37)" />
      <path style="fill:#03a9f4" class="cls-1" d="m 142.3,106.22 h -3.49 a 2.23,2.23 0 0 1 -2.17,-1.81 l -0.49,-2.57 -0.54,-0.22 -2.17,1.46 a 2.14,2.14 0 0 1 -1.24,0.38 2.22,2.22 0 0 1 -1.56,-0.64 l -2.47,-2.44 a 2.27,2.27 0 0 1 -0.26,-2.83 l 1.47,-2.12 q -0.12,-0.28 -0.23,-0.56 l -2.61,-0.49 a 2.23,2.23 0 0 1 -1.81,-2.17 v -3.45 a 2.24,2.24 0 0 1 1.84,-2.18 l 2.6,-0.48 q 0.1,-0.26 0.21,-0.52 l -1.5,-2.16 a 2.22,2.22 0 0 1 0.26,-2.83 l 2.48,-2.45 a 2.27,2.27 0 0 1 2.69,-0.33 l 0.52,0.35 1.79,1.21 0.53,-0.22 0.49,-2.6 a 2.23,2.23 0 0 1 2.18,-1.79 h 3.49 a 2.19,2.19 0 0 1 2.18,1.88 l 0.51,2.46 0.64,0.26 2.22,-1.5 a 2.1,2.1 0 0 1 1.24,-0.37 2.19,2.19 0 0 1 1.62,0.68 l 2.42,2.39 a 2.23,2.23 0 0 1 0.27,2.83 l -1.5,2.18 c 0.08,0.17 0.15,0.35 0.22,0.53 l 2.62,0.49 a 2.24,2.24 0 0 1 1.81,2.18 v 3.46 a 2.23,2.23 0 0 1 -1.82,2.16 l -2.6,0.48 c -0.08,0.2 -0.16,0.39 -0.24,0.58 l 1.49,2.15 a 2.22,2.22 0 0 1 -0.27,2.82 l -2.49,2.44 a 2.27,2.27 0 0 1 -2.78,0.27 l -2.22,-1.5 -0.62,0.25 -0.47,2.54 a 2.23,2.23 0 0 1 -2.24,1.8 z m -0.76,-2.35 z m -2,0 z m -0.12,-0.62 h 2.2 l 0.69,-3.7 0.91,-0.25 a 8.89,8.89 0 0 0 1.76,-0.7 l 0.79,-0.41 3.12,2.1 1.55,-1.52 -2.12,-3.07 0.43,-0.8 a 10.82,10.82 0 0 0 0.75,-1.79 l 0.27,-0.86 3.71,-0.69 v -2.15 l -3.73,-0.69 -0.27,-0.87 a 9.34,9.34 0 0 0 -0.71,-1.71 l -0.44,-0.81 2.15,-3.11 -1.48,-1.52 -3.16,2.14 -0.8,-0.43 a 8.93,8.93 0 0 0 -1.78,-0.72 l -0.88,-0.25 -0.71,-3.69 h -2.19 l -0.7,3.69 -0.86,0.27 a 10.66,10.66 0 0 0 -1.73,0.71 l -0.79,0.41 -3.11,-2.1 -1.55,1.53 2.15,3.1 -0.45,0.81 a 8.1,8.1 0 0 0 -0.68,1.65 l -0.26,0.89 -3.76,0.7 v 2.14 l 3.72,0.69 0.27,0.87 a 9.54,9.54 0 0 0 0.72,1.73 l 0.44,0.81 -2.12,3.06 1.55,1.53 3.1,-2.1 0.8,0.43 a 9.06,9.06 0 0 0 1.7,0.7 l 0.87,0.26 z m 9,-2.51 -0.07,0.06 z m -16.72,-0.13 h -0.06 z m 19.09,-1.28 z m 3.29,-7.88 z m -27.09,0 z m 0,-1.9 z m 3.14,-6.8 z m 20.74,0 z m -0.09,-1 z m -1.34,-1.38 h -0.07 z m -1,-0.05 z m -7,-3.15 z m -1.95,0 z m 1,20.26 a 6.86,6.86 0 1 1 6.94,-6.87 6.92,6.92 0 0 1 -6.82,6.79 z m 0,-10.72 a 3.86,3.86 0 1 0 3.94,3.85 3.91,3.91 0 0 0 -3.82,-3.93 z"
         id="path34" transform="translate(22.29,49.37)" />
      <path style="fill:#03a9f4" class="cls-1" d="m 140.61,97.35 a 6.86,6.86 0 1 1 6.94,-6.87 6.92,6.92 0 0 1 -6.94,6.87 z m 0,-10.72 a 3.86,3.86 0 1 0 3.94,3.85 3.91,3.91 0 0 0 -3.94,-3.85 z"
         id="path36" transform="translate(22.29,49.37)" />
      <g data-name="Ebene 3" id="Ebene_3">
         <path style="fill:#02557a" class="cls-3" d="m 102,183.51 -1,-1.72 h -2 v -6.62 a 2,2 0 0 1 2,-2 h 1.61 L 116.33,140 a 7.82,7.82 0 0 1 -2.21,-0.3 6.89,6.89 0 0 1 -0.7,-0.24 L 102.64,135 c -0.14,-0.05 -0.31,-0.13 -0.46,-0.21 h -0.09 a 7.73,7.73 0 0 1 -1.15,-0.73 21.56,21.56 0 0 0 -2.62,1.57 c -0.27,0.18 -0.51,0.36 -0.75,0.55 l -12,29 -3.7,-1.53 12.22,-29.5 a 2,2 0 0 1 0.62,-0.81 c 0.46,-0.36 0.9,-0.7 1.36,-1 a 25.4,25.4 0 0 1 4.48,-2.5 2,2 0 0 1 2.33,0.55 3.43,3.43 0 0 0 1.07,0.85 l 0.3,0.14 10.7,4.45 0.29,0.1 a 3.44,3.44 0 0 0 1.27,0.14 L 117,136 l 0.26,-0.07 v 0 l 0.25,-0.08 0.37,-0.17 a 3.85,3.85 0 0 0 0.75,-0.51 2,2 0 0 1 3.15,2.28 l -16,38.54 a 2,2 0 0 1 -1.85,1.24 h -1 v 4.62 a 2,2 0 0 1 -0.93,1.66 z"
            transform="translate(22.29,49.37)" id="path39" />
         <path style="fill:#02557a" class="cls-3" d="m 79.65,181.86 -2.8,-1.16 a 2,2 0 0 1 -1,-2.58 l 2.09,-5 3.7,1.53 -1.32,3.19 0.9,0.37 z"
            transform="translate(22.29,49.37)" id="path41" />
         <path style="fill:#02557a" class="cls-3" d="m 101,183.78 a 2,2 0 0 1 -2,-2 v -6.62 a 2,2 0 0 1 2,-2 h 3 a 2,2 0 0 1 1.85,2.77 l -2.12,5.1 a 10.22,10.22 0 0 1 -1,1.9 2,2 0 0 1 -1.73,0.85 z"
            transform="translate(22.29,49.37)" id="path43" />
         <path style="fill:#02557a" class="cls-3" d="m 127.57,215.17 a 159,159 0 0 1 -31.85,-3.25 c -1.77,-0.36 -3.38,-0.71 -4.92,-1.07 a 2,2 0 0 1 -1.15,-0.76 25.65,25.65 0 0 1 -4.72,-11.65 2,2 0 0 1 2,-2.28 h 7.66 0.4 a 4.61,4.61 0 0 0 1.86,-0.55 l 0.26,-0.15 v 0 l 0.11,-0.07 0.1,-0.06 0.21,-0.16 0.11,-0.1 0.09,-0.08 A 2.28,2.28 0 0 0 98,194.71 l 0.14,-0.16 a 2.09,2.09 0 0 0 0.23,-0.33 l 0.14,-0.22 0.06,-0.12 0.12,-0.25 0.07,-0.19 a 4,4 0 0 0 0.19,-0.85 2.48,2.48 0 0 0 0,-0.38 V 181.8 a 2,2 0 0 1 2,-2 v 0 a 2,2 0 0 1 2,2 V 196 h 65.56 a 2,2 0 0 1 2,2.28 25.63,25.63 0 0 1 -4.72,11.63 2,2 0 0 1 -1.13,0.75 155.21,155.21 0 0 1 -37.09,4.51 z m -35.12,-8 c 1.28,0.29 2.61,0.58 4.07,0.88 a 153.06,153.06 0 0 0 66.5,-1 21.54,21.54 0 0 0 3.12,-7 H 101 a 2,2 0 0 1 -1.81,-1.15 c -0.16,0.1 -0.32,0.19 -0.5,0.28 a 8.42,8.42 0 0 1 -3.35,1 c -0.23,0 -0.51,0 -0.78,0 h -5.23 a 21.55,21.55 0 0 0 3.12,6.94 z"
            transform="translate(22.29,49.37)" id="path45" />
         <path style="fill:#02557a" class="cls-3" d="m 116.23,140 a 7.48,7.48 0 0 1 -2.11,-0.3 6.89,6.89 0 0 1 -0.7,-0.24 L 102.64,135 c -0.14,-0.05 -0.31,-0.13 -0.46,-0.21 h -0.09 a 7.43,7.43 0 0 1 -2.31,-1.84 7.57,7.57 0 0 1 -1.37,-7.37 L 98,118.1 a 4.34,4.34 0 0 1 2.15,-4.74 l 0.23,-0.11 c 1.75,-0.73 3.66,-0.08 5.09,1.75 0.24,0.32 0.77,1 1.15,1.46 l 3.87,-9.34 a 5.08,5.08 0 0 1 2.77,-2.77 4.93,4.93 0 0 1 3.68,0 l 0.14,0.05 a 5,5 0 0 1 2.68,6.6 l -2.47,6 5.39,2.23 a 5.83,5.83 0 0 1 1,0.51 l 0.14,0.09 a 6.86,6.86 0 0 1 2.48,8.29 v 0 l -2.18,5.28 c -0.05,0.13 -0.11,0.25 -0.16,0.37 l -0.07,0.19 -0.58,1.4 a 7.69,7.69 0 0 1 -2,2.85 7.94,7.94 0 0 1 -1.57,1.06 c -0.26,0.13 -0.48,0.23 -0.72,0.33 a 5.65,5.65 0 0 1 -0.77,0.24 4.56,4.56 0 0 1 -0.52,0.12 l -0.37,0.06 h -0.13 -0.3 z m -14.32,-22.94 a 2.94,2.94 0 0 0 0,0.54 c 0,0.06 0,0.12 0,0.19 l 0.46,7.92 a 2,2 0 0 1 -0.15,0.88 3.6,3.6 0 0 0 0.56,3.72 3.45,3.45 0 0 0 1.08,0.85 l 0.3,0.14 10.7,4.45 0.29,0.1 a 3.45,3.45 0 0 0 1.27,0.14 l 0.49,-0.07 0.26,-0.07 v 0 l 0.25,-0.08 0.37,-0.17 a 3.85,3.85 0 0 0 0.75,-0.51 3.7,3.7 0 0 0 1,-1.36 l 0.55,-1.34 a 2.92,2.92 0 0 1 0.19,-0.46 l 0.07,-0.15 2.18,-5.28 a 2.76,2.76 0 0 0 0.21,-1.32 2.72,2.72 0 0 0 -1.12,-2.05 l -0.1,-0.06 a 2.06,2.06 0 0 0 -0.39,-0.21 l -7.27,-3 a 2,2 0 0 1 -1.08,-2.61 l 3.24,-7.82 a 1,1 0 0 0 -0.46,-1.35 h -0.08 a 1,1 0 0 0 -0.74,0 1.11,1.11 0 0 0 -0.6,0.61 l -4.39,10.61 a 3.14,3.14 0 0 1 -2.58,2.19 c -1.24,0.11 -2.35,-0.56 -3.34,-2 -0.24,-0.3 -1.22,-1.53 -1.57,-2 a 2.36,2.36 0 0 0 -0.34,-0.43 z"
            transform="translate(22.29,49.37)" id="path47" />
         <path style="fill:#02557a" class="cls-3" d="m 168.81,177.16 h -64.87 a 2,2 0 0 1 -1.85,-2.76 l 16,-38.54 a 2,2 0 0 1 0.53,-0.74 3.71,3.71 0 0 0 1,-1.38 l 0.55,-1.34 a 2.92,2.92 0 0 1 0.19,-0.46 l 0.07,-0.15 1.23,-3 a 2,2 0 0 1 1.85,-1.24 h 21 A 26.52,26.52 0 0 1 164.6,137 l 0.06,0.06 a 24.52,24.52 0 0 1 2.59,3.54 25.55,25.55 0 0 1 3.56,13.17 v 21.36 a 2,2 0 0 1 -2,2.03 z m -61.88,-4 h 59.88 V 153.8 a 21.26,21.26 0 0 0 -3,-11.12 20.5,20.5 0 0 0 -2.13,-2.92 l -0.06,-0.07 a 22.29,22.29 0 0 0 -17.19,-8.12 h -19.64 l -0.72,1.74 c -0.05,0.13 -0.11,0.25 -0.16,0.37 l -0.07,0.19 -0.58,1.4 a 7.73,7.73 0 0 1 -1.67,2.51 z"
            transform="translate(22.29,49.37)" id="path49" />
         <path style="fill:#02557a" class="cls-3" d="m 107.58,118.87 a 42.94,42.94 0 0 1 -10,-7.14 l 2.77,-2.89 a 39,39 0 0 0 9.1,6.48 z"
            transform="translate(22.29,49.37)" id="path51" />
         <path style="fill:#02557a" class="cls-3" d="m 128.13,123.72 a 41.7,41.7 0 0 1 -5.18,-0.32 l 0.5,-4 a 37.61,37.61 0 0 0 4.68,0.29 39,39 0 1 0 -38.89,-39 41.06,41.06 0 0 0 0.94,8.86 l -3.91,0.86 a 45.12,45.12 0 0 1 -1,-9.72 42.89,42.89 0 1 1 42.89,43 z"
            transform="translate(22.29,49.37)" id="path53" />
         <path style="fill:#02557a" class="cls-3" d="M 73.39,169.55 69.81,151.6 a 17.54,17.54 0 0 1 0.23,-7.79 v -0.1 a 18,18 0 0 1 1.76,-4.27 17.56,17.56 0 0 1 11.77,-8.44 17.94,17.94 0 0 1 10.32,1 l 2.68,0.93 -1.31,3.78 -2.73,-0.95 h -0.11 a 14,14 0 0 0 -8.07,-0.84 13.55,13.55 0 0 0 -9.06,6.52 14,14 0 0 0 -1.35,3.24 v 0.09 a 13.5,13.5 0 0 0 -0.19,6.07 l 3.58,17.95 z"
            transform="translate(22.29,49.37)" id="path55" />
         <path style="fill:#02557a" class="cls-3" d="M 179.53,200 H 101.3 a 2,2 0 0 1 -2,-2 v -16.22 a 2,2 0 0 1 0.36,-1.15 6.1,6.1 0 0 0 0.63,-1.15 l 2.11,-5.09 a 2,2 0 0 1 1.85,-1.23 h 64.57 v 4 H 105.58 L 104,181 a 10.14,10.14 0 0 1 -0.68,1.34 V 196 h 76.23 a 5.9,5.9 0 0 0 4.74,-2.35 6,6 0 0 0 1.12,-2.43 v -40.15 a 13.31,13.31 0 0 0 -1,-5.09 12.38,12.38 0 0 0 -3,-4.37 l -0.09,-0.09 a 13,13 0 0 0 -9.45,-4 13.55,13.55 0 0 0 -7.52,2.36 v 0 0 0 l -0.23,-0.35 -2.19,-2.83 0.09,-0.07 0.12,-0.08 a 17.49,17.49 0 0 1 9.8,-3.06 17,17 0 0 1 12.32,5.19 16.35,16.35 0 0 1 3.9,5.73 17.27,17.27 0 0 1 1.29,6.61 v 40.35 a 2,2 0 0 1 0,0.35 10,10 0 0 1 -9.83,8.24 z"
            transform="translate(22.29,49.37)" id="path57" />
         <path style="fill:#02557a" class="cls-3" d="M 94.57,200.16 H 85.65 A 7.33,7.33 0 0 1 78.16,193 v -11.75 a 5,5 0 0 1 0.43,-2.06 5.37,5.37 0 0 1 3.59,-3 l 0.31,-0.08 -0.17,-0.3 -0.62,-1 -0.43,-0.72 c -1.29,-2.19 -1.16,-4.32 0.34,-5.72 a 4.71,4.71 0 0 1 5.51,-0.44 l 0.24,0.13 7.64,3.46 h 0.27 v 0 a 7.61,7.61 0 0 1 1.44,0.26 6.59,6.59 0 0 1 0.7,0.21 c 0.11,0 0.29,0.1 0.46,0.18 l 0.14,0.06 h 0.1 c 0.21,0.1 0.39,0.19 0.54,0.28 l 0.1,0.06 v 0 l 0.43,0.26 0.08,0.06 a 3.65,3.65 0 0 1 0.41,0.3 l 0.31,0.25 a 2.83,2.83 0 0 1 0.33,0.28 l 0.28,0.27 0.21,0.22 0.27,0.32 c 0.1,0.12 0.19,0.24 0.29,0.37 a 5.44,5.44 0 0 1 0.36,0.53 5.9,5.9 0 0 1 0.35,0.64 c 0.06,0.11 0.14,0.28 0.21,0.46 a 2.53,2.53 0 0 1 0.12,0.29 c 0,0.08 0.05,0.15 0.07,0.22 a 4.74,4.74 0 0 1 0.15,0.52 c 0,0.17 0.08,0.33 0.12,0.51 a 7.32,7.32 0 0 1 0.11,0.82 c 0,0.24 0,0.41 0,0.57 v 12.25 0 0.42 a 6.07,6.07 0 0 1 -0.06,0.9 7.71,7.71 0 0 1 -0.37,1.62 5.46,5.46 0 0 1 -0.2,0.51 c -0.06,0.15 -0.15,0.32 -0.24,0.5 l -0.06,0.11 c -0.07,0.13 -0.14,0.26 -0.23,0.39 a 5.62,5.62 0 0 1 -0.55,0.79 l -0.24,0.28 a 5.9,5.9 0 0 1 -0.72,0.73 l -0.34,0.29 -0.08,0.06 -0.08,0.06 -0.35,0.25 a 2,2 0 0 1 -0.26,0.17 c -0.17,0.1 -0.34,0.2 -0.52,0.29 a 8.42,8.42 0 0 1 -3.35,1 c -0.08,0.07 -0.36,0.08 -0.63,0.08 z M 86.1,174.33 c 1.06,1.54 1.3,2.89 0.71,4 a 3.27,3.27 0 0 1 -3.21,1.67 1.39,1.39 0 0 0 -0.38,0 1.41,1.41 0 0 0 -1,0.77 1.09,1.09 0 0 0 -0.1,0.47 V 193 a 3.33,3.33 0 0 0 3.49,3.13 h 8.92 0.4 a 4.61,4.61 0 0 0 1.86,-0.55 l 0.26,-0.15 v 0 l 0.11,-0.07 0.1,-0.06 0.21,-0.16 0.11,-0.1 0.09,-0.08 a 2.28,2.28 0 0 0 0.27,-0.28 l 0.14,-0.16 a 2.09,2.09 0 0 0 0.23,-0.33 l 0.14,-0.22 0.06,-0.12 0.12,-0.25 a 1.91,1.91 0 0 0 0.07,-0.19 4,4 0 0 0 0.19,-0.85 2.48,2.48 0 0 0 0,-0.38 V 179.5 c 0,0 0,-0.1 0,-0.14 v -0.17 a 3.13,3.13 0 0 0 0,-0.35 c 0,0 0,-0.12 -0.05,-0.21 -0.05,-0.09 0,-0.11 0,-0.17 v -0.13 l -0.05,-0.16 v 0 0 c 0,-0.09 -0.08,-0.19 -0.13,-0.28 a 2.52,2.52 0 0 0 -0.15,-0.27 l -0.1,-0.16 -0.1,-0.13 -0.08,-0.11 -0.06,-0.08 -0.17,-0.19 v 0 l -0.19,-0.18 -0.14,-0.11 -0.09,-0.08 -0.22,-0.17 -0.1,-0.07 -0.24,-0.14 -0.12,-0.06 -0.21,-0.11 -0.17,-0.07 -0.16,-0.06 -0.37,-0.12 H 95.87 A 3.61,3.61 0 0 0 95.2,175.66 H 95 a 3.9,3.9 0 0 1 -1.24,-0.2 l -8.14,-3.76 -0.21,-0.12 -0.12,-0.06 a 1.48,1.48 0 0 0 -0.87,-0.21 2.17,2.17 0 0 0 0.32,0.78 l 0.44,0.75 0.62,1 z m 12.72,4.1 z m 0,-0.13 z m -0.09,-0.27 z m 0,-0.12 z m -15.5,-0.72 z m 14.65,-0.42 0.06,0.08 z m -0.2,-0.17 z M 83.86,176 Z"
            transform="translate(22.29,49.37)" id="path59" />
      </g>
   </g>
</svg>