<?xml version="1.0" ?><svg style="enable-background:new 0 0 256 256;" version="1.1" viewBox="0 0 256 256" xml:space="preserve" xmlns="http://www.w3.org/2000/svg" xmlns:xlink="http://www.w3.org/1999/xlink"><style type="text/css">
	.st0{fill:#03A9F4;}
	.st1{fill:#67DAFF;}
	.st2{fill:none;stroke:#02557A;stroke-width:4;stroke-miterlimit:10;}
	.st3{fill:none;stroke:#02557A;stroke-width:4;stroke-linejoin:round;stroke-miterlimit:10;}
	.st4{fill:none;stroke:#02557A;stroke-width:4;stroke-linecap:square;stroke-linejoin:round;stroke-miterlimit:10;}
	.st5{fill:#02557A;}
</style><g id="Layer_1"/><g id="Ebene_2_Kopie"><path class="st0" d="M207.5,140.8v27.4c-2,1.1-4.1,2.1-6.2,3h-78.1v-24.8c0-5.5,2.4-10.4,6.2-14.2c4.6-4.4,11.1-7.3,18.3-7.3h22.1   c7,0,13.2,2.7,17.5,7l0,0c0.4-0.3,0.8-0.6,1.2-0.9c1-0.7,2.2-1.2,3.4-1.6c0.4-0.1,0.7-0.2,1.1-0.3c0.4-0.1,0.7-0.1,1.1-0.2   c0.4,0,0.7-0.1,1.1-0.1h0.5c1,0,2,0.1,3,0.4c2.1,0.5,3.9,1.6,5.4,3.1c0.3,0.3,0.5,0.5,0.8,0.8c0.1,0.1,0.2,0.3,0.3,0.5   c0.3,0.5,0.7,0.9,0.9,1.4c0.5,1,1,2.1,1.2,3.3C207.5,139.2,207.5,140,207.5,140.8z"/><path class="st1" d="M207.5,140.8v30.4h-24v-30.4c0-3.4,1.5-6.7,3.9-8.9c0.4-0.3,0.8-0.7,1.2-0.9c1-0.7,2.2-1.2,3.4-1.6   c0.4-0.1,0.7-0.2,1.1-0.3c0.4-0.1,0.7-0.1,1.1-0.2c0.4,0,0.7,0,1.1,0h0.5c1,0,2,0.1,3,0.4c2.1,0.5,3.9,1.6,5.4,3.1   c0.3,0.3,0.5,0.5,0.8,0.8c0.1,0.1,0.2,0.3,0.3,0.5c0.4,0.5,0.7,0.9,0.9,1.4c0.5,1,1,2.1,1.2,3.3C207.5,139.2,207.5,140,207.5,140.8   z"/><path class="st0" d="M185.2,84.7c-1.9,1.9-4.5,3-7.1,2.9c-5.7-0.5-9.9-6.4-9.4-13.5c0.5-7.1,5.5-12.3,11.2-12   c2.4,0.2,4.7,1.4,6.3,3.4L185.2,84.7z"/><path class="st1" d="M176.3,74.5c0.4-5.4,4.2-9.5,8.6-9.2c4.4,0.3,7.6,4.9,7.2,10.3c-0.4,5.4-4.2,9.5-8.6,9.2   C179.1,84.5,175.9,79.9,176.3,74.5z"/></g><g id="Ebene_3"><polyline class="st2" points="222,224 222,163.6 117.9,163.6  "/><g><path class="st3" d="M122.3,86.4c-1.7-4.1-2.6-8.6-2.6-13.3c0-19.7,16.2-35.7,36.1-35.7s36.1,16,36.1,35.7s-16.2,35.7-36.1,35.7    c-9.5,0-18.1-3.6-24.6-9.6"/><path class="st3" d="M117,141.2c0-5.9,2.6-11.2,6.8-15.4c5-4.8,12.1-7.9,19.9-7.9h24.1c6.3,0,12.1,2,16.6,5.4"/><path class="st3" d="M176.7,149.7v-14.7c0-3.7,1.6-7.2,4.2-9.6c2.3-1.9,5.3-3.2,8.6-3.2h0.5c7.1,0,12.9,5.8,12.9,12.8v28.4    c-0.1,0.1-0.2,0.1-0.3,0.2h0"/><path class="st2" d="M34.3,224v-60.4h67.5v-28.4c0-7.1,5.8-12.8,12.9-12.8h0.5c3.3,0,6.4,1.3,8.7,3.3c0,0,0,0,0.1,0.1"/></g><path class="st3" d="M182.2,81.7c-1.9,1.9-4.5,3-7.1,2.9c-5.7-0.5-9.9-6.4-9.4-13.5c0.5-7.1,5.5-12.3,11.2-12   c2.4,0.2,4.7,1.4,6.3,3.4"/><path class="st4" d="M173.3,71.5c0.4-5.4,4.2-9.5,8.6-9.2c4.4,0.3,7.6,4.9,7.2,10.3s-4.2,9.5-8.6,9.2   C176.1,81.5,172.9,76.9,173.3,71.5z"/><path class="st4" d="M125.4,52.6L125.4,52.6c0.6-3.5,2.1-6.9,4.2-9.8c5-6.9,13.3-9.8,21.7-8.7c5.5,0.8,11.2,3.2,16,7.4   c5.3,4.5,7.6,11.1,7.9,16.5"/><path class="st4" d="M168.5,81.6L168.5,81.6c-0.2,1.1-0.6,2.2-1.6,3.4c-2.4,2.6-6.8,4.6-11.6,5.6c-3.2,0.6-6.5,0.8-9.5,0.3   c-3.2-0.5-5.8-1.6-7.3-3"/><ellipse class="st5" cx="138.4" cy="87.8" rx="4" ry="4"/><g id="Ebene_3_3_"/><g id="Ebene_2_3_"/><path class="st4" d="M59.4,142.9l4.4-1.5l0.4-0.1L65,141l4.4-1.5c1.4-0.5,2.3-1.7,2.3-3.2V55.1c0-0.5-0.1-1.1-0.4-1.5l5-1.7   c2.2-0.7,4.4,0.9,4.4,3.2v81.3c0,1.4-0.9,2.7-2.3,3.2l-7.8,2.6l-6.5,2.2l-0.4,0.1l-5.3,1.8c-0.4,0.1-0.8,0.2-1.2,0.2   c-1.2,0-2.4-0.8-2.9-1.8l2.9-1L59.4,142.9"/><path class="st4" d="M57.3,143.6l-2.9,1l-5,1.7c-2.2,0.7-4.4-0.9-4.4-3.2V61.8c0-1.4,0.9-2.7,2.3-3.2l20-6.7   c1.6-0.6,3.3,0.2,4.1,1.7c0.2,0.5,0.4,1,0.4,1.5v63.4"/><polyline class="st4" points="64.2,163.5 64.2,144.4 70.7,142.2 70.7,163.5  "/><path class="st4" d="M57.3,163.5v-17c0.4,0,0.8,0,1.2-0.2l5.3-1.8v19"/></g></svg>