<?xml version="1.0" ?><svg style="enable-background:new 0 0 256 256;" version="1.1" viewBox="0 0 256 256" xml:space="preserve" xmlns="http://www.w3.org/2000/svg" xmlns:xlink="http://www.w3.org/1999/xlink"><style type="text/css">
	.st0{fill:#67DAFF;}
	.st1{fill:#03A9F4;}
	.st2{fill:none;stroke:#02557A;stroke-width:4;stroke-linejoin:round;stroke-miterlimit:10;}
	.st3{fill:none;stroke:#02557A;stroke-width:4;stroke-miterlimit:10;}
</style><g id="Layer_1"/><g id="Ebene_4"><path class="st0" d="M132.4,125.6l-2.6-2.6c-0.9-0.9-2.5-0.9-3.4,0l-1.2,1.3l9.4,3.5L132.4,125.6z M155.7,166.5v-5.7   c-1.9,0.2-4-0.7-5.5-2.1c0,0,0,0,0,0c0,0,0,0,0,0l5.5-5.5v-17.5l-21.1-8l0.5,0.5c0.9,0.9,0.9,2.5,0,3.4l-1.5,1.5l2.6,2.6   c0.9,0.9,0.9,2.5,0,3.4l-9.9,9.9c-3,3-7.8,3-10.8,0l-6.7-6.8c-3-3-3-7.8,0-10.8l3.6-3.6c0.8-0.8,1.8-1.1,2.8-1.1   c0.9,0,1.9,0.4,2.6,1.1l1.9,1.9l5.5-5.5l-18.4-6.9c-2-1.3-4.3-2.1-6.9-2.1c-0.9,0-1.8,0.1-2.7,0.3c-5.3,1.2-9.3,6-9.3,11.6v28.1   l14.5-14.5v0l2.1-2.1L120,154l-17.6,17.7l-0.2,0.2c-1.8,1.8-4.1,2.5-6.4,2.2v10.6c0,4.1,1.3,7.9,3.6,10.9c1.3,0.3,2.5,0.6,3.8,0.9   c0.6,2.1,1.6,4,2.8,5.7c9,2.2,18.5,3.3,28.2,3.3c0.9,0,1.8,0,2.7,0V181h17v-13.3h1.8C155.7,167.3,155.7,166.9,155.7,166.5z"/></g><g id="Ebene_2_Kopie"><path class="st1" d="M150.2,158.7C150.2,158.7,150.2,158.7,150.2,158.7C150.2,158.7,150.2,158.7,150.2,158.7l7.6-7.7   c0-0.4,6-0.9,6-1.3c-0.1-12.1,0.1-23.9,0.1-23.9v-4.1c0-2.3-2.9-5.3-4-6.4c-0.9-0.9-1.9-1.6-3-2.2c-0.2-0.1-0.3-0.2-0.5-0.3   c-2.7-1.5-5.8-2.3-9.1-2.3h-26c-5.9,0-11.1,2.7-14.5,6.8c-2.7,3.3-4.3,7.4-4.3,11.9v11.4l2.1-2.1L120,154l-17.6,17.7v19.6   c0,1.8,0.3,3.6,0.7,5.2c0.6,2.1,1.6,4,2.8,5.7c9,2.2,18.5,3.3,28.2,3.3c0.9,0,1.8,0,2.7,0V181h17v-13.3h4.4c-0.2-2.3-0.3-5-0.4-7.9   C155.7,161.7,152.3,160.8,150.2,158.7z M136.2,139.1l-9.9,9.9c-3,3-7.8,3-10.8,0l-6.7-6.8c-3-3-3-7.8,0-10.8l3.6-3.6   c0.8-0.8,1.8-1.1,2.8-1.1c0.9,0,1.9,0.4,2.6,1.1l1.9,1.9l0.7-0.7l6.1-6.1c0.9-0.9,2.5-0.9,3.4,0l2.6,2.6l2.6,2.7   c0.9,0.9,0.9,2.5,0,3.4l-1.5,1.5l2.6,2.6C137.2,136.7,137.2,138.2,136.2,139.1z"/></g><g id="Ebene_5"><path class="st0" d="M121,161.7l-17.6,17.7l-0.2,0.2c-1.8,1.8-4.1,2.5-6.4,2.2c-1.6-0.2-3.2-0.9-4.4-2.2l-3.5-3.5l-6.6-6.6   l23.3-23.3L121,161.7z"/><path class="st0" d="M182.7,126.1V157h-5.3v-1.7c0-2.6-1.7-4.7-4-5.5c-0.1,0-0.1-0.1-0.2-0.1h-12.4v-23.6c0-3.3,1.4-6.2,3.7-8.2   c1.9-1.7,4.5-2.8,7.3-2.8c0.2,0,0.3,0,0.5,0c1.3,0.1,2.6,0.4,3.8,0.9c1,0.4,2,1,2.8,1.7C181.2,119.8,182.7,122.8,182.7,126.1z"/></g><g id="Ebene_3"><g id="Ebene_3_3_"/><g id="Ebene_2_3_"/><path class="st2" d="M95.8,174v10.6c0,4.1,1.3,7.9,3.6,10.9c1.3,0.3,2.5,0.6,3.8,0.9c7.9,1.6,16.1,2.5,24.4,2.5"/><path class="st2" d="M95.8,147.2v-24.6c0-2.5,0.5-5,1.4-7.2c0.7-1.7,1.7-3.3,2.9-4.7c3.4-4.2,8.7-6.8,14.5-6.8h26   c5.8,0,11,2.7,14.5,6.8c0.5,0.6,1,1.2,1.4,1.9"/><path class="st2" d="M95.8,72.7c-0.5-2.4-0.8-4.8-0.8-7.3c0-18,14.6-32.5,32.7-32.5s32.7,14.6,32.7,32.5s-14.6,32.5-32.7,32.5   c-8.6,0-16.5-3.3-22.4-8.8"/><line class="st2" x1="173.9" x2="173.9" y1="135.7" y2="135.6"/><path class="st2" d="M81.3,161.8v-41.3c0-6.6,5.4-11.9,12-11.9c2.5,0,4.9,0.8,6.9,2.1"/><g><line class="st2" x1="133.6" x2="126.6" y1="133.1" y2="140.1"/><line class="st2" x1="132.5" x2="122.3" y1="125.5" y2="135.8"/><line class="st2" x1="120.3" x2="114.5" y1="129" y2="134.9"/></g><path class="st2" d="M112.3,127.8l-3.6,3.6c-3,3-3,7.9,0,10.9l6.7,6.8c3,3,7.8,3,10.8,0l9.9-9.9c0.9-0.9,0.9-2.5,0-3.4l-2.6-2.6   l1.5-1.5c0.9-0.9,0.9-2.5,0-3.4l-5.3-5.3c-0.9-0.9-2.5-0.9-3.4,0l-6.7,6.8l-1.9-1.9c-0.7-0.7-1.7-1.1-2.6-1.1   C114.1,126.7,113.1,127.1,112.3,127.8z"/><path class="st2" d="M120,154l-17.6,17.7l-0.2,0.2c-1.8,1.8-4.1,2.5-6.4,2.2c-1.6-0.2-3.2-0.9-4.4-2.2l-3.5-3.5l-6.6-6.6l23.3-23.3   L120,154z"/><path class="st2" d="M176.4,118.9v30.8h-21.9v-30.8c0-2.3,0.7-4.4,1.9-6.1c0.5-0.8,1.1-1.5,1.8-2.1c1.9-1.7,4.5-2.8,7.3-2.8   c0.2,0,0.3,0,0.5,0c2.5,0.1,4.8,1.1,6.6,2.6c1.7,1.4,2.9,3.3,3.5,5.5C176.3,116.9,176.4,117.9,176.4,118.9z"/><g><path class="st3" d="M173.2,149.7c0.1,0,0.1,0,0.2,0.1c2.3,0.7,4,2.9,4,5.5v15.2c0,2.1-1.7,3.8-3.8,3.8h-1.9h-2.8h-7.1    c-1.3,0-2.4-1.1-2.4-2.4v-1.8v-1.9v-8.6H159l-0.7,0c-2.2,2.2-5.9,1.4-8.1-0.9c0,0,0,0,0,0c0,0,0,0,0,0l8-8    c0.2-0.2,0.5-0.4,0.7-0.6c0.2-0.1,0.5-0.3,0.7-0.3"/><line class="st2" x1="165.4" x2="165.4" y1="174.3" y2="161"/><line class="st2" x1="171.4" x2="171.4" y1="174.3" y2="161"/></g><rect class="st2" height="14" width="57.2" x="136.9" y="181"/><rect class="st2" height="27" width="57.2" x="136.9" y="195"/><line class="st2" x1="147.4" x2="183.6" y1="188" y2="188"/><polyline class="st2" points="159.4,167.8 158.3,167.8 155.7,167.8 153.9,167.8 153.9,181 153.9,188 177.1,188 177.1,171.5  "/><polyline class="st2" points="177.1,171.5 177.1,188 153.9,188 153.9,181 153.9,167.8 155.7,167.8 158.3,167.8 159.4,167.8  "/><polyline class="st2" points="159.4,167.8 158.3,167.8 155.7,167.8 153.9,167.8 153.9,181 153.9,188 177.1,188 177.1,171.5  "/></g></svg>