<?xml version="1.0" ?><svg style="enable-background:new 0 0 256 256;" version="1.1" viewBox="0 0 256 256" xml:space="preserve" xmlns="http://www.w3.org/2000/svg" xmlns:xlink="http://www.w3.org/1999/xlink"><style type="text/css">
	.st0{display:none;}
	.st1{fill:#03A9F4;}
	.st2{fill:#67DAFF;}
	.st3{fill:none;stroke:#02557A;stroke-width:4;stroke-linejoin:round;stroke-miterlimit:10;}
</style><g class="st0" id="Layer_1"/><g id="Ebene_4"><path class="st1" d="M183.2,190.8c-18.9,9.9-40.3,15.5-63.1,15.5c-11.4,0-22.5-1.4-33.1-4c-4.2-1.2-8.2-2.5-12.1-4.1   c-0.9-0.3-1-2.5-0.6-5.6c0.8-6.8,3.9-18.3,6.6-27.5c2.3-7.8,4.3-14,4.3-14c0.3-0.4,0.6-0.7,0.9-1.1c2.1-2.4,4.8-4.2,7.5-5.5v5.7   l3.4,3.7l2.2-2.1l2.5-2.5l0.4-0.4l1.1-1.1l0.6,0.6l12.8,12.8c0,0,0,0,0,0c0.7,0.6,1.5,1,2.3,1.3l-0.5,0.5l1.1,1.1l-3.9,3.9l-2,2   l-0.6,0.6l-0.1,0.1l-7.7-7.7l-0.1,0.1l11.6,11.4l-1,1l10.9,3l13.7,4.1l2.4,0.7v-6.2l0.1,0v6.1l5-1.5h0l1.2-0.4l4.1-1.2l30.3-8.8   L183.2,190.8z"/><path class="st2" d="M86,211c-12-7-14-10-22.2-17v-31.7c0-7.9,6.5-14.3,14.4-14.3h0.5c3.6,0,7,1.4,9.5,3.6   c2.9,2.7,4.7,6.6,4.7,10.7v42.8c-0.1,0-0.1,0-0.2-0.1L86,211z"/><polygon class="st2" points="127,177.8 126.3,178.6 126.3,178.5 115.4,175.5 116.4,174.5 104.9,163.1 109,159  "/><path class="st2" d="M127,179.2l-0.8,0.7l-6.5,6.2L105.2,200l-0.4,0.4l-5,4.8l-2,1.9l-1.7,1.6c-4.5,4.3-11.9,4.3-16.4,0l-2.2-2.1   l-5-4.8l-1.3-1.2l-0.1,0l-2.7-2.6l0.9-0.9l2.3-2.2l1-1l1.4-1.4l13.7-13.1l5.2-4.9l9-8.6l1.3-1.3l1.6-1.5l0,0l11.6,11.4l-1,1l10.9,3   l0,0L127,179.2z"/><path class="st2" d="M189.8,178.2v19.8c0,8-6.5,14.6-14.6,14.6c-6.1,0-11.4-3.8-13.5-9.1c-0.7-1.7-1.1-3.5-1.1-5.5v-19.8H189.8z"/></g><g id="Ebene_3"><g id="Ebene_3_3_"/><g id="Ebene_2_3_"/><g><path class="st3" d="M91.2,90.5c0-22.1,18-40,40.1-40s40.1,17.9,40.1,40c0,5.3-1,10.3-2.9,14.9"/><path class="st3" d="M85,150.3c-0.5-1.9-1.3-3.7-2.5-5.3c-0.5-0.7-1.1-1.4-1.8-2c-2.5-2.2-5.9-3.6-9.5-3.6h-0.5    c-6.2,0-11.5,3.9-13.5,9.4c0,0,0,0,0,0c-0.6,1.5-0.9,3.2-0.9,4.9v31.7v3.5"/><path class="st3" d="M132.8,200.4c-4.1,0.3-8.3,0.5-12.4,0.5c-8.9,0-17.5-0.9-25.7-2.4c-0.8-0.1-1.7-0.3-2.5-0.5"/><path class="st3" d="M80.8,143c3.3-3.3,7.6-5.8,12.4-7.2"/></g><path class="st3" d="M126.3,178.5l13.7,4.1l2.4,0.7v-6.2v-63.9l-7-2.1l-42-12.6v37.3v8.6v5.7l3.4,3.7l2.2-2.1l2.5-2.5l0.4-0.4   l-1.1-1.1l1.6-1.6c-0.5-1.4-0.6-3-0.3-4.5c0.3-1.4,1-2.7,2.1-3.7c0.3-0.3,1-0.9,1.3-1.3c0.3-0.3,0.6-0.6,1-0.8   c2.5-1.8,5.9-2,8.5-0.4l1.1-1.1c2.6-2.6,6.9-2.6,9.5,0c2.3,2.3,9.1,9.1,9.1,9.1c1.4,1.5,2.1,3.4,1.9,5.3c-0.1,1.5-0.8,3-1.9,4.1   l-5.6,5.6c-0.1,0.1-0.3,0.2-0.4,0.3c-0.1,0.2-0.3,0.3-0.4,0.5l-1.3,1.3c-2,2-4.7,2.7-7.2,2.1c-0.3-0.1-0.6-0.1-0.9-0.2l-0.5,0.5   l1.1,1.1l-1.5,1.5"/><polyline class="st3" points="115.4,175.6 126.3,178.5 126.1,178.4  "/><path class="st3" d="M191.5,98.5v70.1l-9.3,2.8h-2.8v-8.5h-1.1c4-0.3,7.2-3.7,7.2-7.8v-1.8c0-3.6-2.5-6.7-5.8-7.5v-1.5   c0-3.7-3-6.7-6.7-6.7H160c-3.7,0-6.7,3-6.7,6.7v7.9c0,0.2,0,0.3,0,0.5c0,0.2,0,0.4,0,0.6v1.8c0,4,3.1,7.4,7,7.8h-4.2v8.5h-2.2v8.5   l-1.1,0.3l-4.1,1.2l-1.2,0.4h0l-5,1.5v-70.1l26.3-7.9L191.5,98.5z"/><path class="st3" d="M156.1,162.9h4.2c-3.9-0.4-7-3.7-7-7.8v-1.8c0-0.2,0-0.4,0-0.6c0-0.2,0-0.3,0-0.5v-7.9c0-3.7,3-6.7,6.7-6.7   h12.9c3.7,0,6.7,3,6.7,6.7v1.5c3.3,0.9,5.8,3.9,5.8,7.5v1.8c0,4.1-3.2,7.5-7.2,7.8h1.1v8.5h-23.2"/><path class="st3" d="M116.4,174.5l-1,1l-5.9,5.8L93,197.5l-0.6,0.6l-3.9,3.8l-0.6,0.6l-1,1c-2.1,2.1-4.9,3.2-7.7,3.2   c-0.5,0-1.1,0-1.6-0.1c-2.4-0.3-4.6-1.3-6.4-3.1l-10.8-10.6l-4-4l0.9-0.9l6.7-6.5L80.7,165l8.9-8.8L91,155l2.8-2.7l1.2,1.1l3.9,3.8   l6.1,6L116.4,174.5z"/><path class="st3" d="M119.3,164.1l-3.9,3.9l-2,2l-0.6,0.6l-0.1,0.1l-7.7-7.7l-8.7-8.7l0.6-0.6l2.2-2.1l2.5-2.5l0.4-0.4l1.1-1.1   l0.6,0.6l12.8,12.8c0,0,0,0,0,0L119.3,164.1z"/><path class="st3" d="M103.5,148.3c0,0-0.1-0.1-0.1-0.1"/><path class="st3" d="M185.5,153.4v1.8c0,4.1-3.2,7.5-7.2,7.8c-0.2,0-0.4,0-0.6,0l-16.5,0c-0.3,0-0.5,0-0.8,0c-3.9-0.4-7-3.7-7-7.8   v-1.8c0-0.2,0-0.4,0-0.6c0-0.2,0-0.3,0-0.5v-7.9c0-3.7,3-6.7,6.7-6.7h12.9c3.7,0,6.7,3,6.7,6.7v1.5   C183,146.7,185.5,149.8,185.5,153.4z"/><path class="st3" d="M183.1,171.5v19.8c0,7.8-6.2,14.2-13.9,14.5c-0.2,0-0.5,0-0.7,0c-2.3,0-4.5-0.5-6.4-1.5c0,0,0,0,0,0   c-3.2-1.6-5.8-4.3-7.1-7.6c-0.7-1.7-1.1-3.5-1.1-5.5v-19.8"/></g></svg>