<svg width="91" height="13" fill="none" xmlns="http://www.w3.org/2000/svg"><path d="M78 6.154h10.307m-86.461 0h10.308" stroke="#67DAFF" stroke-width="3.43" stroke-linecap="round" stroke-linejoin="round"/><path clip-rule="evenodd" d="M67.848 6.206c0-2.306-1.883-4.175-4.206-4.175-2.324 0-4.207 1.87-4.207 4.175 0 2.306 1.883 4.176 4.206 4.176 2.324 0 4.207-1.87 4.207-4.176zm-37.13 0c0-2.306-1.883-4.175-4.206-4.175-2.323 0-4.206 1.87-4.206 4.175 0 2.306 1.883 4.176 4.206 4.176 2.323 0 4.206-1.87 4.206-4.176zm18.565 0c0-2.306-1.883-4.175-4.206-4.175-2.323 0-4.206 1.87-4.206 4.175 0 2.306 1.883 4.176 4.206 4.176 2.323 0 4.206-1.87 4.206-4.176z" stroke="#67DAFF" stroke-width="3.43"/></svg>