<svg width="25" height="20" fill="none" xmlns="http://www.w3.org/2000/svg"><path fill-rule="evenodd" clip-rule="evenodd" d="M11.936.19c.185-.12.375-.187.562-.19a.936.936 0 01.562.19l11.586 9.09c.394.293.457.965.2 1.317-.293.4-.952.442-1.325.113L12.498 2.065 1.475 10.71c-.372.33-1.017.277-1.324-.113-.307-.39-.098-1.023.2-1.317L11.936.19zM3.352 10.313l1.83-1.44v9.309h3.963v-2.727c0-1.831 1.511-3.334 3.353-3.334 1.842 0 3.354 1.503 3.354 3.334v2.727h3.963V8.873l1.83 1.44v8.778c0 .502-.41.909-.915.909h-5.793a.912.912 0 01-.914-.91v-3.635c0-.855-.664-1.516-1.525-1.516-.86 0-1.524.66-1.524 1.516v3.636c0 .502-.41.909-.915.909H4.267a.912.912 0 01-.915-.91v-8.777z" fill="#67DAFF"/></svg>