<svg width="208" height="62" fill="none" xmlns="http://www.w3.org/2000/svg"><path fill-rule="evenodd" clip-rule="evenodd" d="M141.453 25.736c.01-.118.015-.261.015-.43 0-.242-.006-.436-.02-.58a1.61 1.61 0 00-.061-.339c-.027-.08-.06-.134-.101-.161a.285.285 0 00-.162-.041c-.087 0-.21.054-.369.162-.158.108-.36.229-.606.363a5.139 5.139 0 01-.884.37c-.344.11-.752.166-1.223.166-.519 0-.986-.09-1.4-.268a2.728 2.728 0 01-1.061-.813c-.294-.364-.52-.827-.678-1.39-.158-.562-.237-1.227-.237-1.995 0-.7.074-1.33.222-1.89a4.281 4.281 0 01.652-1.43 2.973 2.973 0 011.041-.909 2.972 2.972 0 011.39-.318c.472 0 .878.06 1.218.177.34.118.633.25.879.394.246.145.447.276.602.394.155.118.283.177.384.177a.24.24 0 00.161-.06.467.467 0 00.122-.193c.034-.087.057-.202.07-.343.014-.142.021-.314.021-.515 0-.19-.005-.348-.015-.475a2.595 2.595 0 00-.046-.334.834.834 0 00-.081-.232 1.155 1.155 0 00-.187-.228c-.091-.09-.251-.2-.48-.328a4.701 4.701 0 00-.773-.338 6.384 6.384 0 00-.935-.238A5.898 5.898 0 00137.86 14c-.897 0-1.717.152-2.462.455a5.204 5.204 0 00-1.915 1.334c-.532.585-.947 1.31-1.243 2.172-.297.862-.445 1.849-.445 2.96 0 1.092.135 2.048.405 2.87.269.822.657 1.507 1.162 2.056a4.782 4.782 0 001.839 1.238c.722.276 1.53.414 2.426.414a6.93 6.93 0 002.33-.389c.307-.111.566-.227.778-.348.213-.122.356-.22.43-.298.074-.078.128-.147.162-.208a.88.88 0 00.08-.217 1.95 1.95 0 00.046-.303zm-43.12.56c.08.244.13.436.151.577.02.141-.006.247-.08.318-.075.07-.206.114-.395.131a16.155 16.155 0 01-1.582.01 1.997 1.997 0 01-.44-.06.399.399 0 01-.212-.126.69.69 0 01-.101-.213l-.88-2.627h-4.912l-.828 2.557a.816.816 0 01-.107.237.429.429 0 01-.212.151 1.54 1.54 0 01-.414.076c-.179.014-.413.02-.703.02-.31 0-.552-.01-.727-.03-.176-.02-.297-.069-.364-.146-.068-.078-.091-.187-.071-.329.02-.141.07-.33.152-.565l4.033-11.6a1 1 0 01.141-.278.503.503 0 01.258-.162c.118-.036.281-.06.49-.07.209-.01.485-.015.829-.015.397 0 .714.005.95.015.236.01.42.034.55.07a.525.525 0 01.284.167.979.979 0 01.146.303l4.043 11.59zm-14.891-2.662c.314-.852.47-1.877.47-3.076 0-1.038-.145-1.95-.434-2.739-.29-.787-.713-1.45-1.269-1.985-.556-.536-1.24-.94-2.052-1.213-.812-.272-1.8-.409-2.967-.409h-3.355a.827.827 0 00-.561.197c-.152.132-.228.345-.228.642v11.397c0 .297.076.51.228.642a.826.826 0 00.56.197h3.124c1.159 0 2.158-.126 2.997-.379.839-.252 1.551-.648 2.138-1.187.586-.539 1.036-1.234 1.349-2.087zm-2.497-4.713c.145.532.218 1.108.218 1.728 0 .754-.083 1.414-.248 1.98-.165.566-.414 1.04-.748 1.42-.333.38-.75.665-1.248.854-.499.188-1.112.282-1.84.282h-1.384v-8.891h1.344c.815 0 1.474.11 1.976.328.502.219.913.524 1.233.915.32.39.553.852.697 1.384zm11.373-2.213h.01l1.85 5.557h-3.71l1.85-5.557zm16.937-1.405c0 .196-.008.363-.025.5-.017.139-.042.25-.076.334a.451.451 0 01-.126.187.261.261 0 01-.167.06h-3.275v10.54a.285.285 0 01-.065.181.464.464 0 01-.218.131 2.08 2.08 0 01-.409.081c-.172.02-.386.03-.642.03s-.47-.01-.642-.03a2.118 2.118 0 01-.409-.08.455.455 0 01-.217-.132.275.275 0 01-.066-.182V16.385h-3.275a.255.255 0 01-.172-.061.472.472 0 01-.121-.187 1.355 1.355 0 01-.076-.333 4.225 4.225 0 01-.025-.5c0-.203.008-.375.025-.516.017-.141.042-.254.076-.338a.429.429 0 01.12-.182.27.27 0 01.173-.056h9.218c.061 0 .116.019.167.056.05.037.092.098.126.182.034.084.059.197.076.338.017.141.025.313.025.515zm12.793 11.57a3.486 3.486 0 00-.151-.576l-4.043-11.59a1 1 0 00-.147-.303.526.526 0 00-.283-.167 2.544 2.544 0 00-.551-.07 23.24 23.24 0 00-.95-.015c-.344 0-.62.005-.829.015-.209.01-.372.034-.49.07a.504.504 0 00-.258.162 1 1 0 00-.141.278l-4.033 11.6a3.268 3.268 0 00-.152.565c-.02.142.003.252.071.329.067.078.188.126.364.146.175.02.417.03.727.03.29 0 .524-.006.703-.02.178-.013.317-.038.414-.076a.432.432 0 00.213-.15.813.813 0 00.106-.238l.829-2.557h4.912l.879 2.627a.703.703 0 00.101.213.4.4 0 00.213.126c.101.03.247.05.439.06a16.162 16.162 0 001.582-.01c.189-.017.32-.06.394-.131.075-.07.102-.177.081-.318zm-6.155-10.165h-.01l-1.85 5.557h3.709l-1.849-5.557zm37.246 9.538c0 .196-.008.36-.025.49a1.254 1.254 0 01-.076.319.416.416 0 01-.126.177.278.278 0 01-.167.055h-6.57a.826.826 0 01-.561-.197c-.152-.131-.227-.345-.227-.642V15.051c0-.297.075-.51.227-.642a.827.827 0 01.561-.197h6.53a.27.27 0 01.161.05.393.393 0 01.122.178c.033.084.059.192.075.323.017.131.026.298.026.5 0 .189-.009.349-.026.48a1.259 1.259 0 01-.075.318.433.433 0 01-.122.177.253.253 0 01-.161.056h-4.67v3.193h3.952c.061 0 .116.018.167.055.05.037.092.095.126.172.034.078.059.182.076.313.016.132.025.292.025.48a4 4 0 01-.025.485 1.17 1.17 0 01-.076.308.375.375 0 01-.126.167.296.296 0 01-.167.05h-3.952v3.689h4.71c.061 0 .116.018.167.055.05.037.092.096.126.177.034.08.059.187.076.318.017.132.025.295.025.49zm15.057.526a1.01 1.01 0 00.081-.414V14.606a.343.343 0 00-.05-.182.416.416 0 00-.177-.141 1.146 1.146 0 00-.359-.086 5.482 5.482 0 00-.576-.025c-.243 0-.442.008-.597.025a1.34 1.34 0 00-.374.086.494.494 0 00-.202.141.299.299 0 00-.06.182v6.134a75.135 75.135 0 00.06 2.94h-.01c-.121-.27-.246-.539-.374-.808-.128-.27-.259-.544-.394-.824-.135-.28-.275-.559-.419-.838-.145-.28-.292-.565-.44-.855l-2.547-4.779a5.422 5.422 0 00-.374-.662 1.7 1.7 0 00-.389-.419 1.345 1.345 0 00-.47-.217 2.717 2.717 0 00-.647-.066h-1.425c-.27 0-.498.08-.683.238-.185.158-.278.396-.278.712v11.751c0 .068.017.128.051.182.033.054.094.1.182.137.087.037.208.065.363.085.156.02.351.03.587.03.242 0 .441-.01.596-.03a1.55 1.55 0 00.369-.085.415.415 0 00.192-.137.314.314 0 00.056-.182v-6.84c0-.512-.007-1.009-.02-1.49a54.654 54.654 0 00-.061-1.45h.02c.155.397.33.806.526 1.227.195.421.387.814.576 1.177l3.255 6.113c.168.337.32.611.454.824.135.212.275.38.42.505.145.125.303.21.475.258.172.047.375.07.611.07h1.132c.128 0 .255-.018.38-.055a.837.837 0 00.54-.48zm13.642-11.469c0 .196-.008.363-.025.5-.017.139-.042.25-.076.334a.451.451 0 01-.126.187.261.261 0 01-.167.06h-3.275v10.54a.28.28 0 01-.066.181.46.46 0 01-.217.131 2.08 2.08 0 01-.409.081c-.172.02-.386.03-.642.03s-.47-.01-.642-.03a2.118 2.118 0 01-.409-.08.464.464 0 01-.218-.132.28.28 0 01-.065-.182V16.385h-3.275a.254.254 0 01-.172-.061.466.466 0 01-.121-.187 1.355 1.355 0 01-.076-.333 4.187 4.187 0 01-.025-.5c0-.203.008-.375.025-.516.017-.141.042-.254.076-.338a.423.423 0 01.121-.182.268.268 0 01.172-.056h9.218c.061 0 .116.019.167.056.05.037.092.098.126.182.034.084.059.197.076.338.017.141.025.313.025.515zm11.282 11.433a3.91 3.91 0 00.025-.49c0-.195-.008-.358-.025-.49a1.254 1.254 0 00-.076-.318.414.414 0 00-.126-.177.278.278 0 00-.167-.055h-4.71v-3.688h3.952a.296.296 0 00.167-.05.375.375 0 00.126-.168c.034-.077.059-.18.076-.308s.025-.29.025-.485c0-.188-.008-.348-.025-.48a1.175 1.175 0 00-.076-.313.415.415 0 00-.126-.172.276.276 0 00-.167-.055h-3.952v-3.193h4.67c.06 0 .114-.019.161-.056a.433.433 0 00.122-.177c.033-.08.059-.187.075-.318.017-.131.026-.291.026-.48 0-.202-.009-.369-.026-.5a1.346 1.346 0 00-.075-.323.393.393 0 00-.122-.177.27.27 0 00-.161-.05h-6.53a.827.827 0 00-.561.196c-.152.132-.227.345-.227.642v11.397c0 .297.075.51.227.642a.826.826 0 00.561.197h6.57a.278.278 0 00.167-.055.416.416 0 00.126-.177c.034-.081.059-.187.076-.319zm14.081.207a.393.393 0 01-.04.187c-.027.051-.091.093-.192.127a1.903 1.903 0 01-.444.07c-.196.014-.462.02-.799.02-.283 0-.509-.006-.677-.02a1.494 1.494 0 01-.4-.076.434.434 0 01-.207-.14.8.8 0 01-.101-.208l-1.172-2.92c-.142-.33-.28-.623-.415-.88a2.81 2.81 0 00-.45-.64 1.638 1.638 0 00-.571-.39 1.98 1.98 0 00-.748-.131h-.828v4.981a.28.28 0 01-.066.182.465.465 0 01-.217.131 2.078 2.078 0 01-.405.081c-.168.02-.384.03-.647.03-.256 0-.47-.01-.641-.03a2.131 2.131 0 01-.41-.08.422.422 0 01-.212-.132.299.299 0 01-.061-.182V15.051c0-.297.076-.51.228-.642a.826.826 0 01.561-.197h3.386a12.187 12.187 0 011.455.07 5.5 5.5 0 011.42.385c.421.182.779.42 1.072.712.293.293.517.64.672 1.041.155.4.233.86.233 1.38 0 .437-.056.836-.167 1.197a3.06 3.06 0 01-.491.965 3.21 3.21 0 01-.798.737 4.314 4.314 0 01-1.082.505 2.882 2.882 0 011.036.834c.152.192.295.41.43.657.135.246.266.524.394.833l1.102 2.577c.101.256.168.443.202.56.034.119.05.211.05.278zm-3.719-9.962c.195.296.293.66.293 1.091 0 .283-.047.539-.141.768a1.574 1.574 0 01-.425.59 1.976 1.976 0 01-.707.385 3.244 3.244 0 01-.991.136h-1.354v-3.708h1.192c.304 0 .541.01.713.03.172.02.325.048.46.081.445.122.764.33.96.627zM80.502 46.992c0 .19-.009.347-.025.474a1.23 1.23 0 01-.074.308.392.392 0 01-.122.171.266.266 0 01-.161.054h-6.357a.8.8 0 01-.543-.19c-.147-.128-.22-.335-.22-.621V36.16c0-.287.073-.494.22-.62a.8.8 0 01.543-.191h6.318a.26.26 0 01.156.049c.046.032.085.09.117.17.033.082.057.186.074.313.016.127.024.289.024.484 0 .183-.008.338-.024.465a1.23 1.23 0 01-.074.308.414.414 0 01-.117.17.245.245 0 01-.156.054h-4.519v3.09h3.824c.059 0 .113.018.162.054.049.035.09.091.122.166.032.075.057.176.073.303.016.127.025.282.025.464 0 .19-.009.346-.025.47-.016.123-.04.223-.073.298a.359.359 0 01-.122.161.285.285 0 01-.162.05h-3.824v3.567h4.558a.27.27 0 01.161.054.39.39 0 01.122.171c.033.078.057.18.074.308.016.127.024.285.024.474zm14.568.509a.98.98 0 00.078-.401V35.73a.326.326 0 00-.05-.176.397.397 0 00-.17-.137 1.106 1.106 0 00-.347-.083 5.39 5.39 0 00-.558-.024c-.235 0-.427.008-.577.024-.15.016-.27.044-.362.083a.47.47 0 00-.195.137.286.286 0 00-.06.176v5.934a72.592 72.592 0 00.06 2.845h-.01a49.26 49.26 0 00-.362-.782c-.124-.26-.251-.526-.382-.797-.13-.27-.265-.54-.405-.812l-.426-.825-2.464-4.624a5.263 5.263 0 00-.362-.641 1.634 1.634 0 00-.376-.406 1.3 1.3 0 00-.455-.21 2.635 2.635 0 00-.626-.063h-1.38a.98.98 0 00-.66.23c-.179.153-.268.382-.268.689v11.37c0 .065.016.123.049.176a.368.368 0 00.176.131c.084.036.202.064.352.084.15.02.339.029.567.029.235 0 .427-.01.577-.03a1.45 1.45 0 00.357-.083.403.403 0 00.186-.131.305.305 0 00.054-.176v-6.62a52.55 52.55 0 00-.079-2.844h.02c.15.384.32.78.508 1.188.19.407.375.787.558 1.139l3.149 5.914c.163.326.31.592.44.797.13.205.266.368.406.489.14.12.293.204.46.25.166.045.363.068.591.068h1.096c.123 0 .246-.018.366-.054a.81.81 0 00.524-.464zM110 37.314c0 .189-.008.352-.025.489a1.534 1.534 0 01-.068.327.369.369 0 01-.108.171.241.241 0 01-.151.049c-.085 0-.222-.059-.411-.176a6.088 6.088 0 00-.753-.381 8.081 8.081 0 00-1.12-.381 5.81 5.81 0 00-1.511-.176c-.613 0-1.167.106-1.662.317a3.61 3.61 0 00-1.272.9 4.008 4.008 0 00-.811 1.397 5.444 5.444 0 00-.284 1.804c0 .724.096 1.36.288 1.911.193.552.462 1.013.807 1.384.346.372.761.652 1.247.84a4.4 4.4 0 001.609.284c.287 0 .57-.032.851-.098.28-.065.541-.162.782-.293V42.75h-2.396c-.117 0-.209-.073-.274-.22-.065-.146-.097-.396-.097-.747 0-.183.008-.336.024-.46a1.15 1.15 0 01.073-.298.421.421 0 01.118-.166.244.244 0 01.156-.054h4.274a.609.609 0 01.494.215.743.743 0 01.142.259c.032.101.048.217.048.347v5.035c0 .196-.034.366-.102.513-.069.147-.209.262-.421.347a8.82 8.82 0 01-.787.264 10.962 10.962 0 01-1.99.382c-.342.032-.687.048-1.032.048-1.01 0-1.915-.145-2.714-.435a5.48 5.48 0 01-2.029-1.261 5.477 5.477 0 01-1.271-2.014c-.294-.792-.44-1.69-.44-2.693 0-1.036.156-1.967.469-2.791a5.907 5.907 0 011.33-2.102 5.748 5.748 0 012.078-1.325c.812-.306 1.717-.46 2.714-.46.548 0 1.046.038 1.496.113.45.075.843.166 1.179.273.335.108.614.224.836.348.222.124.376.231.464.323a.81.81 0 01.191.386c.039.166.059.412.059.738zm7.072 10.51a.275.275 0 00.064-.177V35.701a.274.274 0 00-.064-.176.45.45 0 00-.21-.127 2.068 2.068 0 00-.392-.079 5.47 5.47 0 00-.626-.029c-.247 0-.453.01-.616.03a2.092 2.092 0 00-.396.078.444.444 0 00-.215.127.273.273 0 00-.063.176v11.946c0 .065.021.124.063.176a.45.45 0 00.21.127c.098.033.23.059.397.079.166.02.373.029.62.029.255 0 .463-.01.626-.03.163-.019.294-.045.392-.078a.455.455 0 00.21-.127zm15.199-.724a.98.98 0 01-.078.4.813.813 0 01-.523.464 1.282 1.282 0 01-.367.055h-1.095c-.229 0-.426-.023-.592-.069a1.175 1.175 0 01-.46-.25 2.2 2.2 0 01-.406-.488 9.329 9.329 0 01-.44-.797l-3.149-5.914a29.598 29.598 0 01-.557-1.14 20.652 20.652 0 01-.509-1.187h-.019a51.159 51.159 0 01.078 2.845v6.619a.303.303 0 01-.054.176.404.404 0 01-.186.131 1.476 1.476 0 01-.357.084 4.54 4.54 0 01-.577.029c-.228 0-.417-.01-.567-.03a1.395 1.395 0 01-.352-.083.37.37 0 01-.176-.131.323.323 0 01-.049-.176v-11.37c0-.307.09-.536.269-.69a.982.982 0 01.66-.23h1.379c.248 0 .456.022.626.064.17.043.321.113.455.21.133.098.259.233.376.406.118.173.238.386.362.64l2.465 4.625c.143.28.285.555.425.825.14.271.276.542.406.812l.381.797c.124.26.245.521.362.782h.01a70.378 70.378 0 01-.059-2.845V35.73c0-.065.02-.124.059-.176a.466.466 0 01.196-.137c.091-.039.211-.067.361-.083s.343-.024.577-.024c.222 0 .408.008.558.024a1.1 1.1 0 01.347.083.395.395 0 01.171.137.32.32 0 01.049.176V47.1zm12.177.366c.017-.127.025-.285.025-.474s-.008-.347-.025-.474a1.191 1.191 0 00-.073-.308.397.397 0 00-.122-.171.27.27 0 00-.162-.054h-4.557v-3.568h3.824a.283.283 0 00.161-.049.361.361 0 00.123-.161c.032-.075.057-.175.073-.298.016-.124.024-.28.024-.47 0-.182-.008-.337-.024-.464a1.159 1.159 0 00-.073-.303.4.4 0 00-.123-.166.266.266 0 00-.161-.054h-3.824v-3.09h4.518a.247.247 0 00.157-.053.423.423 0 00.117-.171 1.23 1.23 0 00.074-.308c.016-.127.024-.282.024-.465 0-.195-.008-.357-.024-.484a1.316 1.316 0 00-.074-.312.382.382 0 00-.117-.171.264.264 0 00-.157-.05h-6.317a.8.8 0 00-.543.191c-.147.127-.22.334-.22.621v11.028c0 .286.073.493.22.62a.8.8 0 00.543.191h6.356a.267.267 0 00.162-.054.393.393 0 00.122-.17c.033-.079.057-.182.073-.309zm11.737-.474c0 .19-.008.347-.024.474s-.041.23-.073.308a.401.401 0 01-.122.171.267.267 0 01-.162.054h-6.357a.796.796 0 01-.542-.19c-.147-.128-.22-.335-.22-.621V36.16c0-.287.073-.494.22-.62a.797.797 0 01.542-.191h6.318c.059 0 .111.016.157.049.045.032.084.09.117.17.032.082.057.186.073.313.016.127.025.289.025.484 0 .183-.009.338-.025.465s-.041.23-.073.308a.423.423 0 01-.117.17.247.247 0 01-.157.054h-4.518v3.09h3.824c.058 0 .112.018.161.054a.39.39 0 01.122.166c.033.075.057.176.074.303.016.127.024.282.024.464 0 .19-.008.346-.024.47a1.14 1.14 0 01-.074.298.353.353 0 01-.122.161.286.286 0 01-.161.05h-3.824v3.567h4.557a.27.27 0 01.162.054.406.406 0 01.122.171c.032.078.057.18.073.308.016.127.024.285.024.474zm13.562.856a.381.381 0 00.039-.181c0-.066-.017-.155-.049-.27a6.793 6.793 0 00-.196-.541l-1.066-2.494a8.35 8.35 0 00-.381-.806 4.602 4.602 0 00-.416-.636 2.79 2.79 0 00-1.002-.806c.391-.124.74-.287 1.046-.489.307-.202.564-.44.773-.714.209-.273.367-.585.474-.933.108-.349.162-.735.162-1.159 0-.502-.076-.947-.225-1.334a2.865 2.865 0 00-.651-1.007 3.29 3.29 0 00-1.036-.69 5.335 5.335 0 00-1.374-.37 11.53 11.53 0 00-1.409-.07h-3.276a.8.8 0 00-.543.191c-.146.127-.22.334-.22.621v11.487c0 .065.02.124.059.176a.416.416 0 00.205.127c.098.033.23.059.397.079.166.02.373.029.62.029.255 0 .463-.01.626-.03.163-.019.294-.045.391-.078a.454.454 0 00.211-.127.274.274 0 00.063-.176v-4.82h.802c.274 0 .515.043.724.128.209.084.393.21.553.376.159.166.304.373.435.62.13.248.264.532.401.852l1.134 2.825a.76.76 0 00.098.2.416.416 0 00.201.137c.094.036.223.06.386.073.163.013.381.02.655.02.326 0 .583-.007.773-.02.189-.013.332-.036.43-.068.098-.033.16-.074.186-.122zm-3.277-8.765c0-.417-.094-.769-.283-1.055-.189-.288-.499-.49-.929-.607a3.565 3.565 0 00-.445-.078 6.236 6.236 0 00-.69-.03h-1.154v3.589h1.311a3.1 3.1 0 00.958-.133c.274-.087.502-.211.685-.37.182-.16.319-.351.41-.573a1.92 1.92 0 00.137-.743zm9.664 8.74a.275.275 0 00.064-.176V35.701a.274.274 0 00-.064-.176.44.44 0 00-.21-.127 2.055 2.055 0 00-.391-.079 5.483 5.483 0 00-.626-.029c-.248 0-.453.01-.616.03a2.092 2.092 0 00-.396.078.453.453 0 00-.216.127.273.273 0 00-.063.176v11.946c0 .065.021.124.063.176a.454.454 0 00.211.127c.098.033.229.059.396.079.166.02.373.029.621.029.254 0 .463-.01.626-.03.163-.019.293-.045.391-.078a.445.445 0 00.21-.127zm15.199-.723a.98.98 0 01-.078.4.813.813 0 01-.523.464 1.282 1.282 0 01-.367.055h-1.095c-.228 0-.426-.023-.592-.069a1.17 1.17 0 01-.459-.25 2.147 2.147 0 01-.406-.488 9.06 9.06 0 01-.44-.797l-3.149-5.914a28.163 28.163 0 01-.558-1.14 20.62 20.62 0 01-.508-1.187h-.02a51.173 51.173 0 01.078 2.845v6.619a.31.31 0 01-.053.176.41.41 0 01-.186.131 1.476 1.476 0 01-.357.084 4.55 4.55 0 01-.577.029 4.52 4.52 0 01-.568-.03 1.395 1.395 0 01-.352-.083.37.37 0 01-.176-.131.331.331 0 01-.049-.176v-11.37c0-.307.09-.536.269-.69.18-.153.4-.23.661-.23h1.379c.247 0 .456.022.625.064.17.043.321.113.455.21.134.098.259.233.377.406.117.173.238.386.362.64l2.464 4.625c.143.28.285.555.425.825.141.271.276.542.406.812.131.27.258.536.382.797.123.26.244.521.362.782h.009a66.63 66.63 0 01-.058-2.845V35.73c0-.065.019-.124.058-.176a.472.472 0 01.196-.137 1.29 1.29 0 01.362-.083c.15-.016.342-.024.577-.024.221 0 .407.008.557.024.15.016.266.044.347.083a.399.399 0 01.172.137c.032.052.048.11.048.176V47.1zm14.828-9.297c.016-.137.024-.3.024-.49 0-.325-.019-.571-.058-.738a.81.81 0 00-.191-.386 2.165 2.165 0 00-.464-.322 4.632 4.632 0 00-.837-.347 8.441 8.441 0 00-1.178-.274 9.174 9.174 0 00-1.496-.112c-.998 0-1.903.153-2.714.46a5.74 5.74 0 00-2.078 1.324 5.895 5.895 0 00-1.33 2.102c-.314.824-.47 1.755-.47 2.79 0 1.005.147 1.902.44 2.694a5.473 5.473 0 001.272 2.014 5.48 5.48 0 002.029 1.261c.798.29 1.703.435 2.714.435a10.897 10.897 0 002.049-.195c.335-.066.66-.144.973-.235a8.82 8.82 0 00.787-.264c.212-.085.352-.2.42-.347.069-.147.103-.318.103-.513v-5.035c0-.13-.016-.246-.049-.347a.743.743 0 00-.142-.26.6.6 0 00-.215-.16.684.684 0 00-.278-.054h-4.274a.249.249 0 00-.157.054.43.43 0 00-.117.166 1.111 1.111 0 00-.073.298 3.472 3.472 0 00-.025.46c0 .352.033.6.098.747.065.147.156.22.274.22h2.396v2.933c-.241.13-.502.228-.783.293-.28.066-.564.098-.85.098a4.4 4.4 0 01-1.609-.283 3.318 3.318 0 01-1.247-.841 3.863 3.863 0 01-.807-1.383c-.192-.551-.288-1.188-.288-1.912 0-.658.094-1.26.283-1.804a4.01 4.01 0 01.812-1.398 3.618 3.618 0 011.271-.899 4.197 4.197 0 011.663-.317 5.82 5.82 0 011.511.176c.433.117.807.244 1.12.38.312.138.563.265.753.382.189.117.325.176.41.176a.244.244 0 00.152-.049.368.368 0 00.107-.171c.03-.082.053-.19.069-.327zM12.378 14.088c.219.241.425.468.68.577.253.109.562.09.869.07.124-.008.248-.015.369-.015.459.003.917.002 1.362.002h.549c.074-.128.143-.253.211-.374.146-.261.283-.508.44-.742.343-.512.8-.933 1.371-1.135a4.273 4.273 0 011.468-.239c.92.015 1.702.408 2.329 1.1 1.4 1.547 1.056 3.962-.67 5.055-1.07.679-2.17.742-3.28.214a3.19 3.19 0 01-1.518-1.538c-.027-.058-.05-.117-.074-.177l-.022-.054c-.114-.285-.318-.384-.627-.38-.461.007-.923.006-1.385.004a59.993 59.993 0 00-1.723.011c-.388.01-.656-.125-.92-.393-.954-.973-1.916-1.94-2.877-2.906v-.001l-1.474-1.483a5.161 5.161 0 01-.272-.304 13.443 13.443 0 00-.141-.164 30.981 30.981 0 018.245-7.006C20.627 1.073 26.407-.277 32.552.047c2.8.147 5.561.673 8.258 1.7-.044.05-.082.096-.117.138-.066.078-.12.143-.18.203l-1.272 1.293c-.81.822-1.619 1.643-2.425 2.468-.226.232-.415.39-.769.18-.123-.073-.282-.08-.444-.089a1.79 1.79 0 01-.288-.029 17.325 17.325 0 00-3.372-.362 4.26 4.26 0 01-.449-.038c-.183-.021-.365-.043-.547-.036-.384.016-.769.044-1.153.071a25.72 25.72 0 01-1.64.083c-.569.006-1.12.111-1.671.216-.282.054-.564.108-.848.148-.678.097-1.344.308-2.002.517l-.105.033c-.791.251-1.58.518-2.344.843-.962.41-1.926.833-2.837 1.345a26.39 26.39 0 00-2.717 1.774c-1.1.81-2.142 1.697-3.073 2.705-.106.114-.209.231-.32.357h-.001v.001l-.001.001v.001l-.17.19c.111.106.213.219.313.328zM45.82 4.061c-1.029-.657-2.14-1.137-3.269-1.621a7.579 7.579 0 01-.126.106h-.001c-.09.074-.176.146-.255.225l-.45.451-.001.003c-1.965 1.974-3.93 3.949-5.888 5.931-.23.232-.467.353-.793.337-.516-.025-1.031-.044-1.547-.063h-.002a184.94 184.94 0 01-1.097-.042c-.332-.014-.474-.119-.482-.448-.006-.323-.164-.549-.371-.739-.635-.582-1.337-1.024-2.221-1.158-.866-.131-1.649.1-2.306.588-1.255.934-1.779 2.475-1.182 3.922.523 1.269 1.895 2.307 3.443 2.087 1.415-.2 2.345-1.002 2.876-2.313a.508.508 0 01.09-.132l.025-.031c.142.017.281.037.417.057.293.044.573.085.852.084.517-.004 1.032-.03 1.548-.057.282-.014.565-.029.847-.04.272-.01.47-.142.65-.331.412-.434.829-.865 1.246-1.294l.194-.2c.388-.4.776-.799 1.17-1.192.218-.217.442-.427.665-.636l.296-.279c3.548 1.431 6.547 3.582 9.161 6.312 2.316 2.418 5.49 7.923 5.511 9.659a2.123 2.123 0 00-.101.02.975.975 0 01-.227.035l-1.222.003h-.003c-1.51.005-3.021.01-4.53-.018-.365-.006-.6.1-.83.332l-1.203 1.217-.002.001c-.828.838-1.657 1.675-2.482 2.516-.255.26-.517.404-.91.399a248.09 248.09 0 00-3.982-.013l-1.434.002h-.53a13.241 13.241 0 01-.105-.213 4.275 4.275 0 00-.195-.375c-.043-.07-.084-.142-.126-.213-.135-.232-.27-.466-.45-.657a3.167 3.167 0 00-1.908-.99c-.588-.087-1.145-.046-1.668.162-1.088.43-1.817 1.225-2.066 2.398-.17.795-.091 1.592.317 2.293.446.769 1.09 1.331 1.972 1.604 1.49.461 3.277-.251 3.91-1.758.163-.387.375-.555.82-.55 1.108.014 2.215.014 3.322.013.932 0 1.863-.001 2.795.007.414.004.716-.1 1.013-.408.755-.78 1.52-1.548 2.287-2.317.485-.486.968-.972 1.45-1.46a.774.774 0 01.618-.256c.396.01.792.007 1.188.004l.566-.003h2.576l6.6-.001c.128 0 .255-.01.392-.023l.206-.016c-.145-1.179-.47-2.254-.791-3.321l-.09-.298c-.206-.686-.475-1.355-.747-2.02-.253-.62-.537-1.229-.82-1.837l-.035-.076a3.77 3.77 0 00-.338-.555c-.285-.408-.5-.854-.715-1.3-.21-.435-.421-.872-.697-1.276l-.152-.222c-.616-.902-1.231-1.803-1.921-2.65a31.696 31.696 0 00-3.706-3.803 26.651 26.651 0 00-2.259-1.803 33.088 33.088 0 00-1.754-1.12c-.346-.211-.692-.422-1.033-.64zM6.018 12.574C3.33 16.206 1.572 20.172.58 24.618h4.115c5.592 0 11.185 0 16.777.008.381 0 .655-.108.924-.381 1.08-1.1 2.169-2.194 3.256-3.287l.002-.002c.695-.7 1.39-1.398 2.084-2.1.236-.237.482-.387.832-.385 2.272.008 4.545.007 6.817 0 .268 0 .417.078.533.341.241.546.491 1.097.814 1.597.554.858 1.318 1.494 2.242 1.938a6.47 6.47 0 002.15.602c.662.07 1.31.016 1.93-.126 1.341-.307 2.45-1.05 3.306-2.133.638-.806 1.065-1.706 1.21-2.755.123-.882.11-1.748-.097-2.594-.243-.986-.747-1.85-1.466-2.582-.952-.97-2.08-1.594-3.415-1.83l-.122-.021c-.306-.055-.62-.112-.92-.08-1.13.122-2.236.352-3.198 1.023-1.023.712-1.818 1.607-2.266 2.791-.06.157-.136.307-.218.466a8.647 8.647 0 00-.118.236h-2.479c-1.984.002-3.969.002-5.953-.006a1.069 1.069 0 00-.837.343c-.954.969-1.913 1.934-2.872 2.898-.86.866-1.72 1.73-2.577 2.599a.965.965 0 01-.747.319c-2.957-.006-5.915-.006-8.872-.006h-3.66c-.104 0-.209-.009-.344-.02a17.852 17.852 0 00-.256-.018l.02-.047c.4-.921.766-1.767 1.24-2.566.334-.564.66-1.133.984-1.7v-.001l.002-.003c.143-.25.285-.5.428-.747l-3.81-3.815zM.367 26.265c-.314.923-.455 2.314-.31 3.2H4.38c6.366 0 12.731-.001 19.097.007.362 0 .625-.104.88-.362a771.28 771.28 0 012.333-2.35c1.006-1.01 2.013-2.02 3.011-3.038a1 1 0 01.792-.325c1.27.009 2.54.007 3.81.001.495-.002.589-.096.593-.587.006-.74.004-1.479-.001-2.218 0-.084-.017-.169-.034-.265a2.6 2.6 0 01-.027-.155h-.631c-.443 0-.886.002-1.328.003h-.002c-1.16.004-2.322.009-3.482-.015-.463-.01-.774.146-1.085.463-.966.986-1.939 1.967-2.911 2.948a914.4 914.4 0 00-2.318 2.344c-.227.23-.46.33-.788.328-1.596-.009-3.192-.007-4.788-.006l-1.929.002-5.432-.001H.834c-.112 0-.224.008-.33.016a3.588 3.588 0 01-.138.01zm47.049 2.694l.002-.002a60.27 60.27 0 011.379-1.41c.2-.2.4-.399.597-.6a.976.976 0 01.753-.31c2.48.006 4.96.007 7.44.007h3.132c.487.001.504.004.577.477.043.28.065.563.089.865.01.139.022.282.036.43-.09.006-.171.013-.247.02-.148.012-.276.023-.403.023l-1.795.001c-2.608.002-5.216.005-7.825-.012-.524-.003-.954.095-1.27.531-.294.405-.686.527-1.177.492-.367-.027-.737-.02-1.107-.014-.161.002-.322.005-.484.005l-.05-.137.353-.366zm-31.237 28.98c1.029.657 2.14 1.137 3.269 1.621l.128-.107a3.47 3.47 0 00.254-.224l.505-.508c1.947-1.956 3.895-3.913 5.834-5.877.23-.232.467-.353.793-.337.514.025 1.028.044 1.542.063h.003l1.101.042c.332.015.474.119.481.448.008.323.165.549.372.739.635.582 1.337 1.024 2.221 1.158.866.131 1.649-.1 2.306-.588 1.255-.934 1.779-2.475 1.182-3.922-.523-1.269-1.895-2.307-3.443-2.087-1.415.2-2.345 1.002-2.876 2.313a.508.508 0 01-.09.132.535.535 0 00-.025.031 14.109 14.109 0 01-.417-.057 5.597 5.597 0 00-.852-.084c-.516.004-1.032.03-1.547.057h-.001c-.282.014-.565.029-.847.04-.272.01-.47.142-.65.331-.412.434-.829.865-1.246 1.294l-.197.203c-.387.398-.774.797-1.168 1.19-.218.216-.442.427-.664.635v.001h-.001l-.295.278c-3.548-1.431-6.548-3.582-9.161-6.311-2.316-2.42-5.49-7.924-5.511-9.66.033-.005.067-.013.101-.02.075-.017.15-.035.227-.035l1.22-.003c1.512-.005 3.024-.01 4.536.018.364.006.6-.099.829-.331l1.206-1.22.002-.002.001-.002.002-.001.003-.003a927.86 927.86 0 002.473-2.507c.256-.26.517-.404.91-.399 1.33.019 2.658.016 3.987.014.476-.002.952-.002 1.429-.002h.53l.105.212v.001c.066.138.125.26.195.374.043.07.085.142.126.213.135.233.271.466.45.657.515.547 1.14.875 1.909.99.587.087 1.144.046 1.667-.162 1.088-.43 1.817-1.225 2.066-2.398.17-.795.091-1.592-.317-2.293-.446-.769-1.09-1.331-1.972-1.604-1.49-.461-3.277.251-3.91 1.758-.163.387-.375.555-.82.55a250.17 250.17 0 00-3.322-.013c-.932 0-1.864.001-2.795-.007-.414-.004-.716.1-1.013.408-.754.78-1.52 1.548-2.287 2.317-.484.486-.968.971-1.45 1.46a.774.774 0 01-.618.256c-.394-.01-.79-.007-1.184-.004l-.57.003H8.121l-6.403.001a4.51 4.51 0 00-.393.023l-.206.016c.146 1.178.47 2.252.792 3.319v.001l.09.299c.206.686.476 1.355.747 2.02.254.621.538 1.231.822 1.84l.033.073c.091.196.215.377.338.554.285.409.5.854.715 1.301.21.436.42.872.697 1.276l.152.223c.616.902 1.231 1.803 1.921 2.648a31.708 31.708 0 003.706 3.804 26.63 26.63 0 002.259 1.803c.568.397 1.16.758 1.753 1.12.347.21.693.422 1.034.64zm45.242-20.557c-.993 4.446-2.751 8.412-5.44 12.044l-3.809-3.814.426-.743c.325-.57.652-1.142.988-1.709.474-.8.84-1.645 1.24-2.567l.02-.046-.254-.018a4.434 4.434 0 00-.346-.02h-3.718c-2.938 0-5.876 0-8.814-.006-.311 0-.531.1-.747.32-.857.867-1.716 1.732-2.576 2.596l-.001.002a784.04 784.04 0 00-2.872 2.898 1.07 1.07 0 01-.837.343 1325.62 1325.62 0 00-5.983-.007h-.002l-1.835.001h-.612l-.118.236a4.66 4.66 0 00-.218.466c-.448 1.184-1.243 2.078-2.265 2.79-.963.672-2.069.902-3.2 1.024-.3.032-.614-.025-.92-.08l-.047-.009-.074-.013c-1.334-.235-2.463-.86-3.415-1.829-.72-.733-1.223-1.596-1.466-2.582-.208-.846-.22-1.712-.098-2.594.146-1.049.573-1.949 1.21-2.755.858-1.082 1.966-1.826 3.307-2.133a5.852 5.852 0 011.93-.126c.76.08 1.466.273 2.15.602.924.444 1.688 1.08 2.242 1.938.323.5.573 1.05.814 1.597.116.263.265.342.532.341 2.273-.007 4.546-.008 6.818 0 .35.002.597-.148.832-.386.694-.701 1.39-1.4 2.085-2.1 1.088-1.094 2.176-2.188 3.257-3.288.27-.273.543-.381.924-.38 5.517.007 11.033.007 16.55.007h4.342zm-11.799 10.53c.1.11.202.222.313.328l-.172.194c-.112.126-.215.242-.32.356-.931 1.008-1.974 1.895-3.072 2.705a26.376 26.376 0 01-2.718 1.774c-.91.512-1.874.936-2.837 1.345-.764.325-1.553.592-2.344.843l-.104.033c-.658.209-1.325.42-2.003.517-.284.04-.566.094-.848.148-.55.105-1.102.21-1.671.216-.547.005-1.094.044-1.64.083-.385.027-.769.055-1.153.07a3.446 3.446 0 01-.547-.035 4.262 4.262 0 00-.449-.038 17.33 17.33 0 01-3.372-.362 1.855 1.855 0 00-.288-.03c-.162-.007-.321-.015-.444-.088-.354-.21-.543-.052-.77.18a701.04 701.04 0 01-2.42 2.463l-.002.003-.003.003-.002.002-1.27 1.29c-.058.06-.112.124-.178.203l-.118.139c2.697 1.026 5.457 1.552 8.258 1.7 6.145.323 11.925-1.027 17.264-4.164a30.984 30.984 0 008.245-7.006 5.923 5.923 0 01-.14-.164h-.001c-.093-.109-.179-.21-.272-.304l-1.465-1.474c-.964-.97-1.929-1.94-2.887-2.916-.263-.268-.53-.403-.919-.393a60.25 60.25 0 01-1.727.01c-.46 0-.921-.002-1.381.005-.309.005-.513-.095-.627-.38l-.02-.051a3.19 3.19 0 00-1.593-1.717c-1.112-.53-2.21-.466-3.282.213-1.725 1.093-2.07 3.508-.669 5.055.627.692 1.408 1.085 2.33 1.1a4.275 4.275 0 001.467-.239c.572-.202 1.028-.623 1.37-1.135.158-.234.296-.48.441-.742.068-.122.137-.246.21-.373h.549c.446-.001.905-.002 1.363 0 .12.002.245-.006.37-.014.306-.02.615-.039.868.07.255.11.461.336.68.577zm12.32-15.377c.146.886.005 2.277-.309 3.2-.044.002-.09.006-.136.01a4.213 4.213 0 01-.332.017l-9.698-.001h-6.975c-1.593.002-3.187.004-4.78-.005a1.009 1.009 0 00-.788.328c-.772.784-1.546 1.565-2.32 2.346l-.002.002-.002.002c-.97.979-1.94 1.958-2.905 2.942-.31.317-.622.473-1.085.463-1.16-.023-2.322-.02-3.484-.015l-1.327.003h-.632a4.43 4.43 0 00-.027-.155c-.017-.096-.033-.18-.034-.265-.005-.74-.007-1.478 0-2.218.003-.49.097-.585.592-.587 1.27-.006 2.54-.008 3.81.002a.999.999 0 00.792-.326 573.291 573.291 0 013.007-3.034v-.001l.002-.002.001-.001.002-.001.001-.002h.001l.002-.002v-.002h.002c.777-.78 1.553-1.56 2.326-2.343.255-.258.518-.362.88-.361 6.406.007 12.813.007 19.219.006h4.2zm-47.36.508l.002-.002h.001c.117-.123.234-.245.352-.366l-.05-.137c-.162 0-.323.003-.484.005-.37.007-.74.013-1.107-.014-.491-.035-.882.087-1.176.492-.317.436-.748.534-1.271.531-2.597-.016-5.193-.014-7.79-.012l-1.83.001c-.128 0-.255.01-.404.024l-.246.019c.014.148.025.291.036.43.024.302.046.585.089.865.073.473.09.476.577.476l3.147.001c2.475 0 4.95 0 7.425.008a.98.98 0 00.753-.31c.197-.202.398-.402.598-.602a71.323 71.323 0 001.379-1.41zm12.793-22.718c-.113.96.757 1.594 1.596 1.593.85-.002 1.387-.617 1.424-1.537.044-1.09-.781-1.635-1.4-1.66-.726-.028-1.737.65-1.62 1.604zm14.28 9.537c-1.457-.01-2.994-1.24-2.848-2.97-.167-1.419 1.25-2.891 2.877-2.871 1.631.02 2.914 1.448 2.862 2.972-.053 1.56-1.336 2.88-2.892 2.87zM29.502 33.457c.004-.865-.724-1.608-1.57-1.626-.857-.017-1.602.67-1.593 1.647.008.869.649 1.516 1.596 1.556.852.037 1.63-.856 1.567-1.578zm-9.977-16.308c-.852 0-1.483-.68-1.481-1.596-.084-.827.632-1.536 1.529-1.532.905.004 1.533.764 1.499 1.579-.036.87-.684 1.548-1.547 1.549zm3.667 27.96c.146-1.732-1.39-2.962-2.847-2.971-1.556-.01-2.839 1.309-2.892 2.869-.052 1.524 1.23 2.953 2.863 2.973 1.626.02 3.043-1.453 2.876-2.871zm9.836 4.973c.84 0 1.71.634 1.596 1.593.117.955-.894 1.632-1.62 1.603-.619-.024-1.444-.57-1.4-1.658.037-.921.574-1.536 1.424-1.538zm-.532-21.538c-.004.864.724 1.607 1.57 1.625.857.017 1.602-.67 1.593-1.648-.008-.868-.649-1.515-1.596-1.555-.852-.037-1.63.856-1.567 1.578zm9.977 16.307c.852 0 1.483.68 1.481 1.596.084.827-.632 1.536-1.529 1.532a1.507 1.507 0 01-1.499-1.578c.036-.87.684-1.549 1.547-1.55z" fill="#02557A"/></svg>