<svg viewBox="0 0 256 256" xmlns="http://www.w3.org/2000/svg"><style>.st0{fill:#67daff}.st2{fill:none;stroke:#02557a;stroke-width:4;stroke-linejoin:round;stroke-miterlimit:10}</style><path class="st0" d="M132.4 125.6l-2.6-2.6c-.9-.9-2.5-.9-3.4 0l-1.2 1.3 9.4 3.5-2.2-2.2zm23.3 40.9v-5.7c-1.9.2-4-.7-5.5-2.1l5.5-5.5v-17.5l-21.1-8 .5.5c.9.9.9 2.5 0 3.4l-1.5 1.5 2.6 2.6c.9.9.9 2.5 0 3.4l-9.9 9.9c-3 3-7.8 3-10.8 0l-6.7-6.8c-3-3-3-7.8 0-10.8l3.6-3.6c.8-.8 1.8-1.1 2.8-1.1.9 0 1.9.4 2.6 1.1l1.9 1.9 5.5-5.5-18.4-6.9c-2-1.3-4.3-2.1-6.9-2.1-.9 0-1.8.1-2.7.3-5.3 1.2-9.3 6-9.3 11.6v28.1l14.5-14.5 2.1-2.1L120 154l-17.6 17.7-.2.2c-1.8 1.8-4.1 2.5-6.4 2.2v10.6c0 4.1 1.3 7.9 3.6 10.9 1.3.3 2.5.6 3.8.9.6 2.1 1.6 4 2.8 5.7 9 2.2 18.5 3.3 28.2 3.3h2.7V181h17v-13.3h1.8v-1.2z" id="Ebene_4"/><path d="M150.2 158.7l7.6-7.7c0-.4 6-.9 6-1.3-.1-12.1.1-23.9.1-23.9v-4.1c0-2.3-2.9-5.3-4-6.4-.9-.9-1.9-1.6-3-2.2-.2-.1-.3-.2-.5-.3-2.7-1.5-5.8-2.3-9.1-2.3h-26c-5.9 0-11.1 2.7-14.5 6.8-2.7 3.3-4.3 7.4-4.3 11.9v11.4l2.1-2.1L120 154l-17.6 17.7v19.6c0 1.8.3 3.6.7 5.2.6 2.1 1.6 4 2.8 5.7 9 2.2 18.5 3.3 28.2 3.3h2.7V181h17v-13.3h4.4c-.2-2.3-.3-5-.4-7.9-2.1 1.9-5.5 1-7.6-1.1zm-14-19.6l-9.9 9.9c-3 3-7.8 3-10.8 0l-6.7-6.8c-3-3-3-7.8 0-10.8l3.6-3.6c.8-.8 1.8-1.1 2.8-1.1.9 0 1.9.4 2.6 1.1l1.9 1.9.7-.7 6.1-6.1c.9-.9 2.5-.9 3.4 0l2.6 2.6 2.6 2.7c.9.9.9 2.5 0 3.4l-1.5 1.5 2.6 2.6c1 1 1 2.5 0 3.4z" fill="#03a9f4" id="Ebene_2_Kopie"/><path class="st0" d="M121 161.7l-17.6 17.7-.2.2c-1.8 1.8-4.1 2.5-6.4 2.2-1.6-.2-3.2-.9-4.4-2.2l-3.5-3.5-6.6-6.6 23.3-23.3 15.4 15.5zm61.7-35.6V157h-5.3v-1.7c0-2.6-1.7-4.7-4-5.5-.1 0-.1-.1-.2-.1h-12.4v-23.6c0-3.3 1.4-6.2 3.7-8.2 1.9-1.7 4.5-2.8 7.3-2.8h.5c1.3.1 2.6.4 3.8.9 1 .4 2 1 2.8 1.7 2.3 2.1 3.8 5.1 3.8 8.4z" id="Ebene_5"/><g id="Ebene_3"><path class="st2" d="M95.8 174v10.6c0 4.1 1.3 7.9 3.6 10.9 1.3.3 2.5.6 3.8.9 7.9 1.6 16.1 2.5 24.4 2.5m-31.8-51.7v-24.6c0-2.5.5-5 1.4-7.2.7-1.7 1.7-3.3 2.9-4.7 3.4-4.2 8.7-6.8 14.5-6.8h26c5.8 0 11 2.7 14.5 6.8.5.6 1 1.2 1.4 1.9M95.8 72.7c-.5-2.4-.8-4.8-.8-7.3 0-18 14.6-32.5 32.7-32.5s32.7 14.6 32.7 32.5-14.6 32.5-32.7 32.5c-8.6 0-16.5-3.3-22.4-8.8m68.6 46.6v-.1"/><path class="st2" d="M81.3 161.8v-41.3c0-6.6 5.4-11.9 12-11.9 2.5 0 4.9.8 6.9 2.1m33.4 22.4l-7 7m5.9-14.6l-10.2 10.3m-2-6.8l-5.8 5.9m-2.2-7.1l-3.6 3.6c-3 3-3 7.9 0 10.9l6.7 6.8c3 3 7.8 3 10.8 0l9.9-9.9c.9-.9.9-2.5 0-3.4l-2.6-2.6 1.5-1.5c.9-.9.9-2.5 0-3.4l-5.3-5.3c-.9-.9-2.5-.9-3.4 0l-6.7 6.8-1.9-1.9c-.7-.7-1.7-1.1-2.6-1.1-1-.1-2 .3-2.8 1z"/><path class="st2" d="M120 154l-17.6 17.7-.2.2c-1.8 1.8-4.1 2.5-6.4 2.2-1.6-.2-3.2-.9-4.4-2.2l-3.5-3.5-6.6-6.6 23.3-23.3L120 154zm56.4-35.1v30.8h-21.9v-30.8c0-2.3.7-4.4 1.9-6.1.5-.8 1.1-1.5 1.8-2.1 1.9-1.7 4.5-2.8 7.3-2.8h.5c2.5.1 4.8 1.1 6.6 2.6 1.7 1.4 2.9 3.3 3.5 5.5.2.9.3 1.9.3 2.9z"/><path d="M173.2 149.7c.1 0 .1 0 .2.1 2.3.7 4 2.9 4 5.5v15.2c0 2.1-1.7 3.8-3.8 3.8h-11.8c-1.3 0-2.4-1.1-2.4-2.4v-12.3h-1.1c-2.2 2.2-5.9 1.4-8.1-.9 0 0 0 0 0 0s0 0 0 0l8-8c.2-.2.5-.4.7-.6.2-.1.5-.3.7-.3" fill="none" stroke="#02557a" stroke-width="4" stroke-miterlimit="10"/><path class="st2" d="M165.4 174.3V161m6 13.3V161m-34.5 20h57.2v14h-57.2zm0 14h57.2v27h-57.2zm10.5-7h36.2"/><path class="st2" d="M159.4 167.8h-5.5V188h23.2v-16.5"/><path class="st2" d="M177.1 171.5V188h-23.2v-20.2h5.5"/><path class="st2" d="M159.4 167.8h-5.5V188h23.2v-16.5"/></g></svg>