<svg viewBox="0 0 256 256" xmlns="http://www.w3.org/2000/svg"><style>.st2{fill:#67daff}.st3{fill:none;stroke:#02557a;stroke-width:4;stroke-linejoin:round;stroke-miterlimit:10}</style><g id="Ebene_4"><path d="M183.2 190.8c-18.9 9.9-40.3 15.5-63.1 15.5-11.4 0-22.5-1.4-33.1-4-4.2-1.2-8.2-2.5-12.1-4.1-.9-.3-1-2.5-.6-5.6.8-6.8 3.9-18.3 6.6-27.5 2.3-7.8 4.3-14 4.3-14 .3-.4.6-.7.9-1.1 2.1-2.4 4.8-4.2 7.5-5.5v5.7l3.4 3.7 2.2-2.1 2.5-2.5.4-.4 1.1-1.1.6.6 12.8 12.8c.7.6 1.5 1 2.3 1.3l-.5.5 1.1 1.1-3.9 3.9-2 2-.6.6-.1.1-7.7-7.7-.1.1 11.6 11.4-1 1 10.9 3 13.7 4.1 2.4.7v-6.2h.1v6.1l5-1.5 1.2-.4 4.1-1.2 30.3-8.8-.2 19.5z" fill="#03a9f4"/><path class="st2" d="M86 211c-12-7-14-10-22.2-17v-31.7c0-7.9 6.5-14.3 14.4-14.3h.5c3.6 0 7 1.4 9.5 3.6 2.9 2.7 4.7 6.6 4.7 10.7v42.8c-.1 0-.1 0-.2-.1l-6.7 6zm41-33.2l-.7.8v-.1l-10.9-3 1-1-11.5-11.4 4.1-4.1z"/><path class="st2" d="M127 179.2l-.8.7-6.5 6.2-14.5 13.9-.4.4-5 4.8-2 1.9-1.7 1.6c-4.5 4.3-11.9 4.3-16.4 0l-2.2-2.1-5-4.8-1.3-1.2h-.1l-2.7-2.6.9-.9 2.3-2.2 1-1 1.4-1.4 13.7-13.1 5.2-4.9 9-8.6 1.3-1.3 1.6-1.5 11.6 11.4-1 1 10.9 3 .7.7zm62.8-1V198c0 8-6.5 14.6-14.6 14.6-6.1 0-11.4-3.8-13.5-9.1-.7-1.7-1.1-3.5-1.1-5.5v-19.8h29.2z"/></g><g id="Ebene_3"><path class="st3" d="M91.2 90.5c0-22.1 18-40 40.1-40s40.1 17.9 40.1 40c0 5.3-1 10.3-2.9 14.9M85 150.3c-.5-1.9-1.3-3.7-2.5-5.3-.5-.7-1.1-1.4-1.8-2-2.5-2.2-5.9-3.6-9.5-3.6h-.5c-6.2 0-11.5 3.9-13.5 9.4-.6 1.5-.9 3.2-.9 4.9v35.2m76.5 11.5c-4.1.3-8.3.5-12.4.5-8.9 0-17.5-.9-25.7-2.4-.8-.1-1.7-.3-2.5-.5m-11.4-55c3.3-3.3 7.6-5.8 12.4-7.2m33.1 42.7l13.7 4.1 2.4.7v-70.1l-7-2.1-42-12.6v51.6l3.4 3.7 2.2-2.1 2.5-2.5.4-.4-1.1-1.1 1.6-1.6c-.5-1.4-.6-3-.3-4.5.3-1.4 1-2.7 2.1-3.7.3-.3 1-.9 1.3-1.3.3-.3.6-.6 1-.8 2.5-1.8 5.9-2 8.5-.4l1.1-1.1c2.6-2.6 6.9-2.6 9.5 0l9.1 9.1c1.4 1.5 2.1 3.4 1.9 5.3-.1 1.5-.8 3-1.9 4.1l-5.6 5.6c-.1.1-.3.2-.4.3-.1.2-.3.3-.4.5l-1.3 1.3c-2 2-4.7 2.7-7.2 2.1-.3-.1-.6-.1-.9-.2l-.5.5 1.1 1.1-1.5 1.5"/><path class="st3" d="M115.4 175.6l10.9 2.9-.2-.1m65.4-79.9v70.1l-9.3 2.8h-2.8v-8.5h-1.1c4-.3 7.2-3.7 7.2-7.8v-1.8c0-3.6-2.5-6.7-5.8-7.5v-1.5c0-3.7-3-6.7-6.7-6.7h-13c-3.7 0-6.7 3-6.7 6.7v10.8c0 4 3.1 7.4 7 7.8h-4.2v8.5h-2.2v8.5l-1.1.3-4.1 1.2-1.2.4-5 1.5v-70.1l26.3-7.9 22.7-6.8z"/><path class="st3" d="M156.1 162.9h4.2c-3.9-.4-7-3.7-7-7.8v-10.8c0-3.7 3-6.7 6.7-6.7h12.9c3.7 0 6.7 3 6.7 6.7v1.5c3.3.9 5.8 3.9 5.8 7.5v1.8c0 4.1-3.2 7.5-7.2 7.8h1.1v8.5h-23.2m-39.7 3.1l-1 1-5.9 5.8L93 197.5l-.6.6-3.9 3.8-.6.6-1 1c-2.1 2.1-4.9 3.2-7.7 3.2-.5 0-1.1 0-1.6-.1-2.4-.3-4.6-1.3-6.4-3.1l-10.8-10.6-4-4 .9-.9 6.7-6.5L80.7 165l8.9-8.8L91 155l2.8-2.7 1.2 1.1 3.9 3.8 6.1 6 11.4 11.3zm2.9-10.4l-3.9 3.9-2 2-.6.6-.1.1-7.7-7.7-8.7-8.7.6-.6 2.2-2.1 2.5-2.5.4-.4 1.1-1.1.6.6 12.8 12.8 2.8 3.1zm-15.8-15.8l-.1-.1"/><path class="st3" d="M185.5 153.4v1.8c0 4.1-3.2 7.5-7.2 7.8h-17.9c-3.9-.4-7-3.7-7-7.8v-10.8c0-3.7 3-6.7 6.7-6.7H173c3.7 0 6.7 3 6.7 6.7v1.5c3.3.8 5.8 3.9 5.8 7.5zm-2.4 18.1v19.8c0 7.8-6.2 14.2-13.9 14.5h-.7c-2.3 0-4.5-.5-6.4-1.5-3.2-1.6-5.8-4.3-7.1-7.6-.7-1.7-1.1-3.5-1.1-5.5v-19.8"/></g></svg>