<svg width="91" height="13" viewBox="0 0 91 13" fill="none" xmlns="http://www.w3.org/2000/svg">
<path d="M78 6.15356L88.3073 6.15356" stroke="#67DAFF" stroke-width="3.43" stroke-linecap="round" stroke-linejoin="round"/>
<path d="M1.84637 6.15356L12.1536 6.15356" stroke="#67DAFF" stroke-width="3.43" stroke-linecap="round" stroke-linejoin="round"/>
<path fill-rule="evenodd" clip-rule="evenodd" d="M67.8477 6.20615C67.8477 3.90012 65.9645 2.03071 63.6415 2.03071C61.3185 2.03071 59.4353 3.90012 59.4353 6.20615C59.4353 8.51218 61.3185 10.3816 63.6415 10.3816C65.9645 10.3816 67.8477 8.51218 67.8477 6.20615Z" stroke="#67DAFF" stroke-width="3.43"/>
<path fill-rule="evenodd" clip-rule="evenodd" d="M30.7183 6.20615C30.7183 3.90012 28.8352 2.03071 26.5122 2.03071C24.1891 2.03071 22.306 3.90012 22.306 6.20615C22.306 8.51218 24.1891 10.3816 26.5122 10.3816C28.8352 10.3816 30.7183 8.51218 30.7183 6.20615Z" stroke="#67DAFF" stroke-width="3.43"/>
<path fill-rule="evenodd" clip-rule="evenodd" d="M49.283 6.20615C49.283 3.90012 47.3998 2.03071 45.0768 2.03071C42.7538 2.03071 40.8706 3.90012 40.8706 6.20615C40.8706 8.51218 42.7538 10.3816 45.0768 10.3816C47.3998 10.3816 49.283 8.51218 49.283 6.20615Z" stroke="#67DAFF" stroke-width="3.43"/>
</svg>
