<svg width="65" height="105" viewBox="0 0 65 105" fill="none" xmlns="http://www.w3.org/2000/svg">
<path d="M33 83V62.1707L13 43.5732L13 22" stroke="#67DAFF" stroke-width="7" stroke-linecap="round" stroke-linejoin="round"/>
<path d="M33 62L53 43.4815V22" stroke="#67DAFF" stroke-width="7"/>
<path fill-rule="evenodd" clip-rule="evenodd" d="M32.5 84C27.8056 84 24 87.8056 24 92.5C24 97.1944 27.8056 101 32.5 101C37.1944 101 41 97.1944 41 92.5C41 87.8056 37.1944 84 32.5 84Z" stroke="#67DAFF" stroke-width="7"/>
<path fill-rule="evenodd" clip-rule="evenodd" d="M12.5 4C7.80558 4 4 7.80558 4 12.5C4 17.1944 7.80558 21 12.5 21C17.1944 21 21 17.1944 21 12.5C21 7.80558 17.1944 4 12.5 4Z" stroke="#67DAFF" stroke-width="7"/>
<path fill-rule="evenodd" clip-rule="evenodd" d="M52.5 4C47.8056 4 44 7.80558 44 12.5C44 17.1944 47.8056 21 52.5 21C57.1944 21 61 17.1944 61 12.5C61 7.80558 57.1944 4 52.5 4Z" stroke="#67DAFF" stroke-width="7"/>
</svg>
